<?xml version="1.0" encoding="UTF-8"?>
<svg id="Layer_1" xmlns="http://www.w3.org/2000/svg" version="1.1" viewBox="0 0 710.86 388.24">
  <!-- Generator: Adobe Illustrator 30.4.0, SVG Export Plug-In . SVG Version: 2.1.4 Build 226)  -->
  <defs>
    <style>
      .st0 {
        fill: #fff;
      }

      .st1 {
        display: none;
      }
    </style>
  </defs>
  <g class="st1">
    <path d="M327.13,292.36l-9.66,13.91-2.4-15.83c-11.31,2.56-22.36,1.49-33.1-2.44-3.18,1.91-6.45,3.45-10.22,3.82-11.71,1.14-25.63-1.5-31.58-.73-6.37.82-12.58,1.11-19.02,1.1-21.19,16.38-55.3,21.27-79.35,9.79-12.48-5.96-21.65-16.4-25.46-29.66-1.75-6.1-2.29-11.92-2.39-18.25-.17-10.72,1.41-20.86,5.23-30.95,5.49-14.48,13.83-27.22,24.47-38.46,9.31-9.83,20.8-17.88,33.82-21.71,18.07-5.31,38.07.2,49.43,15.36,3.65-1.47,6.96-2.14,10.61-2.78,10.6-1.86,19.76-1.88,27.29,7.3,4.43-4.38,9.69-5.91,15.61-6.62,4.56-.55,8.95-1.2,13.63-1.13,4.36-.37,8.51,1.25,12.49,2.52,10.9-.65,21.29.8,31.15,5.73l21.68-29.88,1.13,17.8,30.55-41.26,3.36,41.37,12.37-19.07,5.27,26.39c4.31-1.26,8.23.49,12.32,1.46l10.23,2.43c18.58-10.24,43.74-16.81,63.45-6.3,18.03-14.77,41.9-20.28,64.58-14.39,25.95,6.74,40.76,31.53,41.42,57.72.37,14.7-2.78,28.34-10.37,40.87-11.72,19.35-29.76,33.37-51.54,39.95-19.8,5.99-40.73,6.33-60.8,1.35-2.41-.6-4.48-2.75-6.65-3.42-6.77-1.77-12.78-4.3-18.23-8.82l-6.22-5.16c-8.67,7.43-19.69,11.71-31.1,11.14-5.89-.85-11.06-3.39-14.39-8.22-5.62-2.15-9.61-5.98-12.87-10.97l-1.68,3.54-.56.66-.25-7.64c-3.74,6.42-9.13,11.14-16.25,13.39l-19.51,31.47c-.99-6.72-.56-13.34-.93-21.15l-22.85,38.26-.68-9.28-.61-10.96-1.41-22.23ZM211.52,181.29c-10.53-12.37-27.42-11.89-40.86-3.59-5.71,3.53-10.85,7.56-15.46,12.47-15.05,16.04-27.07,38.33-24.25,60.56s24.44,30.33,45.2,28.45c11.03-1,21.7-3.98,30.78-10.23,3.33-2.29,5.67-5.15,7.55-8.8,9.96,6.33,25.72,2.47,35.5-3.24,1.25,3.29,3.81,5.94,7.28,5.97l12.19.1c2.5.02,3.04-2.82,2.55-4.8-1.22-4.97-1.69-9.82.83-14.84,1.79,14.59,19.18,20.94,32.97,19.48,8.58-.91,16.7-4.19,22.39-10.39,7.75-8.46,7.66-20.2-.17-28.46-9.58-10.08-22.9-12.42-21.42-16.78s12.35-3.77,16.61,1.37l.83,4.92c4.71,3.04,8.54-3.56,14.9-3.52l7.24.04c-4.07,11.07-7.26,21.71-9.85,32.95-.96,4.17.3,7.59,3.32,10.55,2.16,2.12,4.83,3.94,8.23,2.59,1.53-.61,2.55-2.94,3.03-4.58l1.99-6.78,3.8-.17c-1.01,2.09-2.2,4.17-1.88,6.19.69,4.32,4.13,6.76,7.76,7.56,4.02.88,7.81-1.01,10.16-4.56l6.95-10.51,14.68.49,7.37.95,2.74,8.36c1.9,5.44,6.66,8.27,12.54,7.52.31.05,1.49.35,1.35.67l-.56,1.23c-.34.74-.38,2.64.09,3.3,1.94,2.72,15.14-.32,20.46-6.68,3.55-4.25,4.58-9.62,7.2-14.74l6.88,7.18,6.55,6.51c7.51,7.46,18.23,16.14,26.36,8.39.03,2.43-.19,4.21-.63,6.89,18.81,5.08,40.41,3.93,58.5-3.48,17.03-6.98,30.94-20.01,38.39-36.89,8.08-18.3,4.51-39.81-10.04-53.48-4.69-4.41-10.72-6.82-16.94-8.11-16.46-3.41-33.46,1.04-46.36,11.57l-4.59,4.5c-6.84,6.71-5.63,16-1.94,24.87l3.47-.15-16.57,42.15c-4.77-1.33-8.77-3.18-12.06-6.47l-13.64-13.65c10.3-2.04,19.03-5.69,26.21-12.22,7.77-6.84,10.21-16.68,7.43-26.48-1.68-5.91-5.2-10.39-11.33-12.32-18.75-5.89-50.89,6.65-60.79,24.44-2.29,4.74-2.65,9.43-.18,14.35.73.13,1.99.04,2.75-.18l9.67-6.29-13.57,34.16c-5.42-13.82-7.03-27.46-7.54-41.57l14.95-9.47c.65-.41,1.35-1.89,1.21-2.6-.76-3.99-9.07-6.25-14.59-4.13-.49-1.26-.75-2.15-1.26-2.47-2.28-1.43-9.57,2.28-12.88,5.7l-1.79,4.2c-5.29,3.25-9.97,6.8-14.75,10.82.47-5.52-1.57-11.13-6.22-14.36-1.41-.98-4.41-1-6.19-1.17l-6.58-.62-8.01-.49c-8.15-.49-16.17-.81-24.21.41-1.87.28-2.81.35-4.42-.63-11.31-6.87-28.25-7.5-38.89,1.58l1.71-5.71c1.98-6.6-13.59-3.91-20.9,1.78-6.4,12.65-12.07,25.22-17.37,38.41-4.59,5.58-10.18,9.9-17,12.14-2.01.48-4.19.47-5.57-.85-1.26-1.2-1.75-3.48-1.26-5.39,1.44-5.67,3.22-10.99,5.84-16.25l12.66-25.37c.93-1.87,1.32-4.77.52-6.45-1.75-3.67-11.1-1.17-16.85.09l-4.44,4.54c-4.16,5.73-7.67,11.52-10.52,17.99l-9.91,22.49c-1.21,2.74-1.58,5.56-2.03,8.57-10.57,9.02-31.43,16-43.67,10.78-5.35-2.28-8.04-7.26-7.62-13.1.78-10.74,4.87-20.93,11.92-29.04,4.72-5.43,9.97-9.91,16.23-13.32,3.71-2.02,8.08-2.18,11.33.56,4.27,3.6,5.47,9.39,3.88,14.64-1.05,3.47.71,7.34,4.27,8.12s6.99-.49,9.54-2.71c10.53-9.18,6.89-25.99-1.2-35.49Z"/>
    <path class="st0" d="M211.52,181.29c8.09,9.51,11.74,26.31,1.2,35.49-2.55,2.22-6.06,3.47-9.54,2.71s-5.32-4.65-4.27-8.12c1.59-5.25.39-11.05-3.88-14.64-3.25-2.74-7.63-2.58-11.33-.56-6.25,3.41-11.51,7.89-16.23,13.32-7.05,8.11-11.15,18.3-11.92,29.04-.42,5.84,2.27,10.82,7.62,13.1,12.24,5.23,33.09-1.76,43.67-10.78.45-3.01.83-5.83,2.03-8.57l9.91-22.49c2.85-6.47,6.36-12.26,10.52-17.99l4.44-4.54c5.75-1.26,15.1-3.77,16.85-.09.8,1.67.41,4.58-.52,6.45l-12.66,25.37c-2.63,5.26-4.4,10.58-5.84,16.25-.49,1.91,0,4.19,1.26,5.39,1.39,1.32,3.57,1.33,5.57.85,6.82-2.24,12.41-6.56,17-12.14,5.3-13.19,10.97-25.75,17.37-38.41,7.31-5.69,22.88-8.38,20.9-1.78l-1.71,5.71c10.64-9.08,27.58-8.45,38.89-1.58,1.62.98,2.55.92,4.42.63,8.04-1.22,16.07-.9,24.21-.41l8.01.49,6.58.62c1.78.17,4.78.19,6.19,1.17,4.65,3.23,6.69,8.83,6.22,14.36,4.79-4.02,9.46-7.57,14.75-10.82l1.79-4.2c3.31-3.42,10.6-7.13,12.88-5.7.51.32.77,1.21,1.26,2.47,5.53-2.11,13.83.14,14.59,4.13.14.71-.56,2.19-1.21,2.6l-14.95,9.47c.51,14.1,2.12,27.75,7.54,41.57l13.57-34.16-9.67,6.29c-.76.23-2.02.32-2.75.18-2.47-4.92-2.11-9.6.18-14.35,9.9-17.79,42.04-30.33,60.79-24.44,6.14,1.93,9.66,6.41,11.33,12.32,2.78,9.79.34,19.63-7.43,26.48-7.18,6.53-15.9,10.18-26.21,12.22l13.64,13.65c3.29,3.29,7.28,5.14,12.06,6.47l16.57-42.15-3.47.15c-3.69-8.87-4.9-18.16,1.94-24.87l4.59-4.5c12.9-10.54,29.9-14.99,46.36-11.57,6.22,1.29,12.25,3.71,16.94,8.11,14.55,13.67,18.11,35.18,10.04,53.48-7.45,16.88-21.36,29.91-38.39,36.89-18.08,7.41-39.68,8.56-58.5,3.48.43-2.68.66-4.46.63-6.89-8.13,7.75-18.85-.93-26.36-8.39l-6.55-6.51-6.88-7.18c-2.62,5.13-3.65,10.49-7.2,14.74-5.31,6.36-18.52,9.4-20.46,6.68-.47-.66-.43-2.56-.09-3.3l.56-1.23c.14-.31-1.03-.62-1.35-.67-5.88.74-10.64-2.08-12.54-7.52l-2.74-8.36-7.37-.95-14.68-.49-6.95,10.51c-2.34,3.54-6.14,5.44-10.16,4.56-3.63-.8-7.07-3.24-7.76-7.56-.32-2.02.86-4.1,1.88-6.19l-3.8.17-1.99,6.78c-.48,1.64-1.5,3.98-3.03,4.58-3.4,1.35-6.07-.47-8.23-2.59-3.02-2.96-4.28-6.38-3.32-10.55,2.59-11.23,5.78-21.88,9.85-32.95l-7.24-.04c-6.36-.04-10.19,6.56-14.9,3.52l-.83-4.92c-4.27-5.14-15.21-5.51-16.61-1.37-1.47,4.36,11.85,6.69,21.42,16.78,7.84,8.25,7.93,20,.17,28.46-5.69,6.2-13.81,9.48-22.39,10.39-13.79,1.46-31.17-4.89-32.97-19.48-2.52,5.01-2.05,9.86-.83,14.84.49,1.98-.05,4.83-2.55,4.8l-12.19-.1c-3.47-.03-6.02-2.69-7.28-5.97-9.78,5.71-25.55,9.56-35.5,3.24-1.88,3.65-4.22,6.51-7.55,8.8-9.08,6.25-19.75,9.23-30.78,10.23-20.76,1.88-42.38-6.25-45.2-28.45s9.2-44.53,24.25-60.56c4.61-4.91,9.75-8.94,15.46-12.47,13.44-8.31,30.34-8.79,40.86,3.59ZM559.55,228.34c3.05-4.91,5.07-10.27,4.55-15.99-.74-8.11-6.47-14.1-14.48-15.54-9.45-1.7-20.14,2.11-28.67,6.42,7.02,5.44,8.06,12.72,5.05,20.08l-10.86,26.55c17.1-1.37,34.61-7.63,44.42-21.52ZM462.25,217.68c6.41-1.74,11.71-5.02,15.36-10.39,1.27-1.87,1.87-4.64.84-6.73-2.09-4.24-11.71-2.02-17.18.8l-6.29,18.29,7.26-1.97ZM294.08,242.96c5.94,4.59,15.29,3.41,19.46-2.82,1.92-2.88-2.84-8.25-6.71-10.35-9.27-5.02-18.75-9.96-20.75-21.2l-7.98,19.7c3.87-2,6.51-4.19,10.45-4.15,4.5.04,8.28,3.27,9.32,7.54.95,3.88-4.78,3-5.43,6.22-.34,1.71,0,3.79,1.64,5.05ZM384.36,211.8l-15.34-.88-5.7-.14-5.97,19.98c3.3-1.12,6.23-1.37,9.71-1.22,1.21-.82,2.69-2.4,3.56-3.77l13.74-13.97ZM400.57,230.85l-.2-10.56-9.82,9.61c3.34.73,6.47.95,10.03.95Z"/>
    <path d="M559.55,228.34c-9.8,13.89-27.32,20.15-44.42,21.52l10.86-26.55c3.01-7.36,1.97-14.64-5.05-20.08,8.53-4.31,19.22-8.12,28.67-6.42,8.01,1.44,13.74,7.43,14.48,15.54.53,5.72-1.5,11.08-4.55,15.99Z"/>
    <path d="M294.08,242.96c-1.63-1.26-1.99-3.35-1.64-5.05.65-3.22,6.39-2.34,5.43-6.22-1.05-4.27-4.83-7.5-9.32-7.54-3.95-.04-6.58,2.15-10.45,4.15l7.98-19.7c2,11.24,11.48,16.18,20.75,21.2,3.87,2.1,8.63,7.47,6.71,10.35-4.16,6.23-13.52,7.41-19.46,2.82Z"/>
    <path d="M462.25,217.68l-7.26,1.97,6.29-18.29c5.47-2.83,15.08-5.04,17.18-.8,1.03,2.09.43,4.86-.84,6.73-3.65,5.37-8.95,8.65-15.36,10.39Z"/>
    <path d="M384.36,211.8l-13.74,13.97c-.87,1.37-2.35,2.95-3.56,3.77-3.48-.15-6.41.1-9.71,1.22l5.97-19.98,5.7.14,15.34.88Z"/>
    <path d="M400.57,230.85c-3.56,0-6.69-.22-10.03-.95l9.82-9.61.2,10.56Z"/>
  </g>
  <g class="st1">
    <path d="M403.23,26.21l15.94.05c4.26.01,9.02-1.98,13.32-3.39,1.2,2.82,2.37,6.35,2.3,8.49-.27,8.26-28.58,9.03-43.56,7.86-3.46-.27-7.69-7.49-6.44-10.19,3.68-2.46,4.85-3.31,5.78-8.19,1.43-7.5,7.15-17.71,10.53-23.79,1.79-3.22-2.45-7.53-.44-11.31.63-1.17,3.65-2.83,5.04-2.99l22.83-2.58c9.92-1.12,18.64,4.21,20.1,15.32l-12.6-1.27-20.74,1.27c-1.31,1.18-2.97,4.13-4.18,7.08l16.96-1.07c3.87-.25,8.7,7.94,5.1,9.82-7.76,4.04-16.82,3.12-26.4,3.4l-3.54,11.48Z"/>
    <path d="M330.21,35.75l19.1-49.42c1.59-3.41,9.55-4.08,14.62-3.41l-7.32,22.23h17.18s8.01-22.72,8.01-22.72c6.11,4.06,10.89,7.68,9.1,13.22l-13.9,42.96c-4.23,2.06-12.01-3.07-10.76-7.83l3.79-13.98-17.95.04-6.73,15.48c-1.7,3.39-9.96,4.74-15.14,3.44Z"/>
    <path d="M309.37,36.01c-5.22,1.19-12.6-3.81-11.29-8.03l10.97-35.35-20.01.06c-.72-1.18,1.05-5.69,1.38-7.95s2.63-3.57,5.64-3.75c14.6-.89,28.47-.63,43.02,1.8,4.42.74,6.7,7.73,6.12,11.54l-21.76-.89-14.07,42.58Z"/>
  </g>
  <g class="st1">
    <path d="M539.23-6.9l-16.28-16.4c-2.18,10.39-9.65,17.56-20.53,15.3l15.47-35.2-9.06,4.05c-.55-2.58-1.2-8.07.52-10.36,10.19-13.56,28.46-20.61,44.96-15.57,7.84,2.39,9.4,14.14,5.92,20.61-4.96,9.22-13.99,12.84-24.61,14.53l12.38,12.54,8.03,4.06c-1.92,3.38-3.95,6.76-5.87,8.19-2.28,1.7-8.61.59-10.94-1.75ZM531.16-41.17c7.55.13,11.08-2.2,15.7-6.1,1.68-1.73,2.29-6.6-.23-7.69-2.77-1.2-9.85-.23-10.86,2.3l-4.6,11.49Z"/>
    <path d="M135.98-95.23c-4.16-.78-9.33.81-13.36-2.44,7.24-11.36,12.52-21.81,14.97-35.6-3.67,2.45-6.23,6.52-9.36,10.8-10.48-4.24,1.74-23.49,15.36-28.94,11.16-4.46,25.1-.76,28.64,8.2,2.04,5.16.05,10.83-2.69,15.33,3.16,1.6,7.16,4.3,8.5,6.77,2.17,4,.89,8.75-.86,12.67-4.72,10.54-15.23,16.14-27.07,15.85l-14.13-2.64ZM160.28-136.79c.31-5.3-8.93-6.1-12.14-2.73l-1.73,10.09c5.26-.14,13.56-1.91,13.88-7.36ZM152.18-104.46c7.42.04,14.85-5.06,14.38-12.26-5.03-5.93-21.65-1.16-23.25,1.73-.8,1.45-1.53,5.92-1.14,7.74.78,2.21,6.33,2.77,10.01,2.79Z"/>
    <path d="M482.92-2.56c-3.09-2.82-5.82-6.52-8.01-10.25-9.27,2.89-19.83,2.48-28.59-2.32-9.89-5.42-12.85-16.44-7.78-26.46,11.59-22.9,37.85-34.24,48.37-20.86,3.91,4.98,5.85,12.27,1.96,17.83l-1.76,2.51c-.5.71,6.05,6.23-.83,20.68,3.07,6.43,5.7,14.14-3.35,18.87ZM472.36-41.3l6.09,7.54,2.69-6.6c-6-3.08.89-11.52-4.47-14.55-6.97-3.94-26.35,9.07-25.74,23.04,2.78,5.38,10.86,7.43,16.42,7.41l-5.36-10.64c-.78-1.54,1.79-5.18,3.3-5.97s6-1.56,7.07-.24Z"/>
    <path d="M352.36,17.1l-17.45,45.62c-1.04,2.72-3.05,6.06-5,6.81-2.73,1.05-7.54.68-9.48-.92l-3.18-22.16-13.27,22.91c-5.8,3.99-12.13-4.36-12.72-9.73l-3.93-36.14c-.32-2.94-.01-6.99.68-9.88,8.05-.48,12.22,5.49,13.01,12.43l2.24,19.88,11.42-18.2c1.17-1.86,3.68-4.02,6.18-6.3,3.77,7.81,4.8,13.34,7.35,22.58l7.64-19.04c2.71-6.76,9.09-10.36,16.49-7.86Z"/>
    <path d="M371.61-15.92l-5.16-3.72c2.04-3.75,6.31-6.76,10.15-9.15l8.1-18.98c-1.18.13-3.92.03-4.32-.84-2.12-4.63.29-11.29,5.44-14.68,9.09-5.99,22.18-7.19,31.98-.75,6.53,4.29,9.52,12.89,9.55,20.03.08,18.63-20.82,29.65-40.8,28.68l-5.8,13.03c-2.69,2.84-9.48,3.89-14.28,3.95-.06-6.68,1.58-10.45,5.15-17.56ZM412.52-37.98c4.37-5.55,1.74-14.34-4.89-15.99-5.39-1.34-10.73-.08-16.34,1.76l4.9,6.68c1.05,5.66-1.54,10.93-4.35,16.59,7.82-.28,15.68-2.7,20.67-9.04Z"/>
    <path d="M331.72-106.29l15.94.05c4.26.01,9.02-1.98,13.32-3.39,1.2,2.82,2.37,6.35,2.3,8.49-.27,8.26-28.58,9.03-43.56,7.86-3.46-.27-7.69-7.49-6.44-10.19,3.68-2.46,4.85-3.31,5.78-8.19,1.43-7.5,7.15-17.71,10.53-23.79,1.79-3.22-2.45-7.53-.44-11.31.63-1.17,3.65-2.83,5.04-2.99l22.83-2.58c9.92-1.12,18.64,4.21,20.1,15.32l-12.6-1.27-20.74,1.27c-1.31,1.18-2.97,4.13-4.18,7.08l16.96-1.07c3.87-.25,8.7,7.94,5.1,9.82-7.76,4.04-16.82,3.12-26.4,3.4l-3.54,11.48Z"/>
    <path d="M246.2-94.93l7.81-19.9,5.85-12.73c-3.97-4.35-4.22-10.73.42-15.23,9.2-8.93,25.67-11.96,36.45-3.48s10.79,23.81,3.96,34.43c-11.22,17.43-32.47,22.87-54.49,16.89ZM264.97-107.61c12.06.72,20.27-4.3,26.76-11.68,1.49-4.43,2.23-8.34.38-12.18-1.29-2.69-6.51-6.33-9.92-5.46l-12.74,3.24c3.89,5.53,3.21,8.86,1.14,13.5l-5.61,12.58Z"/>
    <path d="M189.59-47.86l-14.78,34.33-13.45,4.07c-1.28-.66-2.08-4.43-1.46-5.85l17.76-40.21c1.78-4.03,1.97-7.03,5.91-8.45,2.83-1.02,8.18-1.28,9.76,1.12l8.64,13.1,19.31-14.48c3.29-2.47,6.93-3.92,12.15-3.23l-15.75,45.46c-1.54,4.44-1.55,10.13-8.35,10.44-1.33.06-3.8-.06-4.88-.28s-1.32-3.64-.93-4.91l7.91-25.9-13.16,8.93-8.68-14.13Z"/>
    <path d="M484.82-103.18l-9.2,20.23c-1.56,3.44-9.41,4.2-12.77,2.72l4.58-15.27c-8.71,3.54-19.62,3.94-24.95-4.05-9.43-14.13,3.59-40.16,23.07-50.36,6.76-3.54,15.36-2.26,20.01,2.84,4.9,5.36,6.86,13.82,1.71,19.77-1.05,1.22-4.89,2.48-6.33,1.88s-1.79-4.03-2.06-6.06l-.75-5.62c-.2-1.47-4.68-2.35-6.27-1.78-17.25,6.18-21.05,27.22-16.39,30.49,5.52,3.88,16.12-2.18,23.22-9.87,2.48-.2,6.18,3.05,7.02,5.31,1.04,2.82.37,7-.9,9.78Z"/>
    <path d="M574.85-12.45c-4.12-3.05-5.62-8.89-5.03-13.02,1.07-7.54,8.14-12.94,14.43-11.14,1.82.52,5.15,4.63,3.79,5.94-1.57,1.51-4.53,4.88-3.66,6.52,2.69,5.05,9.36,6.53,14.56,3.65,1.89-1.05,4.36-3.56,4.52-5.32s-1.92-5.2-3.5-6.19l-12.83-7.98c-4.05-2.52-6.75-7.92-6.39-12.28.35-4.18,3.31-8.72,7.98-11.38,9.27-5.28,24.61-3.98,31.34,5.03,3.51,4.71-2.79,12.19-7.44,11.82-1.67-6.37-6.21-8.57-12.73-7.76-1.14.14-3.75,1.17-4.13,2.2-1.59,4.26,10.71,6.63,18.42,15.44,6.51,7.45,5.28,17.58-2.36,23.65-10.29,8.18-25.76,9.14-36.97.82Z"/>
    <path d="M414.9,64.71c-2.57,4.22-7.99,9-12.68,6.25-5.49-3.22-9.14-9.15-13.48-15.2l-13.37,12.45c-5.17,4.81-13.48,4.33-20.08.51l25.14-26.15-9.57-17.56c-2.27-4.16,3.71-10.17,8.11-12.49l11.78,18.74,12.84-12.45c3.44-3.34,8.95-4.71,13.77-4.03l3.85.54c.81.11.11,3.48-.11,3.89l-22.1,25.03,9.32,14.94,6.56,5.52Z"/>
    <path d="M287.74-21.3c-1.2,3.39-1.29,7.76-3.19,9.04-2.74,1.86-7.95,2.76-10.26,1.26l-13.32-31.61-7.7,22.66c-1.63,4.8-2.03,9.33-8.96,9.8l-3.71.25c-.96.06-1.58-3.34-1.79-4.48l14.39-44.28c3.65-4.16,8.26-6.45,13.72-7.58l1.29,7.77,11.13,24.35,9.03-24.93c1.77-4.88,9.38-7.75,14.97-6.23l-15.61,43.96Z"/>
    <path d="M495.96,68.44l-7.57,2.56-.52-11.19c8.94-5.8,15.68-12.06,23.22-19.22l13.04-12.39-22.54,1.89c-1.97-2.43-1.73-6.07-.33-8.51s4.61-4.64,8.02-4.96l34.87-3.21c1.61,1.52,3.31,5.11,3.08,6.76-.26,1.89-2.14,4.82-3.89,6.59l-17.5,17.65-10.75,10.07,18.66,1.88c3.42.34,6.13,7.85,5.95,11.77l-43.75.31Z"/>
    <path d="M459.35,64.52l-10.43,23.65c-2.82,3.19-13.16-.9-12.49-6.87.9-8.07,5.15-15.54,8.93-22.71-11.22-3.08-15.32-22.92-14.43-33.98.39-4.89,6.72-8.7,10.77-11.18,4.48,9.68,2.34,22.2,8.91,33.49l17.69-31.28c4.56-1.43,9.84-1.4,15.22.43l-24.16,48.46Z"/>
    <path d="M221.46,15.55l-15.81,40.18c-1.74,4.43-1.64,8.95-.06,13.27-4.98,2.02-11.95,2.27-15.25-3.41-7.29,3.65-15.51,6.42-24.05,3.23-16.14-6.04.65-34.91,10.2-51.1l12.76-3.01c.04,3.29-.5,5.43-1.8,8.32l-11.95,26.53c-.5,1.1.4,4.86,1.09,5.82,2.73,3.75,14.82-1.6,19.19-10.68l12.27-25.5c1.6-3.33,8.23-4.38,13.41-3.65Z"/>
    <path d="M345.78-12.8c-10.27,4.8-22.19,4.67-31.21-1.19-5.23-3.4-9.19-9.59-8.22-15.89,3.78-24.5,29.65-44.74,44.14-32.9,10.8,8.83,3.28,19.88,3.27,19.86l2.22,3.34c5.78,8.7.13,21.94-10.2,26.76ZM347.35-41.07c-4.23-1.95.49-10.33-4.93-12.57-8.14-3.36-24.64,13.01-21.02,24.64,1.97,6.32,12.89,5.79,18.07,3.14,4.82-2.47,9.04-9.1,7.88-15.2Z"/>
    <path d="M68.32-12.53l-18.43-16.24-7.96,20.17c-2.65.86-6.31-1.21-7.53-3.17-1.82-2.93-1.87-6.51-.64-9.73l6.59-17.18c-4.1-5.05-2.26-11.59,1.56-15.56l3.31,2.57,9.06-18.29c6,5.22,6.01,10.69,4.25,18.36l18.99-8.9c4.03-1.89,11.26,2.25,10.18,6.34l-28.47,16.23,16.46,15.92c1.19,1.15,4.57,2.43,7.08,3.7-.15,1.95-2.35,6.04-4.15,7.32-2.34,1.66-7.93.56-10.31-1.54Z"/>
    <path d="M497.98-93.8l7.14-20.92c1.6-4.69,2.15-6.78,3.98-10.97l8.54-19.57c1.55-3.55,7.13-4.24,12.07-3.55l-7.15,23.15h16.97s9.82-25.66,9.82-25.66c5.97,4.23,7.64,10,5.89,15.77l-13.57,44.73c-4.13,2.14-10.73-3.2-9.51-8.15l3.8-15.46-17.62.94-7.57,16.12c-1.66,3.53-7.72,4.94-12.79,3.59Z"/>
    <path d="M90.45-105.94l-18.54-.16-6.98,12.5c-1.74,1.63-8.02.96-9.22-.96-1.4-2.25-.9-5.65.28-9.92l-5.46.64c-2.41-9.51,7.86-9.05,11.82-12.07,10.08-7.69,15.47-20.37,27.21-26.58.5-5.75,6.22-9.9,10.46-6.92,4.08-.33,6.86-.22,11.52,1.96l-12.45,10.29c-.29,14.95,2.8,28.82,9.68,43.59-4.31,1.19-9.48,1.26-13.45.33l-4.88-12.69ZM90.15-115.12l-1.29-12.83-10.62,12.69,11.91.14Z"/>
    <path d="M606.34-95.85c-8.93,4.06-18.74,2.63-27.91,3.16-7.5.43-13.21-2.82-13.95-12.09l17.49-.25,10.27-31.02c-3.85.44-6.49,1.55-11.15,3.58-1.51-.69-3.33-6.23-2.98-9.15.29-2.41,3.94-5.78,6.89-6.33,10.87-2.03,20.82-3.59,31.96-2.47,4,.4,7.41,7.77,7.47,11.24l-18.44,1.75-9.6,31.69,10.48-3.04c2.78,1.74,4.8,10.51-.51,12.92Z"/>
    <path d="M417.1-110.83l-19.35,1.5c-1.72,11.37-9.08,18.66-20.8,17.72l6.13-16.65c-1.37-2.86-2.37-7.85-1.34-10.38,5.24-1.16,7.15-2.66,8.89-7.31,4.67-12.45-.3-14.42,1.73-17.63.8-1.26,4.07-2.12,5.63-2.69,4.29-4.53,8.59-7.86,15.63-8.08l-.88,7.09c4.54-.64,10.23-2.11,14.19-1.49,6.48,1.02,11.23,6.19,12.73,12.67l-8.96-.73-22.08,1.57-4.8,13.3c9.91-.84,18.25-.67,19.25,6.95.26,1.96-3.16,3.94-5.99,4.16Z"/>
    <path d="M211.75-106.64c8.89.52,16.75-3.01,23.52-9.16,5.24,7.13,1.38,16.14-6.38,19.43-10.41,4.41-23.11,5.8-32.38-1.77-5.52-4.5-5.87-13.42-4.34-20.25,4.74-21.17,27.36-40.28,40.93-28.88,5.25,4.4,7.43,12.59,3.94,18.98-.62,1.14-2.97,2.85-4.14,3.28-1.4.52-4.84-1.41-4.95-2.91.59-3.21.6-7.95-2.13-9.76-5.83-3.85-18.99,7.89-21.47,21.82-.71,4.01,1.93,8.89,7.39,9.21Z"/>
    <path d="M238.7,70.43c-4.3-18.54-7.33-35.91-8.37-54.49,7.93-.66,13.55,3.85,14.63,10.38l4.22,25.46,27.24-38.52c5.76,5.08,5.45,12.65,1.35,18.99l-27.69,42.75c-3.71.11-8.22-1.72-11.38-4.57Z"/>
    <path d="M651.6-6.93c-5.22,1.24-11.6-3.99-10.29-8.41l10.97-37-19.01,2.06c-.72-1.23-1.8-6.3-1.48-8.66s4.48-5.39,7.5-5.58c14.6-.93,28.47-.65,43.02,1.88,4.42.77,6.7,8.09,6.12,12.08l-22.76-.94-14.07,44.57Z"/>
    <path d="M646.94-131.62c4.67,5.64-7.42,11.9-4.98,20.06.98,3.28,5.16,4.48,8.29,4,2.27-.35,5.56-3.02,6.64-5.84l11.78-30.81c1.88-4.91,8.71-7.34,14.22-6.58l-16.26,45.66c-2.11,5.93-7.81,10.49-12.4,11.7-6.49,1.72-14.02,1.04-18.64-3.3-5.85-5.5-7.9-13.22-5.51-20.9,1.98-6.36,7.69-13.23,16.87-14Z"/>
    <path d="M145.92-16.87c-3.39,8.64-26.72,7.6-41.72,6.18-3.41-.32-5.94-7.86-5.47-10.6l6.97-1.06,14.7-38.76c1.58-4.16,8.16-6.29,12.9-6.07l-14.42,44.71c8.36,1.26,15.89.57,24.38-3.16,1.67,2.01,3.49,6.65,2.67,8.76Z"/>
    <path class="st0" d="M531.16-41.17l4.6-11.49c1.01-2.52,8.09-3.49,10.86-2.3,2.53,1.09,1.92,5.96.23,7.69-4.62,3.9-8.15,6.23-15.7,6.1Z"/>
    <path class="st0" d="M152.18-104.46c-3.68-.02-9.24-.58-10.01-2.79-.39-1.82.34-6.29,1.14-7.74,1.6-2.89,18.22-7.66,23.25-1.73.47,7.21-6.96,12.3-14.38,12.26Z"/>
    <path class="st0" d="M160.28-136.79c-.32,5.45-8.62,7.22-13.88,7.36l1.73-10.09c3.21-3.37,12.45-2.57,12.14,2.73Z"/>
    <path class="st0" d="M472.36-41.3c-1.07-1.32-5.56-.54-7.07.24s-4.07,4.42-3.3,5.97l5.36,10.64c-5.56.02-13.64-2.03-16.42-7.41-.62-13.97,18.77-26.98,25.74-23.04,5.37,3.03-1.52,11.47,4.47,14.55l-2.69,6.6-6.09-7.54Z"/>
    <path class="st0" d="M412.52-37.98c-4.99,6.34-12.85,8.77-20.67,9.04,2.81-5.66,5.4-10.94,4.35-16.59l-4.9-6.68c5.61-1.84,10.95-3.1,16.34-1.76,6.63,1.65,9.25,10.44,4.89,15.99Z"/>
    <path class="st0" d="M264.97-107.61l5.61-12.58c2.07-4.64,2.75-7.97-1.14-13.5l12.74-3.24c3.41-.87,8.63,2.77,9.92,5.46,1.85,3.84,1.11,7.75-.38,12.18-6.49,7.38-14.69,12.4-26.76,11.68Z"/>
    <path class="st0" d="M347.35-41.07c1.17,6.1-3.05,12.73-7.88,15.2-5.18,2.65-16.1,3.19-18.07-3.14-3.62-11.63,12.88-28,21.02-24.64,5.42,2.24.7,10.62,4.93,12.57Z"/>
    <polygon class="st0" points="90.15 -115.12 78.24 -115.25 88.85 -127.95 90.15 -115.12"/>
  </g>
  <g class="st1">
    <path d="M437.8-112.96c2.25,2.28,5.51,2.01,8.34.99.14,7.51-4.06,15.55-10.59,19.13-5.89,3.23-12.17.4-16.22-4.43-3.83-4.57-6.04-9.93-9.29-15.52.13,13.22-1.2,32.68-10.12,35.32-8.38,2.49-17.52-.55-21.2-8.31,2.6-2.87,5.79-5.72,6.86-8.79,5.27-15.07,5.94-30.49,5.91-46.29l-.02-9.12c-.02-10.85-.21-21.25-3.4-31.61-4.9-3.77-5.04-10.49-1.84-15.1,6.58-5.93,16.11-13.54,24.16-12.03l1.28,14.11.8,25.35,1.01,12.06c6.96-5.3,16.8-15.53,17.57-22.83l.69-6.5c8.42-2.09,17.57,4.48,17.3,13.55-.18,6.23-9.01,17.88-14.65,23.21l-14.79,13.98,9.52,14.01,8.7,8.82Z"/>
    <path d="M522.3-118.91c4.88-6.13,13.41-6.58,19.98-3.54,6.31,9.46,3.65,24.36-4.63,32.6-21.34,21.24-55.46,5.05-57.32-24.83-2.03-32.75,12.57-61.95,46.33-59.06,30.31,2.59,21.66,51.33-24.62,51.33-.96,7.29,1.78,15.21,8.59,17.49,3.82,1.27,8.15.13,10.75-2.37,1.88-1.8,1.95-4.78.26-6.76l-.65-.75c-.57-.66.57-3.19,1.31-4.12ZM525.28-152.45c-.16-6.24-17.56-1.5-21.39,11.67,9.36.84,21.6-3.51,21.39-11.67Z"/>
    <path d="M216.26-102.76c3.18,2.37,6.64,2.24,9.47,1.1,2.62-1.05,5.17-4.77,4.51-8.14-1.39-7.17,2.88-12.34,9.93-13.23,4.78-.6,9.43,1.49,10.52,6.49,5.71,26.22-14.07,46.53-40.08,38.73-29.86-8.94-33.17-74.07-3.45-97.13,8.37-6.49,24.14-6.07,32.11.57,6.58,5.48,9.36,11.99,9.03,20.48-.19,4.87-.74,9.05-4.15,12.47-2.8,2.81-7.15,5.65-12,3.94-7.51-2.64-5.89-12.15-7.69-17.58-.8-2.43-4.29-2.68-6.61,1.06-7.84,12.67-11.61,43.76-1.6,51.22Z"/>
    <path d="M275.09-82.21c-7.68-3.85-12.35-8.97-15.3-16.49-8.24-21.04-8.42-54.23,7.66-68.78,6.12-5.54,16-8.24,23.87-6.81l5.47-2.11c.99-.38,3.28-.54,4.2-.18,3.65,1.41,2,10.41-.71,17.28,7.77,3.61,13.89,9.83,15.64,18.62,3.72,18.65-.78,38.57-13.52,52.76-7.01,7.8-18.27,10.23-27.31,5.7ZM292.66-139.09c-3.35-3.61-11.51,2.21-17.66-4.6-6.17,17.02,3.85,44.24,12.49,39.29,12.23-7.01,15.07-24,5.16-34.69Z"/>
    <path d="M352.63-87.03c-16.37.2-28.22-14.35-30.71-31.59-1.27-8.77-1.04-17.84-.16-26.74.43-4.42,2.61-8.66,4.36-12.46,5.85-12.73,20.54-18.46,34.42-16.73,2.07-1.03,6.12-2.58,8.36-2.19,3.83,3.61,2.19,9.99-.2,14.79,10.26,5.23,16.74,14.64,17.27,25.98,1.08,23.2-12.96,48.7-33.33,48.95ZM361.39-114.34c6.76-8.51,6.73-20.16,1.13-28.89-2.77-4.31-8.01-4.96-12.17-2.97l-6.57-2.19c-7.48,10.99-2.55,33.29,7.43,38.49,3.4,1.77,7.79-1.43,10.18-4.44Z"/>
    <path d="M472.91-98.25c-.24,2.8-1.93,6.16-3.71,7.03-5.05,2.47-12.71,1-15.4-4.5-2.98-6.1-3.61-13.13-3.58-20.29.06-15.86.07-32.29,7.58-46.53,3.47-6.58,14.88-7.65,20.89-5.2,1.89,2.86,1.35,7.57.41,10.68-4.74,15.73-5.63,30.88-5.17,47.17l-1.02,11.64Z"/>
    <path d="M469.39-180.26c-4.55-.94-8.23-6.13-8.86-9.58-.96-5.27.05-10.62,3.82-13.64,5.51-4.41,12.45-4.23,17.69-.69s6.72,11.22,4.05,16.62c-3.12,6.31-8.51,8.99-16.7,7.29Z"/>
  </g>
  <g>
    <path class="st0" d="M705.32,153.73c2.74-9.89-7.09-17.36-15.2-24.24-10.99-9.32-33,13.44-68.04,80.01,8.21-53.93,20.9-103.49,34.7-154.8l32.13-4.63-13.56-.65-1.31-1,13.75-1.22,17.37-1.47-11.45-2.8,13.29-2.1-44.05-5.53s7.09-19.27,10.43-28.82c.74-2.12-1.53-4.2-3.77-4.03-11.29.86-22.41,5.4-30.95,10.79l-8.08,24.3-19.9,3.03c1.6-5.16,3.51-11.82,5.09-16.98.58-1.91-1.02-3.76-3-3.5-11.58,1.54-24.55,7.91-33.05,13.44l-5.81,17.75c-24.85,9.8-47.41,21.87-67.71,39.07-8.54,7.23-13.27,21.25-4.79,29.96,6.07,6.24,18.41,4.76,26.19,4.18,7.37-.55,10.05-5.71,9.12-12.45-.7-5.13,1.71-7.69,5.52-10.1,6.72-4.24,13.05-8.29,19.94-10.91-13.03,49.76-23.45,96.27-28.92,145.4-1.38,12.41-2.46,24.78.25,36.54,2.82,12.21,12.28,20.53,24.05,21.25,3.21.19,5.93-2.24,6.01-5.45.12-4.59-.68-8.77-1.25-13.61-1.7-14.46.23-29.03,2.26-44,7.36-54.39,19.35-106.6,34.11-159.52l23.35-7.43c-16.27,60.01-32.58,127.96-37.68,188.41-2.45,29.08,17.03,42.6,24.72,43.27,4.1.36,7.74-2.64,8.36-6.71,6.34-41.82,27.98-73.38,49.88-107.56-6.53,15.27-8.88,31.54-9.98,52.75-2.22,42.85,1.53,66.82,21.2,54.73,19.61-12.05,6.73-11.27,11.02-65.51,2.16-27.33,8.46-43.57,15.76-69.87Z"/>
    <path class="st0" d="M172.03,107.6c4.93-9.53,8.9-21.9,4.15-31.83-3.37-7.04-12.12-9.8-19.64-10-2.59-.07-5.13.81-7.18,2.41C73.61,127.51,21.45,235.72,2.9,327.82c-5.22,25.91,4.3,45.42,30.4,49.59,8.73,1.4.87-7.34,13.43-65.27,6.01-27.75,27.43-55.74,45.56-58.31,1.21-.17,2.24.88,2.12,2.1-3.09,33.13-.81,80.09,16.56,89.84,1.71.96,5.56.71,7.51-.13,8.31-3.58,7.52-8.01,5.62-13.2-6.37-17.34-23.27-87.3,47.92-224.84ZM93.84,242.16c-7.13-2.33-16.67-2.07-22.78-.45-1.59.42-2.95-1.18-2.25-2.67l13.89-29.67s.03-.06.05-.09l9.56-17.83s.04-.08.07-.11l26.32-42.02c.09-.14.19-.26.31-.37h0c1.51-1.43,3.9.22,3.1,2.13-12.48,29.76-21.96,56.38-25.79,89.46-.14,1.2-1.33,2-2.47,1.62Z"/>
    <path class="st0" d="M280.05,311.01c12.29,5.46,26.73-4.11,25.82-10.63-6.47-46.52-2.52-73.96,11.49-114.68,7.61-22.12.53-25.83-5.43-24.04-17.64,5.29-26.75,9.17-36.68,24.54-16,24.77-31.57,54.42-43.61,81,1.44-23.15,4.58-43.52,10.66-64.93,2.98-10.49,8.77-25.69,8.46-31.7-.51-9.83-28.39-1.53-41.13,15.99-14.9,20.49-29.38,43.53-43.24,68.19,4.51-23.11,19.1-63.86,27.21-81.89,4.1-9.11-25.72-7.61-31.71,4.3-12.5,24.86-20.94,50.27-25.7,77.84-6.75,39.08-7.65,62.1,4.26,64.01,8.07,1.29,22.34-2.42,24.84-7.85,16.42-35.57,26.64-57.64,41.56-82.22-5.93,32.55-6.28,74.01,1.63,82.82,3.11,3.47,18.31,2.91,22.73.73,7.32-3.62,7.93-8.34,19.01-33.38,11.06-24.98,29.44-56.39,29.44-56.39-8.6,28.56-10.29,83.53.4,88.28Z"/>
    <path class="st0" d="M330.9,289.5c16.02,16.94,47.43,15.28,67.52-8.35,13.54-15.92,21.66-43.7,20.26-60.74-.64-7.76-5.15-13.07-13.77-14.75,7.34-5.87,9.03-14.44,9.88-23.53,1.07-11.38-4.42-20.95-15.82-24.57-28.63-7.12-52.03,13.84-66.54,41.18-11.89,22.4-24.93,66.03-1.54,90.76ZM350.7,231.56c9.14-32.08,26.4-50.61,34.54-49.87,9.49.86-12.84,27.22,4.16,35.77l8.1-6.01s-9.04,60.84-36.9,56.07c-9.92-1.7-16.28-13.58-9.9-35.95Z"/>
    <path class="st0" d="M457.32,296.67c5.84.2,7.84-2.36,5.06-11.78-2.08-7.05-3.19-12.57.58-43.95,6.7-55.72,14.44-117.97,51.46-214.16,2.33-6.06-36.34,3.41-40.94,13.76-33.38,74.96-45.86,195.49-48.03,219.74-2.1,23.48,10.06,35.64,31.87,36.4Z"/>
    <path class="st0" d="M303.71,330.85c-8.37,3.44-16.77,7.49-22.05,14.78-4.18,5.77-2.07,17.24,3.24,21.44,8.71,6.89,20.04,8.89,30.73,6.55,1.84-3.98,2.86-8.53,3.8-14.32,45.12-18.05,92.69-26.21,140.9-21.62,9.44.9,16.64,2.14,27.06-1.26,2.08-.08,2.56-.56-.94-2.36l11.33.39c-61.15-28.67-131.45-29.36-194.07-3.62Z"/>
    <path class="st0" d="M522.96,178.65c5.88-27.27,11.06-32.73,6.11-36.07-4.59-3.1-30.35,2.33-32.43,9.09-12.07,39.2-15.67,68.36-17.6,105.51-1,19.3,12.07,35.05,29.76,35.28,2.52.03,6.01-2.2,5.75-4.71-1.56-15.42-6.84-38.36,8.4-109.09Z"/>
  </g>
</svg>