<?xml version="1.0" encoding="UTF-8"?>
<svg id="Layer_1" xmlns="http://www.w3.org/2000/svg" version="1.1" viewBox="0 0 1000 568.7">
  <!-- Generator: Adobe Illustrator 30.4.0, SVG Export Plug-In . SVG Version: 2.1.4 Build 226)  -->
  <defs>
    <style>
      .st0 {
        fill="#fff";
      }

      .st1 {
        display: none;
      }
    </style>
  </defs>
  <g id="Layer_2" class="st1">
    <g>
      <path d="M172.91,288.84c-11.26,46.09-28.48,86.82,15.3,109.54,0,0-17.77-34.73,2.86-73.3,20.63-38.57,36.43-95.75-.87-139.28-31.4-36.65-27.03-49.66-27.03-49.66,0,0,12.25,19.73,43.05,30.57,32.96,11.6,33.63,53.77,33.63,53.77,0,0,20.25-25.25,14.87-67.41-5.38-42.16-29.41-105.64-3.75-138.09,0,0-2.76,22.12,19.4,57.96,20.48,33.12-9.81,53.8,6.13,127.99,14.75,68.67,70.74,60.23,70.74,60.23,0,0-40.26-22.29-46.65-76.13-6.13-51.65,23.41-74.06,5.19-123.8-8.16-22.29-46.22-54.63-18.84-115.14,0,0-58.37,14.99-75.42,75.09-17.04,60.1.06,112.13.06,112.13,0,0-25.68-4.19-67.62-62.21,0,0-33.5,60.99,11.14,124.95,25.86,37.05,27.45,53.22,17.79,92.78h.02Z"/>
      <path d="M422.51,45.43c10.26,61.55-76.42,136.43-7.69,190.79,0,0-5.57-36.81,30.52-59.63,40.99-25.92,86.54-90.44,71.84-154.16s-63.52-53.44-63.52-53.44c0,0,53.52,40.75,32.08,109.24-16.57,52.95-61.14,75.5-61.14,75.5,0,0,40.2-52.41,30.94-109.59s-62.5-88.24-105.86-65.9c0,0,62.57,5.64,72.83,67.19Z"/>
      <path d="M532.04,36.02c1.38,38.67-36.38,65.29,4.36,113.62,29.89,35.47,28.57,58.22,28.57,58.22,0,0,15.88-14.5,7.6-44.88-8.29-30.38-36.19-42.43-17-91.96,21.41-55.24-10.24-101.83-56.41-103.36,0,0,31.5,29.69,32.88,68.36h0Z"/>
      <path d="M575.04,32.26c-13.01,50.92-25.15,60.78-13.28,89.01,11.87,28.24,21.5,30.25,20.24,53.3,0,0,18.32-9.16,8.55-33.17-10.31-25.34-20.37-40.47,5.8-94.65.34-.71-1.33,62.93,29.05,86.27,24.34,18.7,29.24,14.26,29.24,14.26,0,0-13.03-27.07-12.47-51.15.74-31.43,24.19-78.38,21.33-97.2s-12.32-21.88-22.14-39.06c-9.82-17.18-7.99-31.51-7.99-31.51,0,0-18.01,9-11.46,33.56,6.55,24.55,17.6,30.28,16.78,42.56-.82,12.28-14.92,45.54-18.41,69.22,0,0-3.75-7.19-3.91-26.83-.26-32.99-3.16-36.19-13.28-47.29-25.37-27.83-49.43-27.65-49.43-27.65,0,0,30.89,23.15,21.39,60.35v-.02Z"/>
      <path d="M821.07,45.91c-44.57-7.77-65.1,8.95-87.49,2.12-17.31-5.28-11.14-20.68-11.14-20.68,0,0-20.04,11.47-9.55,32.08,8.61,16.91,25.32,21.17,47.46,15.38,24.26-6.34,40.34-5.51,40.34-5.51,0,0-69.16,10.21-99.99,81.6,0,0-13.27-28.62-12.73-55.15,1.16-56.92,32.31-92.28,5.57-141.58,0,0,24.04,1.08,26.52,35.79,2.09,29.28,32.5,41.77,45.54,15.16,0,0-19.82,4.2-20.35-14.89-.53-19.09-6.36-54.62-41.36-66.81-35-12.2-57.27,2.12-57.27,2.12,0,0,29.7,36.06,29.17,66.28-.53,30.23-25.45,72.65-19.62,111.36,5.83,38.71,17.5,54.62,32.88,83.25s13.26,39.24,11.13,49.85c0,0,15.91-2.92,19.09-51.17,3.18-48.25,80.6-104.99,139.99-94.39,0,0,3.46-37.55-38.18-44.81h-.01Z"/>
      <path d="M296.41,318.4s-7.08,4.08-11.77,10.81c-4.69,6.72-7.01,16.08-19.76,19.21-20.73,5.08-37.93,23.96-37.93,23.96,0,0-9.7-7.76,6.46-35.55,16.16-27.79,14.14-27.38,19.96-44.83,0,0,12.82,19.17,27.48,16.15,16.96-3.49,15.83-16.48,15.83-16.48,0,0-13.7,2.11-21.25-8.49-11.83-16.6-11.63-53.65-49.77-45.89,0,0,12.28,7.76,8.4,20.68-3.88,12.93-10.99,36.2-25.21,56.24-14.22,20.04-27.88,44.6-14.3,76.92,13.57,32.32,25.29,40.08,41.45,40.72,0,0-8.58-14.88-1.94-25.86,7.5-12.41,18.05-20.05,40.35-27.76,0,0,10.23,35.51-2.05,56.84s-44.91,50.27-51.79,85.56c0,0,4.62-38.3-20.77-58.41-22.71-17.99-31.67-28.44-39.43-48.48-7.76-20.04-24.56-23.92-33.61-20.04,0,0,18.75,3.23,18.1,29.09s17.45,40.72,34.9,63.99c17.45,23.27-2.75,80.55,24.4,106.41s44.12,20.28,44.12,20.28c0,0-15.51-21.98-10.99-46.54s15.7-57.27,38.14-83.38c30.4-35.39,39.59-63.35,29.25-103.42-10.34-40.08-8.27-61.74-8.27-61.74h0Z"/>
      <path d="M676.93,293.6c21.31-33.96,27.56-75.18-12.39-113.81,0,0,14.37,36.72-15.57,56.54-19.43,12.87-30.06,12.63-30.06,12.63,0,0,22.04-18.67,24.74-42.63,2.71-24.12-1.4-43.57-16.71-61.55-15.32-17.98-29.61-30.46-30.18-52.28,0,0-21.4,15.52,3.94,53.58,16.24,24.38,32.3,68.95-11.65,95.58,0,0-14.44-24.46-45.42-41.18-31.3-16.89-30.11-46.72-29.44-64.7,0,0-35.4,24.35-9.23,69.39,16.56,28.51,41.5,24.62,59.71,58.01,10.16,18.62,4.27,47.78-.8,74.22-9.32,48.61-32.75,76.06-42.74,79.39,0,0,28.18,8.59,50.07-30.28,18.32-32.51,25.84-55.06,29.17-107,0,0,26.82,2.21,65.83-23.26,0,0,1.85,21.73-29.35,36.02-20.66,9.46-31.58,35.29-35.58,63.26s-9.99,47.95-9.99,47.95c0,0,26.39-22.85,32.32-47.5,9.05-37.62,32.04-28.41,53.34-62.37h-.01Z"/>
      <path d="M794.99,186.68c-12.23,31.92-12.71,52.95-32.82,79.67-19.07,25.33-46.3,27.2-46.29,27.16,3.93-15.63,29.3-22.78,37.13-49.79,6.57-22.63-1.77-67.1,19.99-93.4,0,0-14.47-.04-28.97,18.09-14.51,18.14-6.3,53.5-26.25,77.08s-46.59,51-34.54,89.81c0,0,18.31-11.77,46.25-15.42,37.45-4.89,55.23-37.13,55.23-37.13,0,0,21.6,27.91.13,59.85-44.18,65.7-10.81,124.31-90.06,136.38,0,0,6.6-35.74-9.01-71.85-12.53-29,66.8-40.38,75.77-78.26,0,0-31.1,17.09-67.88,24.15-50.76,9.75-53.03,43.12-39.29,68.07,11.21,20.36,13.85,58.01,3.57,66.59-19.55,16.34-39.98,22.63-39.98,22.63,0,0,57.13,30.83,125.13-7.25,68.01-38.08,27.99-52.64,74.36-140.55,45.1-85.52-11.02-91.57-3.45-140.64,9.09-58.98,21.59-68.83,21.59-68.83,0,0-26.53-3.04-40.59,33.64h-.02Z"/>
      <path d="M457.06,373.76c29.13-34.05,36.99-69.96,3.89-107.01-33.1-37.06-78.43-17.63-91.74-3.96,0,0,33.76,6.23,40.6,44.37s-15.41,47.13-4.26,94.62,42.09,59.97,42.09,59.97c0,0-18.87-54.93,9.42-87.98h0ZM426.87,379.03c-6.86-20.21,3.25-33.77,6.94-57.14,5.67-35.93-13.92-49.79-13.92-49.79,20.06.11,57.53,39.77,25.31,77.25-17.27,20.09-18.33,29.68-18.33,29.68Z"/>
      <path d="M548.08,348.77c19.79-58.28,2.1-102.18-37.83-116.93s-66.56,6.84-66.56,6.84c0,0,18.08,3.4,37.42,38.14,18,32.34,5.05,81.08-17.99,116.93-21.14,32.89-10.79,72.67,14.75,81.31,0,0-14.31-17.04-4.68-37.42,14.97-31.65,55.1-30.58,74.89-88.86h0ZM528.91,324.48c-7.3,35.39-35.27,56.87-35.27,56.87,0,0,11.68-16.64,18.69-56.84,7.92-45.44-22.7-74.28-22.7-74.28,27.85,1.33,46.7,38.31,39.29,74.25h0Z"/>
      <path d="M329.16,57.23c4.1,27.7-18.46,57.44-12.31,95.91s31.29,59.49,41.03,74.37c9.74,14.87,10.77,18.46,5.13,26.16,0,0,20-3.59,17.95-26.67s-26.67-31.29-6.15-72.83,50.26-99.5,18.46-137.97c-31.8-38.47-81.55-18.46-96.42-.51,0,0,28.21,13.85,32.31,41.54h0ZM378.87,46.11c15.63,47.27-39.26,92.85-31.62,117.83,0,0-12.11-28.92-.14-59.05,16.91-42.56,12.34-70.7-6.52-83.96,0,0,26.74-9.75,38.28,25.17h0Z"/>
      <path d="M377.63,450.96c-17.05-11.52-22.27-18.72-23.54-31.31-2.04-20.22-7.93-28.82,14.54-46.69,25.8-20.52,47.06-36.44,25.48-81.77-15.9-33.39-54.93-12.16-70.31-14.36-15.38-2.2-25.82.55-31.86-9.89,0,0-4.39,13.73,14.83,23.07s0,29.66,2.75,62.07,12.29,85.9,24.93,104.02c12.63,18.13,27.61,11.79,38.24,19.98,15.7,12.09,13.18,27.05,13.18,27.05,0,0,22.42-31.47-8.24-52.18h0ZM340.94,363.92s-6.8-14.47-1.36-34.07,4.08-28.38,4.08-28.38c0,0,23.24-7.96,29.77,6.74,6.53,14.7,5.17,25.73-11.7,37.16-16.87,11.43-20.78,18.56-20.78,18.56h0Z"/>
    </g>
  </g>
  <g id="Layer_4">
    <g>
      <path class="st0" d="M968.87,183.36c-15.34-13.01-46.07,18.76-94.99,111.7,11.46-75.29,29.18-144.48,48.44-216.11l44.86-6.46-18.93-.91-1.83-1.4,19.2-1.7,24.25-2.05-15.98-3.91,18.55-2.93-61.5-7.72s9.9-26.9,14.56-40.23c1.03-2.96-2.14-5.86-5.26-5.63-15.76,1.2-31.29,7.54-43.21,15.06l-11.28,33.92-27.78,4.23c2.23-7.2,4.9-16.5,7.11-23.7.81-2.67-1.42-5.25-4.19-4.89-16.17,2.15-34.27,11.04-46.14,18.76l-8.11,24.78c-34.69,13.68-66.19,30.53-94.53,54.54-11.92,10.09-18.53,29.67-6.69,41.83,8.47,8.71,25.7,6.65,36.56,5.84,10.29-.77,14.03-7.97,12.73-17.38-.98-7.16,2.39-10.74,7.71-14.1,9.38-5.92,18.22-11.57,27.84-15.23-18.19,69.47-32.74,134.4-40.37,202.99-1.93,17.32-3.43,34.59.35,51.01,3.94,17.05,17.14,28.66,33.57,29.67,4.48.27,8.28-3.13,8.39-7.61.17-6.41-.95-12.24-1.75-19-2.37-20.19.32-40.53,3.16-61.43,10.27-75.93,27.01-148.82,47.62-222.7l32.6-10.37c-22.71,83.78-45.48,178.64-52.6,263.03-3.42,40.6,23.77,59.47,34.51,60.41,5.72.5,10.81-3.69,11.67-9.37,8.85-58.38,39.06-102.44,69.63-150.16-9.12,21.32-12.4,44.03-13.93,73.64-3.1,59.82,2.14,93.28,29.6,76.41,27.38-16.82,9.4-15.73,15.38-91.46,3.02-38.15,11.81-60.83,22-97.54h0c3.83-13.79-9.9-24.22-21.22-33.83h0Z"/>
      <path class="st0" d="M245.58,152.8h0c6.88-13.3,12.42-30.57,5.79-44.44-4.7-9.83-16.92-13.68-27.42-13.96-3.62-.1-7.16,1.13-10.02,3.36C108.2,180.6,35.38,331.67,9.48,460.24c-7.29,36.17,6,63.41,42.44,69.23,12.19,1.95,1.21-10.25,18.75-91.12,8.39-38.74,38.29-77.82,63.6-81.4,1.69-.24,3.13,1.23,2.96,2.93-4.31,46.25-1.13,111.81,23.12,125.42,2.39,1.34,7.76.99,10.48-.18,11.6-5,10.5-11.18,7.85-18.43-8.89-24.21-32.49-121.88,66.9-313.89h0ZM139.9,338.4c-.2,1.68-1.86,2.79-3.45,2.26h0c-9.95-3.25-23.27-2.89-31.8-.63-2.22.59-4.12-1.65-3.14-3.73l19.39-41.42s.04-.08.07-.13l13.35-24.89s.06-.11.1-.15l36.74-58.66c.13-.2.27-.36.43-.52,2.11-2,5.44.31,4.33,2.97-17.42,41.55-30.66,78.71-36,124.89h-.01Z"/>
      <path class="st0" d="M396.4,436.77c17.16,7.62,37.32-5.74,36.05-14.84-9.03-64.94-3.52-103.25,16.04-160.1,10.62-30.88.74-36.06-7.58-33.56-24.63,7.39-37.34,12.8-51.21,34.26-22.34,34.58-44.07,75.97-60.88,113.08,2.01-32.32,6.39-60.76,14.88-90.65,4.16-14.64,12.24-35.86,11.81-44.25-.71-13.72-39.63-2.14-57.42,22.32-20.8,28.61-41.02,60.77-60.37,95.2,6.3-32.26,26.66-89.15,37.99-114.32,5.72-12.72-35.91-10.62-44.27,6-17.45,34.71-29.23,70.18-35.88,108.67-9.42,54.56-10.68,86.69,5.95,89.36,11.27,1.8,31.19-3.38,34.68-10.96,22.92-49.66,37.19-80.47,58.02-114.78-8.28,45.44-8.77,103.32,2.28,115.62,4.34,4.84,25.56,4.06,31.73,1.02,10.22-5.05,11.07-11.64,26.54-46.6,15.44-34.87,41.1-78.72,41.1-78.72-12.01,39.87-14.37,116.61.56,123.24h-.02Z"/>
      <path class="st0" d="M467.37,406.75h.01c22.36,23.65,66.21,21.33,94.26-11.66,18.9-22.23,30.24-61.01,28.28-84.8-.89-10.83-7.19-18.25-19.22-20.59,10.25-8.19,12.61-20.16,13.79-32.85,1.49-15.89-6.17-29.25-22.09-34.3-39.97-9.94-72.64,19.32-92.89,57.49-16.6,31.27-34.8,92.18-2.15,126.71h0ZM495.03,325.87h0c12.76-44.8,36.86-70.67,48.22-69.63,13.25,1.2-17.93,38,5.81,49.94l11.31-8.39s-12.62,84.94-51.51,78.28c-13.85-2.37-22.73-18.96-13.82-50.19h0Z"/>
      <path class="st0" d="M643.87,416.77h0c8.15.27,10.95-3.31,7.06-16.46-2.9-9.84-4.45-17.55.81-61.36,9.35-77.79,20.16-164.69,71.84-298.98,3.25-8.46-50.73,4.76-57.15,19.21-46.6,104.65-64.02,272.91-67.05,306.77-2.93,32.78,14.04,49.76,44.49,50.82h0Z"/>
      <path class="st0" d="M429.43,464.44v.03c-11.68,4.8-23.41,10.46-30.78,20.63-5.84,8.06-2.89,24.07,4.52,29.93,12.16,9.62,27.98,12.41,42.9,9.14,2.57-5.56,3.99-11.91,5.3-19.99,62.99-25.2,129.4-36.59,196.7-30.18,13.18,1.26,23.23,2.99,37.78-1.76,2.9-.11,3.57-.78-1.31-3.29l15.82.54c-85.37-40.02-183.51-40.99-270.93-5.05h0Z"/>
      <path class="st0" d="M744.04,201.64c-6.41-4.33-42.37,3.25-45.27,12.69-16.85,54.73-21.88,95.43-24.57,147.3-1.4,26.94,16.85,48.93,41.55,49.25,3.52.04,8.39-3.07,8.03-6.58-2.18-21.53-9.55-53.55,11.73-152.29h.01c8.21-38.08,15.44-45.71,8.53-50.37h-.01Z"/>
    </g>
  </g>
  <g id="Layer_3" class="st1">
    <g>
      <path d="M539.71,219.64l-1-69c-3.76-4.32-12.6-6.26-19.01-7.64l-19.79-4.27-3.39,14.5c-.24,32.63,1.45,62.98,4.05,95.58-4.74,2.7-13.55,3.35-16.35.75l-4.66-30.54-5.46-54.8c-1.33-13.42-19.62-18.32-30.27-18.46l-9.55-.12c-2.1-.02-2.47,7.54-2.76,9.67,6.13,47.81,13.43,93.59,22.15,140.94l6.18,37.76c.32,1.94,3.93,6.77,5.65,6.38,8.79-2.01,6.68-11.15,16.09-16.22l4.85-33.59h.01v-.03l-1.52-21.87,18.02-2.06,7.43,75.74c2.09,21.22,10.93,38.66,14.54,34.6l5.38-6.07c6.25-7.05,6.89-14.04,6.98-23.62l.17-18.48c3.57-23.24,3.13-43.92,2.81-67.2l-.56-41.93v-.02Z"/>
      <path d="M445.72,348.78l-2.52-14.26-10.05-54.48-7.54-41.13c-4.98-27.18-10.54-53.22-21.8-78.29-12.81-3.22-25.83-4.5-36.41-.89,4.49,15.39,13.52,25.33,6.77,41l-5.08-19.42-8.08.69c-5.27,57.92-11.66,114.22-20.1,171.88-.38,2.67.35,8.28,2.42,8.96,2.06.68,6.99,1.48,9.52,1.62,14.77.83,26.26-7.52,27.1-22.14l1.46-25.44,28.11-1.33,11.28,31.46h0l20.47,53.89,2.45,6.41c.54,1.43,6.13-2.85,6.63-4.45,2.99-9.75-.22-25.48-1.87-36.11l-2.78-17.95.02-.02ZM383.37,300.52l.22-82.56c4.79,11.04,8.05,21.27,10.68,32.58l11.64,50.01h.01c-6.72,2.52-15.18,2.55-22.56-.02h0Z"/>
      <path d="M325.26,230.02l-4.8-51.33,75.03-43.01,4.35-3.49c1.01-.81.13-4.83-1.17-4.88l-7.25-.3c-31.41,9.28-60.33,23.28-88.65,39.87-7.19,3.9-13.07,5.35-22.48,6.51l-2.77,8.83-75.55,56.9-28.94,27.2c-1.18,1.11-2.63,6.62-1.55,7.35l3.81,2.55,15.3.15,91.51-70.57,24.99,153.2c3.39,1.82,7.46,2.98,9.75,2.28s4.64-7.06,4.15-9.77h0v-.02l-3.05-16.86,8.15,1.44c-4.8-16.16,4.17-27.54,5.69-41.76,1.3-12.04-1.63-27.43-3.32-40.14l-3.21-24.13v-.02Z"/>
      <path d="M632.21,122.21l-6.16,83.81-3.79,80.36-.49,38.57-1.45,72.75c12.03-8.11,21.52-19.26,20.55-31.06l3.34-33.66h0l.02.02c-1.28-15.34,1.21-31.74,4.1-45.14,4.06-.8,3.03-4.61,2.95-6.63l-.32-9.12c-.22-6.4-.69-9.4-5.15-15.79l3.06-19.44,2.67,5.08c.41.78,4.03-.55,4.15-1.43l5.18-39.84,8.38-47.95.8-19.21c-7.25-5.72-17.25-7.26-25.88-8.96l-11.98-2.35h.02Z"/>
      <path d="M673.53,233.71l-3.41,24.55,1.69,123c-.14,1.81,4.85,8.35,6.5,7.1,11.05-8.39,4.75-27.96,15.1-24.57l4-21.08h0v.05l2.7-24.59,3.64-26.22,6.22-27.84c.79-3.5,3.38-8.23,3.36-10.93-.05-10.19-22.17-16.81-39.8-19.47h0Z"/>
      <path d="M593.11,210.09l-30.25-5.77c-.86,20.83-.32,38.16,1.99,57.78l10.07,85.61c.59,4.93,4.06,11.17,9.27,11.09,3.85-7.32,5.18-15.72,6.23-25.1l5.18-.39,1.89-21.64h0v-.02l-.02.02.27-23.89.8-26,3.61-30.88c.51-4.27,2.43-9.65,1.07-12.4s-6.96-7.82-10.12-8.41h.01Z"/>
      <path d="M690.2,222.71l7.32,3.04h.02l8.66,4.61c1.45.77,5.87-3.16,6.36-4.73l12.87-42.47c-3.65-5.36-13.51-12.51-18.73-11.25l-15.96,3.83c-7.19,1.72-14.27,23.01-5.33,40.19,1.63,3.11,2.91,6.03,4.77,6.79h.02Z"/>
      <path d="M587.96,176.57l8.33,1.23c1.55.22,5.21-4.78,5.26-6.35h0l.98-29.93c-13.98-5.85-27.13-4.35-38.72,4.95-2.7,5.35-.44,17.21,4.69,21.95,5.6,5.16,11.15,6.92,19.47,8.15h-.01Z"/>
    </g>
  </g>
</svg>