<?xml version="1.0" encoding="UTF-8"?>
<svg id="Layer_1" xmlns="http://www.w3.org/2000/svg" version="1.1" viewBox="0 0 163.89 303.38">
  <!-- Generator: Adobe Illustrator 30.4.0, SVG Export Plug-In . SVG Version: 2.1.4 Build 226)  -->
  <path d="M127.85,238.52c-38.91-44.73-44.02-72.43-44.59-81.22-.11-1.65.7-3.21,2.07-4.14,7.05-4.73,30.02-23.82,45.28-42.24,29.66-35.78,40.73-64.97,22.43-94.29-22.51-36.07-18.76-2.54-66.88,46.62C50.16,100.05,15.89,113.9,4.65,117.71c-2.2.75-3.51,3.01-3.05,5.29,22.99,115.26,75.73,177.02,106.93,178.07,25.25.85,50.96-7.02,53.85-22.03,2.89-15-5.75-7.44-34.53-40.53Z"/>
</svg>