<?xml version="1.0" encoding="UTF-8"?>
<svg id="Layer_1" xmlns="http://www.w3.org/2000/svg" version="1.1" viewBox="0 0 1000 1000">
  <!-- Generator: Adobe Illustrator 30.4.0, SVG Export Plug-In . SVG Version: 2.1.4 Build 226)  -->
  <defs>
    <style>
      .st0 {
        fill: #fff;
      }
    </style>
  </defs>
  <g>
    <rect x="155.7" y="346.11" width="720.54" height="197.46" rx="20.59" ry="20.59"/>
    <path class="st0" d="M855.64,346.61c11.08,0,20.09,9.01,20.09,20.09v156.28c0,11.08-9.01,20.09-20.09,20.09H176.29c-11.08,0-20.09-9.01-20.09-20.09v-156.28c0-11.08,9.01-20.09,20.09-20.09h679.36M855.64,345.61H176.29c-11.65,0-21.09,9.44-21.09,21.09v156.28c0,11.65,9.44,21.09,21.09,21.09h679.36c11.65,0,21.09-9.44,21.09-21.09v-156.28c0-11.65-9.44-21.09-21.09-21.09h0Z"/>
  </g>
  <path d="M844.43,368.69s21.39-101.69-53.9-147.17c-4.48-2.71-10.11.99-9.32,6.17,5.04,32.97,7.93,120.12-102.51,120.12"/>
</svg>