<?xml version="1.0" encoding="UTF-8"?>
<svg id="Layer_1" xmlns="http://www.w3.org/2000/svg" version="1.1" viewBox="0 0 590.41 690.91">
  <!-- Generator: Adobe Illustrator 30.4.0, SVG Export Plug-In . SVG Version: 2.1.4 Build 226)  -->
  <defs>
    <style>
      .st0 {
        fill: #fff;
      }
    </style>
  </defs>
  <path class="st0" d="M288.18,219.75c-8.67,12.3-2.63,26.86,2.28,39.31,6.59,28.3-32.72,28.82-50.01,38.43-15.69,6.97-34.12,18.6-47.53,29.43-14.93,12.92-36.02,30.07-47.93,45.79-8.9,13.52-74.2,87.22-67.35,35.55-.3-26.9,58.45-61.37,39.58-81.62-24.96-10.48-21.25-12.12-18.62-37.54-19.77-13.99-47.79,13.79-64.4,25.17-67.84,56.2-5.33-39.24,19.76-52.23,45.55-34.03,22.9-27.65,10.99-65.32,18.76-44.83-38.46-1.73-20.5-46.43-8.28-2.72-15.72,12.4-23.37,15.24-22.14,11.16-10.59-24.82-6.21-33.95,5.4-6.49,14.54-18.83,21.24-24.06C92.24,59.34,168.02,51.11,236.06,29.29c14.18-6.79,47.01-4.99,29.74,16.97-8.79,5.79-25.2,8.57-28.11,20.23.31,5.59,4.78,12.81,5.46,18.65,2.78,7.99-4.31,13.3,4.1,15.23,11.02-5.87,25.5-13.01,33.48-23.14,44.24-28.06-9.18,48.6-46.72,47.42-4.74.46-16.13,4.54-20.72,6.16-57.46,31.72-24.73-19.42-43.01-46.17-15.07-14.51-22.49,45.27-13.36,51.47,9.41,15.68,29.46,21.51,23.14,42.69,12.99,6.68,30.68-6.82,42.91-11.8,15.63-2.14,34.98-9.93,50.09-14.13,32.83.44-2.47,19.37-14.47,22.18-17.33,14.54-40.82,25.28-62.04,33.71-55.36,22.99-13.81,15.86-16.1,43.48-19.74,48.27,20.69,22.97,39.02,4.17-47.83-18.43-15.83-33.41,13.95-46.84,20.13-8.6,102.47-33.05,54.78,10.18Z"/>
  <path class="st0" d="M471.66,538.51c-33.56,14.21-71.74,23.25-107.51,29.42-16.44,7.16-93.8-5.28-50.2-26.41,22.48-4.61,68.84,6.12,62.45-32.84-20.11-26.27,43.13-35.65,14.02-45.06,0,0-20.22.45-20.22.45-41.32,3.86,4.67-32.96-32-35.14-5.66-.3-15.55,1.87-17.79-5.5-3.06-10.87,9.5-18.84,16.17-25.11,55.77-43.29-26.36-16.05,22.22-69.51-17.25-18.32-37.84,8.17-51.97,17.73-21.94,14.45-11.68-9.92-3.78-19.42,20.96-55.52,96.17-35.99,139.59-44.3,22.12-.48,34.28-20.48,51.56-31.17,7.45-8.6,19.5,1.67,11.4,9.93-13.32,14.87-28.62,32.99-45.65,43.5-8.55,6.44-40.17,7.86-40.97,19.07,65.84,36.77-7.43,32.53,1.98,55.21,7.11,7.25,30.48,8.25,26.52,21.72-14.61,25.26-.26,28.38,16.52,43.95,4.15,24.64-3.42,48.59,32.13,25.51,4.51-13.29-18.34-30.45,2.37-52.13-.28-7.28-7.4-11.3-12.51-15.18-6.08-3.64-4.31-15.17-12.87-15.33-8.53,4.54-16.08,2.06-16.8-8.22,0,0,10.29-3.92,10.29-3.92,18.9-1.62,125.39-54.98,119.86-19.15-10.79,9.17-29.28,9.18-35.68,24.02,24.84,22.81-5.67,35.8,10.26,51.67,34.38,25.76-11.99,49.2-32.2,63.92-17.19,12.11-37.59,33.75-57.19,42.29Z"/>
  <path class="st0" d="M217.98,624.12c-27.99-2.7-82.91,72-99.16,59.43-33.59,1.43,61.99-81.59,65.31-97.11-9.09-52.62,8.68-31.76,8.72-64.64-11.46-9.81-24.57,4.21-36.63-2.08-13.98-21.05,22.45-39.05,28.93-58.94-8.13-9.03-34.93,1.95-25.52-18.38,23.74-44.23-48.83,28.4-58.02,1,1-14.52,25.61-19.83,33.16-32.52,15.15-12.04,33.1-28.41,47.51-41.4,28.49-25.3,64.6-75.68,107.58-55.4,10.04,24.56-40.49,20.5-16.7,43.2,3.12,5.47,10.05,16.67,11.47,22.74,1.27,4.22-.88,10.71-1.73,14.87-10.49,21.62,21.5,39.41,2.74,60.59-31.5,50.27,63.64-14.27,36.99,36.9-9.61,10.9-23.63,20.16-29.4,34.14,7.16,30.92-29.15,56.5-5.78,59.02,13.86,2.61,29.86,7.31,43.96,4.37,12.49.38,30.25-12.44,41.29-4.09,2.31,18.96-25.79,32.76-40.77,40.49-37.63,7.41-76-8.33-113.95-2.18Z"/>
  <path class="st0" d="M306.25,129.02c20.08-32.98-19.62-19.09,18.48-64.94-5.11-6.74-22.37-5.77-30.11-9.53-6.16,1.93-23.43,11.88-28.78,13.47-3.48,3.87-10.65,2.02-6.17-3.69,25.6-38.31,64.85-37.51,107.36-32.53,11.04,1.5,46.99,7.32,27.86,22.65-23.48,2.37-15.42,24.7-8.62,39.19,9.31,14.28-20.51,32.29-7.74,48.74,17.78,13.11-12.95,98.22,17.6,48.73,23.93-12.66,8.81-34.05,16.74-53.77,59.08-34.78,2.33-54.82,49.77-92.52,6.35-7.88-12.9-3.09-18.3-6.44-79.69-6.39,42.62-28.7,61.09-30.64,13.58-2.52,40.93-14.17,47.12,5.16-.07,16.39-26.6,20.86-32.75,36.61-6.7,18.49,5.1,40.23-14.11,53.99-25.77,25.48,33.86,43.96-24.38,58.37-37.37,17.06,41.55,22.01-36.34,72.74,23.87,8.15,48.45-33.18,67.98-19.21-2.67,3.77-10.79,10.86-14.17,14.07-12.84,10.92-25.73,22.01-42.64,25.75-16.72.43-37.16,5.65-53.85,1.81-24.17-1.7-51.92,3.64-70.79,19.62-7.85,3.14-16.53,20.33-25.36,13.69-11.26-14.8,1.41-28.62,5.54-43.22,5.96-11.05,2.06-22.92.63-34.65-3.35-13.02,14.65-22.08,6.78-33.69-13.21-15.35-32.47-30.99-12.83-49.77Z"/>
</svg>