<?xml version="1.0" encoding="UTF-8"?>
<svg xmlns="http://www.w3.org/2000/svg" version="1.1" viewBox="0 0 566.59 541.5">
  <!-- Generator: Adobe Illustrator 30.4.0, SVG Export Plug-In . SVG Version: 2.1.4 Build 226)  -->
  <defs>
    <style>
      .st0 {
        fill: #d27892;
      }

      .st1 {
        fill: #d2dade;
      }

      .st2 {
        fill: #010101;
      }

      .st3 {
        fill: #010000;
      }

      .st4 {
        fill: #ce7b94;
      }

      .st5 {
        fill: #bf7984;
      }

      .st6 {
        fill: #78d47b;
      }

      .st7 {
        fill: #ce7990;
      }

      .st8 {
        fill: #b08b8e;
      }

      .st9 {
        fill: #d0d9db;
      }

      .st10 {
        fill: #cf7e96;
      }

      .st11 {
        fill: #ccd5d6;
      }

      .st12 {
        fill: #c4cfc3;
      }

      .st13 {
        fill: #fff;
      }

      .st14 {
        fill: #75d77a;
      }

      .st15 {
        fill: #ca7b92;
      }

      .st16 {
        fill: #d1d8da;
      }

      .st17 {
        fill: #76d57c;
      }

      .st18 {
        fill: #c87a91;
      }

      .st19 {
        fill: #79c67b;
      }

      .st20 {
        fill: #76d77a;
      }

      .st21 {
        opacity: .5;
      }

      .st22 {
        fill: #b07771;
      }

      .st23 {
        fill: #cf7a93;
      }

      .st24 {
        fill: #c5d1c0;
      }

      .st25 {
        fill: #cf7993;
      }

      .st26 {
        fill: #fefefe;
      }

      .st27 {
        fill: #ccd2d8;
      }

      .st28 {
        fill: #010100;
      }

      .st29 {
        fill: #cdd9d9;
      }

      .st30 {
        display: none;
      }

      .st31 {
        fill: #78cc7c;
      }
    </style>
  </defs>
  <g id="Layer_1" class="st30">
    <polygon class="st26" points="790.35 -227.32 791.34 -227.32 791.34 772.68 -208.66 772.68 -208.66 771.68 790.35 771.69 790.35 -227.32"/>
    <g class="st21">
      <path d="M428.65,223.34c.67,1.44.16,3.05-1.55,4.83-1.21,10.35-2.22,20.83-3.04,31.44-3.39,8.81-8.98,16.61-16.79,23.41-3.72,4.1-3.46,5.1.79,3,2.79-2.09,5.1-2.6,6.91-1.53,6.12-4.77,11.19-10.36,15.97-16.43,1.37-2.95,2.82-5.59,3.39-9.27l2.41-15.36c2.43-10.53,6.18-20.53,14.53-27.71,2.61-2.25,9.38-6.63,12.31-4.52,1.31.11,2.44-.35,4.39.42-3.71,2.78-5.86,6.07-7.75,9.84l.7,3.09c-6.65,11.95-9.31,24.4-4.68,37.58l9.35,29.24c1.76,9.38-.75,18.97-4.27,27.75-10.1,18.61-18.38,37.83-24.84,57.66-14.73,28.44-44.13,33.09-73.55,30.25l-2.17-2.3c-2.82-.4-5.83-.46-9.37-2.26,16.07-4.07,26.42-14.9,22.25-32.24l-5.62-23.37c-.92-3.84-1.78-9.33.71-12.76,5.91-8.16,13.87-14.08,22.09-18.9-.79-2.81,2.76-5.03,4.89-2.86,7.37-5.22,25.84-11.14,34.54-8.12.28.1.42.6.53,1.22l-.17,2.17c-4.59,1.24-9.23,2.12-13.92,2.63l-1.36,2.9c-8.99,4.59-17.64,10.24-24.17,18.04-5.55,6.62-4.94,9.94-3.39,18.23,2.68,10.63,5.08,21.27,7.22,31.92,1.4.63,2.73.97,4,1.01l1.45-2.39c9.35-2.58,16.25-9.93,20.43-18.44,6.59-20.39,14.67-40.24,24.23-59.56l1.32-6.79c-.77-3.6-.59-6.62.54-9.05l-2.34-.65-2.53-6.62c-12.29,14.46-28.11,24.31-47.04,26.3-2.26,1.68-4.35,2.72-6.29,3.12l-2.52,6.1c-2.31-5.33-3.68-11.26-3-16.98-1.75-2.91-1.55-6.41.58-10.51l4.22-9.43,2.74-1.17c4.59-6.79,9.62-13.32,15.1-19.58,1.95-3.2,3.23-6.68,3.83-10.44.47-4.42.83-8.92,1.06-13.51-.1-7.17,15.68-23.03,21.22-24.52.88-.24,1.69,0,2.42.5.64-.77,1.59-1.4,2.43-.88l-8.2,15.53Z"/>
      <path d="M173.93,103.2c-2.76,3.51-4.81,7.3-6.14,11.38.16,5.87,1.11,11.67,2.85,17.41-.7,2.33.05,4.5,2.24,6.51,5.88,8.39,9.85,17.18,11.93,26.39-1.55,14.89-3.46,29.73-5.74,44.53-1.82,20.15,5.82,39.81,21.06,53.18l.99,3.28c1.34,2.46.14,3.18-2.01,1.46-4.44,1.71-9.31.72-13.35-1.55-32.44-18.29-25.74-56.47-19.5-86.75,1.48-10.41-1.77-19.49-7.76-28-3.55-9.4-5.32-14.11-5.32-14.11-.81,3.69-2.28,5.45-4.44,5.28.25,3.45-.33,6.89-1.73,10.34-1.91,17.13.78,34.03,8.08,50.7,1.71,6.97.46,17.89-3.21,24.04l.89,2.45c-2.19,4.67-11.93,21.3-17.25,20.13-2.4-.52-1.4-3.17.69-4.22l-1.08-2.14c1.95-4.04,1.68-8.62-.02-12.71-1.43-3.45-22.67-29.22-24.61-29.52.96,3.35.73,5.71-.69,7.09,5.65,10.52,11.72,22.22,16.12,33.34,4.18,10.54,6.89,21.49,3.97,32.54l1.94,1.24c-4.74,13.22-9.76,26.39-15.08,39.53-.39,1.9.09,3.17,1.46,3.79-.79,3.78-.94,7.54-.44,11.31l-1.61,1.66-.52,9.47-4.66-15.11c-2.58-1.22-3.75-3.81-3.53-7.76.09-12.51,2.53-24.87,7.3-37.09,1.3-7.15.52-14.52-2.01-21.33l-20.54-52.44c-2.21-6.63-2.97-13.66-2.2-20.61.69-6.25,2.85-17.31,8.86-19.55l3.8-6.13c3.46-3.89,5.76-4.74,6.92-2.56-2.19,12.19,5.25,21.39,13.51,29.43l2.66,5.46,2.73-.05,5.94,6.7-2.47-9.75c1.4-.39,1.55-1.25,1.43-2.47l-2.69-2.63c-5.62-23.43-3.63-46.04,12.09-64.92,3.87-4.65,10.31-12.32,16.29-11.95,1.94-2.29,12.92-8.85,14.94-7.78.86.46.65,1.57-.07,2.48Z"/>
      <path d="M145.97,254.39c3.07-3.89,9.52,1.16,12.57,3.86,4.2,6.72,7.56,14.05,10.08,21.98l2.47,1.98c5-.07,6.69.85,5.07,2.76,3.59,3.25-6.21,10.4-8.19,6.07-4.53,3.04-9.07-.48-12.04-4.09-.24,2.2-1.28,3.24-3.11,3.14l1.3,1.75-11.45,20.22c-2.47,1.41-3.48,15.86-1.94,15.61.76-.12,11.74-6.9,13.16-8.03,5.47-6.09,11.15-11.98,17.03-17.67,3.47-3.03,6.43-3.7,8.89-2.03,2.42-1.71,3.74-1.45,3.96.8-1.71,4.06-2.58,8.18-2.62,12.35,1.51,11.01,3.45,21.93,5.83,32.77l-1.68,1.81c-.25,14.26-5.57,26.83-16.13,36.64l-8.52,10.34c-9.21,11.18-14.07,23.9-16.17,38.07-1.4,9.42-.23,17.65,7.18,25.6-2.05.97-3.91.53-5.35-.43l-2.83.51c-11.83-6.8-20.4-17.58-22.4-31.19.18-10.56-.3-21.02-1.44-31.39-4.19-7.82-9.61-15.03-16.26-21.63-4.05-6.27-6.28-13.32-6.69-21.15l1.72-1.89c-.7-4.16-2.95-7.6-6.41-9.99-1.57-.6.73-2.87,1.7-3.32,1.55-.72,9.69,7.14,10.49,8.91,3.84,10.74,10.23,19.59,19.43,26.64,9.69,7.43,12.99,17.91,14.26,30.95,3.41-8.24,7.48-15.47,13.55-21.87,4.99-5.26,8.78-10.54,12.66-16.16,6.73-11.61,6.03-23.68,2.34-36.12-1.21,1.67-2.67,2.23-4.37,1.67l-13.13,7.91c-6.05,5.25-7.99,12.82-2.1,19.68-3.2.65-5.37-.81-7.89-1.49-3.15,2.29-7.49-2.4-9.68-5-8.28-9.83-11.72-31.04-6.95-43.16,8.68-14.09,16.36-26.97,21.8-42.87.32-.94.55-1.84.78-2.78.28-1.14-.12-2.34-.85-3.2-2.78-1.85-3.74-3.74-2.9-5.68-.07-3.59,2.78-2.57,4.85-.88Z"/>
      <path d="M406.84,91.35l2.91.38c5.89,9.65,9.43,20.35,10.64,32.1l-1.71,1.69c2.62,1.83,4.23,3.84,4.83,6.03,5.57-2.53,12.61,5.4,3.99,4.55-7.99,2.17-14.97-1.87-19-8.95l-2.37-.19c-2.31-9.07-5.96-16.98-10.98-23.73,3.67,11.4,3.15,23.38,1.05,35.02l-6.35,37.23c-.78,10.21.02,20.9,5.15,29.96l-.55,2.88,2.31.13c10.58-19.35,29.11-32.73,48.35-42.91-1.4.14-1.94-.69-2.31-2.14-8.04,2.36-17.03,4.6-25.29,2.9-.39,3.57-8.1,2.25-10.78,1.3-3.42-1.2-5.85-2.18-5.15-6.31-2.68,1.25-4.21-2.07-2.08-3.93-1.96-4-2.02-12.79,3.19-13.14.88-1.56,1.82-2.21,2.82-1.96,1.73.73.59,2.43,1.08,7.09,3.34,3.74,7.55,4.07,12.24,3.31,20.78-4.79,51.11-8.31,61.95,14.88,3.17-.08,4.7,8.33,1.93,9.7h-1.01c-13.13-5.09-23.47.12-35.28,7.2-20.58,12.35-40.67,31.47-40.14,56.6l-1.84,1.55c.28,4.86-3.79,12.61-8.89,10.57.1,1.59-.44,2.74-2.01,2.66-5.67-.31-2.98-6.98,1.14-6.34l.23-6.36c-2.54-7.89-6.77-15.08-12.69-21.57-2.28-2.59-2.74-4.82-1.38-6.67-2.65-2.5-7.01-7.07-5.07-10.53-8.75-18.84-6.49-39.54.55-58.93,5.15-18.92,2.7-38.55-7.45-55.16l-2.09-2.81c.78-1.67,2.41-2.4,4.89-2.2,13.02-3.1,24.98-4.48,35.2,6.1Z"/>
      <path class="st2" d="M341.57,183.39c1.75-.5,3.36,4.22,2.44,6.08.55-.36,1.03-.61,1.24-.47,5.21,3.49,17.2,25.49,18.61,31.01,3.39,13.31-1.07,25.95-8.12,37.25,2.58-1.06,4.33-.7,5.25,1.07l10.32-6.5c7.17-6.47,5.19-14.18,1.29-22.04-.65-1.89-.9-3.68-.74-5.38-4.41,1.36-5.16-7.83-.7-4.39,1.5-1.97,5.17,1.5,6.06,2.96,2.81,4.56,6.09,11.15,6.62,16.23l2.59,1.35c10.26,24,4.04,42.16-15.99,57.9-10.17,5.49-18.24,12.65-24.23,21.49l-1.75,4.11c-.14,2.52-1.09,4.07-2.85,4.65-2.21,4.68-3.29,9.41-6.83,13.54l5.2-29.88c.26-1.34.05-2.26-1.49-2.72-.52-.98,4.84-15.46,8.76-12.38-.82-1.06-.03-2.32.79-3.31l21.71-18.78c.96-.71,1.98-1.01,3.06-.88-1.22-1.55-.79-2.78-.04-4.34-5.61,2.3-11.48,3.74-17.61,4.31-5.31.54-9.37,2.61-12.19,6.2.73,8.04-.34,15.59-3.18,22.66-4.56,5.39-7.86,11.35-9.91,17.9-.38,13.72-12.87,32.82-27.73,32.6-1.35-.02-4.7-1.3-3.17-2.49,7.44-6.23,11.91-15.34,16-23.94l2.58-15.17c-2.35-2.29-.26-8.92,3.19-6.94,5.09-7.36,4.45-17.71,2.93-26.21-.76-4.25-1.21-6.48-3.25-10.4-7.27-10.18-14.75-20.23-22.44-30.14-4.12-6.06-8.19-12.75-9.79-19.98-.99-4.45-2.17-13.37,2.75-14.97,1.34-12.41,7.93-1.53,4.93,6.04l1.25-.46c5.85,10.61,13.1,22.19,22.04,31.39.81,2.14,2.21,3.68,4.19,4.64l10.54,11.68-.51,2.42c4.59-2.61,8.25-9.63,10.6-14.66,7.05-15.09,5.89-22.82-.45-37.16-6.61-9.06-9.28-18.33-8-27.79l2.47-.95c.05-2.96.8-4.08,2.26-3.37l1.33-.14c.8,2.53.8,5.32,0,8.4Z"/>
      <path d="M222.99,111.36c3.88-3.34,12.02.56,16.41,2.81,15.24,7.8,25.75,24.71,25.52,41.92-.21,15.89-3.64,35.86-14.14,48.05l1.59,1.47c30.39-18.37,41.54-60.96,21.68-91.02l-.18-3.43c7.99,2.79,14.21,8.85,18.21,16.27,5.78,2.39,7.37,12.99,7.51,19.07.06,2.61.09,5.4-.91,7.82.95.84,1.73,1.85,2.02,3.11.66,2.89-2.51,20.05-4.35,21.51-.53.42-1.15.74-1.79,1.03l-.68,6.2c-8.65,15.06-20.56,27.69-35.72,37.91-6.97,6.44-13.02,15.35-13.56,24.98-1.78.08-2.06.87-1.85,2.36,1.76-.05,2.84,1.67,1.74,3.02-3.08,3.77-5.77-1.31-6.33-4.34l-3.11-.88c-15.01-21.03-4.6-44.33,4.8-65.35,6.19-14.7,7.76-29.15,4.71-43.36-1.53-2.81-2.73-5.58-3.6-8.3l-2.74-.26c-4.89-6.37-11.74-10.89-19.2-13.75.34,2.79-1.18,2.71-2.1.18-2.92-2.74-7.31-2.39-10.98-3.4-.08-4.37,7.66-4.49,11.37-4.43,1.93.03,3.84.27,5.69.83Z"/>
      <path class="st3" d="M366.84,111.31c2.79-.58,6.84,6.22,7.9,8.78,2.37,5.75,1.7,12.4.17,18.29l-9.18,27.42c-4.24,13.34-2.51,27.53,5.14,39.26l-.41,2.93c2.43,1.63,8.94,7.7,4.55,8.89-3.34.91-8.01-5.04-9.24-7.89-6.85-2.01-14.3-10.74-15.97-17.7-5.57-7.58-8.99-16.3-10.26-26.15l-2-.06.13,4.09c-7.5,9.08-6.85,14.82-3.62,25.7.27.91-.02,1.71-.7,2.43,2.5,1.95,4.29,7.34,4.12,10.77s-.81,8.75-4.9,7.31c-2.22.04-2.22-1.04.03-3.23l-1.73-1c-1.8-7.69-5.32-14.97-10.56-21.84-3.82-11.62-1.48-23.4,7.02-35.34,3.94-9.71,2.95-21.64-3.42-30.01-2.07,2.4-4.86.54-4.03-2.6,1.03-5.77,11.25-2.31,14.93.12,1.48-2.14,5.67,1.35,6.94,2.84,5.54,6.48,10.9,15.39,8.73,24.05,1.68-.6,2.53.36,2.54,2.89l4.39-11.15,2.38-.59-.72-3.11c2.77-8.96,1.24-18.01-4.6-27.13-1.66-5.06-3.88-14.22,1.89-16.56.63-1.58,1.86-2.93,3.28-4.38-.9,4.81-.24,9.06,1.98,13.21l5.22,9.77Z"/>
      <path class="st2" d="M294.81,110.37c3.34.68,6.35,2.62,9.32,4.21,3.51-2.15,8.6,3.52,11.05,6.36,8.69,10.07,9.65,20.16,6.75,32.61-6.54,13.33-8.4,26.68-5.57,40.04,6.16,11.43,11.35,23.23,15.59,35.39l-1.56,1.83c1.07,4.08-.59,12.87-5.47,12.38,1.53,5.04-6.65,1.66-1.22-1.95l-1.19-1.82c1.61-6.64-.3-12.85-5.75-18.63-8.35-9.04-14.56-19.11-18.62-30.23l1.64-2.48-2.24-2.61c0-8.04,1-16.02,3.02-23.93,9.06-20.36.1-38.62-15.06-52.87,2.2-1.87,6.81.03,9.3,1.68Z"/>
      <path class="st10" d="M214.77,109.53c2.73.1,5.72.52,8.22,1.83-5.82-.58-12.2.64-17.07,3.6l-7.24-1.98c5.11-2.54,10.55-3.65,16.08-3.45Z"/>
      <path class="st4" d="M314.96,327.17l-.2-3.22,2.78-11.95c.04,5.28-.47,10.74-2.58,15.17Z"/>
      <path class="st8" d="M430.78,305.43c-10.53-3.73-24.06,2.28-35.06,6.9,1.8-4.27,5.56-4.8,9.79-5.65,6.31-1.27,12.14-3.94,18.29-4.23,2.11-.1,4.71,1.69,8.01.48-.67,1.26-1.02,1.71-1.02,2.49Z"/>
      <path class="st4" d="M290.93,203.36c-4.9,13.09,2.62,27.53,11.56,39.23l15.99,20.94c4.77,6.25,6.99,13.63,6.22,21.58,2.53,6.28.23,16.93-3.96,19.95l1.11-3.85c1.59-10.77,1.36-23.08-3.06-33.14-2.11-2.31-3.62-5.45-6.08-7.69-1.49-4-4.48-7.19-7.35-10.71-11.44-14.05-24.49-30.83-18.68-47.55-2.45-1.95.66-6.13,3.22-3.97,1.74.35,2.09,2.09,1.03,5.2Z"/>
      <path class="st11" d="M300.03,200.26c-2.66,2.61-2.38,6.28-4.18,9.13l-2.17-10.63-2.76,4.6c-1.06-1.54-1.11-3.42-1.03-5.2-.09-2.96,2.92-8.06,6.21-6.85l2.26.17c.94,1.37,3.39,7.78,1.68,8.79Z"/>
      <path class="st27" d="M345.62,187.22l-1.61,2.25-2.44-6.08c.33-.79-.44-1.85.63-3.44l3.42,7.27Z"/>
      <g>
        <path d="M178.29,271.41c2.41-.92,5.44-.48,9.07,1.31l11.5.4c8.69-3.21,16.75-2.89,24.2.97,2.56-1.92,9.31,4.39,7.93,7.19,8.89,12.42,5.5,32.27-7.17,40.96-15.24,14.42-20.2,13.34-12.81,41.55,1.07,4.09,5.53,5.42,8.87,6.31,8.81,4.1,12.21,13.87,9.45,22.29l-2.05-.54c-3.7-10.11-9.6-12.5-19.81-13.72-10.6-3.87-13.98-12.75-17.27-23.03-6.71-20.97-11.14-40.36-4.45-61.33,1.05-8.06-1.16-10.19-7.71-14.44-1.69-1.35-2.86-2.31-1.02-4.16-5.3-2.11-1.02-8.45,1.27-3.74Z"/>
        <g>
          <path class="st19" d="M233.63,312.97c-2.69,3.57-5.58,7.68-9.81,9.27,11.48-10.86,14.76-26.87,7.17-40.96,5.53,5.01,6.84,13.39,5.09,21-.85,3.7-.31,7.85-2.45,10.69Z"/>
          <path class="st29" d="M212.67,312.22c-2.74,4.39-8.02,6.62-12.37,10.94-4.64-13.12,1.81-24.14,1.3-36.35,17.6-5.93,22.76,14.74,11.07,25.42Z"/>
          <path class="st25" d="M212.67,312.22c5.07-8.14,6.95-16.71.34-22.8-3.16-2.92-7.3-3.06-11.42-2.62,3.4-3.28,11.27-3.04,15.34.25,7.47,6.05,4.28,19.46-4.26,25.17Z"/>
          <path class="st31" d="M212.18,269.94c3.94.26,7.94,1.49,10.88,4.15-12.79-5.28-19.1-.64-27.33.64-6.15.96-12.31-1.26-17.44-3.31.36-1.03.66-2.26,1.54-3.2,17.67,8.36,25.84,1.3,32.36,1.73Z"/>
        </g>
      </g>
      <path class="st1" d="M225.79,238.33c-6.73-10.74-4.57-25.83,1.76-35.27-3.53,11.55-4.45,23.48-1.76,35.27Z"/>
      <path class="st24" d="M321.85,301.21l-.29-20.79-2.77-12.34c3.72,4.07,3.71,9.43,4.27,15.14.62,6.27,1.74,12.41-1.21,17.99Z"/>
      <g>
        <path class="st2" d="M238.98,260.32c37.93-6.23,44.16,33.67,31.37,61.45l-10.69,19.34c-4.47,9.25-4.43,19.41-1.89,29.22.52,1.33,1.42,2.6,1.01,4.93l-2.02-2.44c-1.34.09-2.56-.25-3.45-1.26-16.97-19.07-24.69-36.86-16.94-61.72,3.09-21.24,3.4-32.09-20.3-40.75-.39-1.44.53-2.78,2.74-4.02,1.66-2.77,4.55-4.46,8.67-5.07,4.59-1.8,8.43-1.7,11.52.32Z"/>
        <g>
          <path class="st7" d="M218.79,265.07l-1.82,3.07c11.9,2.84,22.64,11.4,23.19,24.16.93,21.95-20.19,42.09,16.6,80.52-.87,1.34-.42,2.64-.15,4.34-15.65-14.61-28.71-34.73-23.87-56.21.63-2.8,1.28-5.33.9-7.97l-.79-.96c3.73-9.76,5.04-21.9-1.86-30.72l-7.93-7.19-4.95-2.28c-2.42-.3-4.39-.92-5.92-1.87-2.85-3.72,3.74-6.79,6.61-4.87Z"/>
          <path class="st6" d="M267.1,264.06c1.08-.1,2.16.1,2.72,1.01,12.7,20.68,10.81,34.55,3.72,56.46-.32.98-.64,1.53-1.9,1.41l-6.68,11.31c-8.24,13.95-9.13,19.21-7.19,36.07-4.74-12.15-3.03-25.03,4.05-36.2,14.23-22.44,21.4-53.45-.5-69.39-6.38-4.64-15.23-4.81-22.34-4.42-.81-2.07-.34-2.32,1.19-3.08,3.62-1.81,16.93,1.12,21.05,2.94,2.16.96,4.09,2.34,5.87,3.88Z"/>
          <path class="st17" d="M251.97,277.09c6.3,8.97,6.56,18.96,3.66,29.27l-5.59,17.92c.9,1.79-.98,7.08-3.18,6.6-.57-24.34,15.29-42.29-5.83-59.06,3.76-.16,12.2.62,10.93,5.28Z"/>
          <path class="st23" d="M246.87,330.88c2.32-1.31,2.22-4.42,3.18-6.6l6.21-20.05c2.4-9.51,1.34-18.95-4.28-27.13-2.57-2.88-6.14-4.71-10.93-5.28,4.64-1.13,10.31-.62,13.46,2.75,8.62,9.26,9.79,22.58,4.7,33.84l-10.74,23.74c-.9,1.46-2.34.4-1.58-1.27Z"/>
          <path class="st16" d="M250.05,324.28l4.63-23.35c2.3-10.92,1.38-14.02-2.7-23.84,7.87,8.81,9.35,21.52,4.47,32.62l-6.4,14.56Z"/>
        </g>
      </g>
      <g>
        <path class="st28" d="M202.89,123.57c20.42-1.66,36.54,15.66,34.57,36.37-1.14,12.02-5.11,22.79-10.05,33.9l-8.87,19.97c-3.22,9.66-2.45,19.35,2.75,28.01,3.56,5.91,3.41,13.08-.23,18.68-2.19.95-4.18,2.99-7.13,2.8,7.72-11.13-10.02-15.49-20.04-39.07-4.7-11.07-6.54-23.05-3.82-34.84l4.68-20.29c2.18-9.46.53-18.42-6.19-25.54l-10.58-8.55c6.68-6.83,15.71-10.71,24.89-11.45Z"/>
        <path class="st20" d="M205.44,134.43c8.25,1.72,14.15,14.07,13.47,21.77-.13,1.42-.3,2.28-1.89,3-1.04,8.25-3.05,16.38-6.11,24.1,2.72,1.41,1.12,5.58-1.83,4.89-.94,4.42-2.24,8.73-3.9,12.94l-2.39.38,1.23-11.18,5.06-21.93c2.81-12.2-.74-23.76-10.85-32.07,2.16-1.86,4.45-2.04,7.22-1.9Z"/>
        <path class="st0" d="M208.93,202.63c-2.13,1.6-3,0-2.87-2.39l3.01-12.04c.66-1.47,1.44-3.31,1.83-4.89,3.06-7.74,5.07-15.85,6.11-24.1,0-9.92-3.44-19.44-11.57-24.77,8.46.44,14.94,7.9,17.01,16.35,5.5,22.45-10.49,38.66-13.52,51.85Z"/>
        <path class="st22" d="M208.93,202.63l-3.42,14.88c-2.23-5.16-3.33-10.59-2.73-16l6.28-13.31-1.01,12.1c-.11,1.14.18,1.97.88,2.34Z"/>
        <path class="st12" d="M210.9,183.3l2.62-10.43,3.5-13.67c0,8.32-1.96,16.71-6.11,24.1Z"/>
      </g>
      <g>
        <path class="st2" d="M284.8,249.11c17.27,2.12,29.64,10.46,33.09,28.14,6.8,34.91-12.25,61.67-39.35,81.65-5.46,5.11-7.31,10.99-5.74,18.35.85,1.88,2.23,3.96,4.12,5.41-.84.68-1.57.4-1.9.27-.72.82-1.45,1.03-2.25.48-14.37-10.02-12.51-24.3-8.12-39.5l2.83-6.9c13.36-25.05,20.73-69.29-12.02-81.5,1-1.59,2.54-2.71,4.63-3.35,2.03-3.05,5.61-4.53,10.73-4.45l11.44-.59,2.54,2.01Z"/>
        <g>
          <path class="st14" d="M312.7,260.39c2.42-.71,6.66,5.38,6.08,7.69,4.39,10.09,4.68,22.36,3.06,33.14.83.64.46,1.92-1.11,3.85-2.03,1.87-2.62,4.47-3.19,6.94-.13,4.55-1.06,8.54-2.78,11.95-8.17,12.22-18.29,22.61-30.17,31.88-8.64,6.74-11.46,9.13-11.79,21.41-3.74-8.3.1-15.93,6.95-21.33,7.98-6.29,14.85-13.64,21.57-21.24,11.22-12.69,15.98-28.59,15.74-45.52-.34-23.24-10.36-35.62-32.26-40.04,3.17-3.52,10.96-.75,15.13.98,5.5,2.28,9.43,5.26,12.76,10.3Z"/>
          <path class="st5" d="M260.09,252.14c-1.1.95-2.87,1.58-3.11,3.52,8.63,1.24,14.12,6.69,17.44,14.03,4,8.83,7.14,18.18,5.93,28.08-1.53,12.46-5.67,24.04-10.12,35.67-.63,1.65-1.25,2.94-2.75,3.56l4.16-14.05c4.11-6.95,5.71-15.99,6.17-24.79.65-12.43-3.85-24.62-10.71-34.09-4.55-3.42-9.69-5.85-15.41-7.28-.92-4.25,5.69-7.93,8.4-4.65Z"/>
          <path class="st15" d="M275.02,382.92c-.86-.35-1.82.66-.93,1.29.39.27,1.63.71,1.42,1.97-16.83-6.08-17.79-25.41-10.86-42.29-3.72,15.6-4.04,32.54,10.37,39.03Z"/>
          <path class="st14" d="M286.77,260.95c2.22,1.16,4.52,2.38,6.41,4.06.16.14-.04.68-.34,1.33,11.51,18.74,5.29,43.67-1.89,60.74-2.58,3.3-5.35,6.47-9.3,9.28,4.01-10.14,8.08-19.06,9.93-29.49,2.61-14.7.98-33.98-7.74-45.39,1.05-.37,2.24-.69,2.93-.54Z"/>
          <path class="st9" d="M295.61,319.19c-.99,2.91-2.75,5.45-4.66,7.9-.47.17-1.08-.22-1.06-.54.02-.38.1-1.33.37-1.91,8.44-18.58,8.97-39.35,2.59-58.29,1.05-.69,1.55-.44,2.19.3,12.25,14.03,7.12,36.84.58,52.54Z"/>
          <path class="st18" d="M295.61,319.19c5.76-16.9,10.27-41.78-2.77-52.84l-6.07-5.4c21.36,4.41,19.81,38.68,8.84,58.24Z"/>
        </g>
      </g>
    </g>
  </g>
  <g id="Layer_2">
    <g>
      <path class="st13" d="M24.36,215.64c19.98,28.62,21.21,41.12,13.74,71.68-8.7,35.61-14.21,71.35,10.39,84.63,0,0-13.73-26.83,2.21-56.63s25.27-73.98-3.54-107.61c-24.26-28.32-18.02-35.49-18.02-35.49,0,0,9.46,12.37,33.26,20.75,25.46,8.96,25.98,41.54,25.98,41.54,0,0,15.65-19.51,11.49-52.08s-21.29-84.48-1.46-109.56c0,0-3.57,19.96,13.56,47.65,15.82,25.58-7.58,41.56,4.73,98.89,11.4,53.05,54.66,46.53,54.66,46.53,0,0-31.1-17.22-36.04-58.81-4.74-39.91,18.09-57.22,4.01-95.64-6.31-17.22-35.71-42.21-14.55-88.96,0,0-45.1,11.58-58.27,58.02s8.72,93.86,8.66,93.81c-23.43-16.95-38.6-11.08-64.6-52.36,0,0-20.7,44.26,13.79,93.66Z"/>
      <path class="st13" d="M173.24,47.36s48.34,4.36,56.27,51.91c7.93,47.55-59.04,105.4-5.94,147.41,0,0-4.3-28.44,23.58-46.07,31.67-20.03,66.86-69.88,55.5-119.1-11.36-49.23-49.08-41.29-49.08-41.29,0,0,41.35,31.48,24.78,84.4-12.81,40.91-47.24,58.33-47.24,58.33,0,0,31.06-40.49,23.91-84.67s-48.28-68.17-81.79-50.92Z"/>
      <path class="st13" d="M288.72,39.18s24.34,22.94,25.41,52.81c1.07,29.87-28.11,50.44,3.37,87.79,23.1,27.4,22.07,44.98,22.07,44.98,0,0,12.27-11.2,5.87-34.68s-27.96-32.78-13.14-71.05c16.54-42.68-7.91-78.67-43.58-79.86Z"/>
      <path class="st13" d="M330.83,42.46s23.87,17.89,16.52,46.63c-10.05,39.34-19.43,46.96-10.26,68.77s16.61,23.37,15.64,41.18c0,0,14.15-7.07,6.61-25.63-7.96-19.58-15.74-31.27,4.48-73.13.26-.55-1.03,48.62,22.45,66.65,18.81,14.44,22.59,11.02,22.59,11.02,0,0-10.07-20.92-9.63-39.52.57-24.28,18.69-60.56,16.48-75.1s-9.52-16.9-17.11-30.18c-7.59-13.28-6.18-24.34-6.18-24.34,0,0-13.91,6.96-8.85,25.92s13.59,23.4,12.96,32.88-11.53,35.19-14.23,53.48c0,0-2.9-5.56-3.02-20.73-.2-25.49-2.44-27.96-10.26-36.54-19.6-21.5-38.19-21.36-38.19-21.36Z"/>
      <path class="st13" d="M402.65,6.64s22.94,27.86,22.53,51.21c-.41,23.35-19.66,56.13-15.16,86.03,4.51,29.91,13.52,42.2,25.4,64.32s10.24,30.32,8.6,38.51c0,0,12.29-2.25,14.75-39.53s62.27-81.12,108.16-72.92c0,0,2.68-29.01-29.5-34.62-34.44-6-50.3,6.92-67.6,1.64-13.38-4.08-8.6-15.98-8.6-15.98,0,0-15.48,8.86-7.38,24.79,6.65,13.06,19.56,16.35,36.66,11.88,18.75-4.9,31.17-4.26,31.17-4.26,0,0-53.43,7.89-77.25,63.05,0,0-10.25-22.11-9.83-42.61.9-43.98,24.97-71.3,4.3-109.39,0,0,18.57.83,20.49,27.65,1.61,22.62,25.11,32.27,35.18,11.71,0,0-15.31,3.24-15.72-11.51-.41-14.75-4.92-42.2-31.96-51.62-27.04-9.42-44.25,1.64-44.25,1.64Z"/>
      <path class="st13" d="M132.29,289.51s-10.58,1.63-16.42-6.56c-9.14-12.82-8.99-41.45-38.45-35.46,0,0,9.49,5.99,6.49,15.98s-8.49,27.97-19.48,43.45c-10.99,15.48-21.54,34.46-11.05,59.43s19.54,30.96,32.02,31.46c0,0-6.63-11.49-1.5-19.98,5.8-9.59,13.94-15.49,31.17-21.45,0,0,7.91,27.44-1.58,43.92-9.49,16.48-34.7,38.84-40.02,66.1,0,0,3.57-29.59-16.04-45.13-17.55-13.9-24.47-21.97-30.46-37.45-5.99-15.48-18.98-18.48-25.97-15.48,0,0,14.48,2.5,13.98,22.47-.5,19.98,13.48,31.46,26.97,49.44,13.48,17.98-2.12,62.23,18.85,82.21s34.09,15.67,34.09,15.67c0,0-11.99-16.98-8.49-35.96s12.13-44.25,29.46-64.42c23.49-27.34,30.59-48.94,22.6-79.9s-6.39-47.7-6.39-47.7c0,0-5.47,3.15-9.09,8.35s-5.41,12.43-15.27,14.84c-16.01,3.93-29.3,18.51-29.3,18.51,0,0-7.49-5.99,4.99-27.47,12.48-21.47,10.92-21.16,15.42-34.64,0,0,9.91,14.81,21.23,12.48,13.1-2.7,12.23-12.73,12.23-12.73Z"/>
      <path class="st13" d="M300.32,169.07s-27.35,18.82-7.13,53.61c12.8,22.03,32.06,19.02,46.13,44.82,7.85,14.39,3.3,36.92-.62,57.34-7.2,37.56-25.3,58.77-33.02,61.34,0,0,21.77,6.63,38.68-23.39,14.15-25.12,19.97-42.54,22.54-82.67,0,0,20.72,1.7,50.86-17.97,0,0,1.43,16.79-22.67,27.83-15.97,7.31-24.4,27.27-27.49,48.88s-7.72,37.04-7.72,37.04c0,0,20.39-17.65,24.97-36.7,6.99-29.06,24.75-21.95,41.21-48.19,16.46-26.24,21.29-58.09-9.58-87.93,0,0,11.1,28.37-12.03,43.68-15.01,9.94-23.23,9.76-23.23,9.76,0,0,17.03-14.43,19.11-32.94,2.1-18.64-1.08-33.66-12.91-47.55-11.83-13.89-22.88-23.54-23.32-40.39,0,0-16.53,11.99,3.05,41.4,12.54,18.84,24.95,53.27-9,73.85,0,0-11.15-18.9-35.09-31.82-24.18-13.05-23.26-36.09-22.75-49.98Z"/>
      <path class="st13" d="M500.31,180.31s-11.18-.03-22.38,13.98c-11.21,14.01-4.87,41.33-20.28,59.55-15.41,18.21-35.99,39.4-26.69,69.39,0,0,14.15-9.09,35.73-11.91,28.93-3.78,42.67-28.69,42.67-28.69,0,0,16.69,21.57.1,46.24-34.14,50.76-8.35,96.04-69.58,105.37,0,0,6.77-28.4-6.96-55.51-16.03-31.64,46.7-20.14,58.54-60.47,0,0-23.94,13.69-52.45,18.66-44.58,7.77-40.97,33.31-30.36,52.59,8.66,15.73,13.57,46.25,5.63,52.88-15.11,12.62-33.76,16.05-33.76,16.05,0,0,39.55,23.82,92.09-5.6,52.54-29.42,21.91-40.67,57.73-108.59,34.84-66.07-4.21-70.75,1.63-108.66,7.02-45.57,16.68-53.18,16.68-53.18,0,0-20.5-2.35-31.36,25.99-9.45,24.66-9.82,40.91-25.35,61.55-14.73,19.57-35.77,21.01-35.76,20.98,3.04-12.08,22.64-17.6,28.69-38.46,5.07-17.49-1.37-51.84,15.45-72.16Z"/>
      <path class="st13" d="M259.21,270.25c-25.57-28.63-60.6-13.62-70.88-3.06,0,0,26.08,4.81,31.36,34.28,5.28,29.46-11.91,36.41-3.29,73.1,8.62,36.69,32.52,46.33,32.52,46.33,0,0-14.58-42.43,7.28-67.98,22.51-26.3,28.58-54.05,3.01-82.68ZM232.88,357.01c-5.3-15.61,2.51-26.09,5.36-44.14,4.38-27.76-10.76-38.47-10.76-38.47,15.5.09,44.45,30.72,19.56,59.68-13.34,15.52-14.16,22.93-14.16,22.93Z"/>
      <path class="st13" d="M297.29,243.29c-30.85-11.4-51.42,5.28-51.42,5.28,0,0,13.97,2.62,28.91,29.46,13.91,24.99,3.9,62.65-13.9,90.34-16.33,25.41-8.34,56.15,11.4,62.82,0,0-11.06-13.17-3.61-28.91,11.56-24.45,42.57-23.63,57.86-68.66,15.29-45.03,1.62-78.94-29.23-90.34ZM311.71,314.86c-5.64,27.34-27.25,43.94-27.25,43.94,0,0,9.02-12.86,14.44-43.92,6.12-35.11-17.54-57.39-17.54-57.39,21.52,1.03,36.08,29.6,30.35,57.37Z"/>
      <path class="st13" d="M192.65,183.27c15.85-32.1,38.83-76.87,14.27-106.59-24.57-29.72-63-14.27-74.5-.4,0,0,21.79,10.7,24.96,32.1s-14.27,44.38-9.51,74.1c4.76,29.72,24.17,45.97,31.7,57.46,7.53,11.49,8.32,14.27,3.96,20.21,0,0,15.45-2.77,13.87-20.61-1.59-17.83-20.61-24.17-4.76-56.27ZM171.36,190.82s-9.36-22.35-.11-45.62c13.06-32.88,9.54-54.62-5.04-64.86,0,0,20.66-7.53,29.58,19.45,12.07,36.52-30.34,71.73-24.43,91.04Z"/>
      <path class="st13" d="M194.83,412.57c-13.17-8.9-17.21-14.46-18.19-24.19-1.57-15.62-6.13-22.27,11.24-36.07,19.94-15.85,36.36-28.16,19.68-63.17-12.28-25.79-42.44-9.4-54.32-11.09-11.88-1.7-19.95.42-24.61-7.64,0,0-3.39,10.61,11.46,17.82,14.85,7.21,0,22.92,2.12,47.95,2.12,25.04,9.5,66.36,19.26,80.37,9.76,14,21.33,9.11,29.54,15.44,12.13,9.34,10.18,20.9,10.18,20.9,0,0,17.32-24.31-6.37-40.32ZM166.49,345.33s-5.26-11.18-1.05-26.32c4.21-15.14,3.15-21.93,3.15-21.93,0,0,17.95-6.15,23,5.21,5.05,11.35,4,19.88-9.04,28.71-13.04,8.83-16.06,14.34-16.06,14.34Z"/>
    </g>
  </g>
</svg>