<?xml version="1.0" encoding="UTF-8"?>
<svg id="Layer_1" xmlns="http://www.w3.org/2000/svg" version="1.1" viewBox="0 0 635.4 328.06">
  <!-- Generator: Adobe Illustrator 30.4.0, SVG Export Plug-In . SVG Version: 2.1.4 Build 226)  -->
  <defs>
    <style>
      .st0 {
        isolation: isolate;
      }

      .st1 {
        fill: #fff;
      }

      .st2 {
        fill: #0086ff;
      }
    </style>
  </defs>
  <g class="st0">
    <g class="st0">
      <path class="st2" d="M85.81,138.14c-.34,0-.74.02-1.19.02-3.48,0-9.87-.48-12.13-5.72-.76-1.77-2.1-6.86,4.71-11.71.29-.21.66-.33,1.02-.33,3.61.03,6,1.61,7.18,3.7.3.53.89.83,1.5.79,5.82-.37,14.67-2.4,19.59-4.74,1.06-.5,1.28-1.9.45-2.74-2.78-2.81-5.02-5.43-6.8-7.9-.62-.85-1.87-.91-2.59-.13l-5.28,5.69c-3.84,4.14-11.74,2.29-11.92-6.02,0-.43.17-.86.46-1.18l12.72-13.73c.27-.29.42-.69.44-1.09.09-2.25.65-4.16,1.41-5.77,2.73-5.77,8.57-8.22,12.92-7.66,4.94.64,8.28,4.98,7.01,10.27-.07.29-.22.55-.42.77l-5.67,6.11c-.5.54-.6,1.33-.25,1.96,1.51,2.71,4.33,6.48,9.57,11.4,5.58,5.24,4.32,10.65,3.52,12.73-4.63,12.04-30.17,15.13-36.25,15.26Z"/>
      <path class="st2" d="M200.97,75.52c.41.24.77.61.99,1.04,3.27,6.28-1.41,11.46-6.42,10.8-.22-.03-.44-.05-.67-.02-3.79.56-12.17,6.4-20.95,13.57-1,.81-1.26,2.23-.64,3.35,2.92,5.34,6.3,10.05,8.44,11.63.41.3.9.43,1.41.47,3.21.27,5.83,2.86,6.06,6.17.25,3.67-2.52,6.83-6.18,7.08-.25.02-.49.03-.74.03-7.61,0-14.18-7.96-18.71-15.5-.88-1.46-2.87-1.75-4.12-.58-5.18,4.85-9.52,9.32-11.88,12.33-.29.37-.43.8-.52,1.26-.39,2.05-1.7,3.88-3.74,4.81-1.98.91-3.7,1.25-5.17,1.25-3.34,0-5.38-1.79-6.27-2.8-4.19-4.79-5.19-11.62,20.28-56.17,13.42-23.48,29.38-48.81,36.19-59.63l2.41-3.84c1.95-3.11,6.04-4.06,9.16-2.11,3.11,1.95,4.06,6.05,2.11,9.16l-2.44,3.88c-19.59,31.11-32.48,52.85-40.93,68.05-1.43,2.58,1.79,5.22,4.04,3.31,4.6-3.88,8.65-7.09,11.13-8.89,13.51-9.82,21.16-12.13,27.14-8.66Z"/>
      <path class="st2" d="M241.49,121.83c-12.21,5.25-21,7.82-27.33,7.82-4.55,0-7.83-1.33-10.21-3.95-4.06-4.49-3.68-11.16,1.12-19.81,9.24-16.66,18.33-20.86,22.92-21.88,3.54-.79,6.85-.24,9.31,1.54,2.64,1.91,4.05,5.05,3.77,8.38-.33,3.97-2.99,7.47-7.29,9.6-4.83,2.39-11.71,2.83-13.03,2.89-.12,0-.24.01-.36,0-1.19,1.68-2.42,3.63-3.69,5.91-.22.41-.43.79-.61,1.15-.64,1.24.46,2.67,1.83,2.41,3.75-.74,10.13-2.63,20.59-7.26.4-.18.88-.21,1.29-.05,7.78,2.96,6.89,11.03,1.69,13.26Z"/>
      <path class="st2" d="M365.92,53.36c-1.18,6.9-7.55,8.34-11.25,5.35-.29-.24-.6-.45-.96-.55-5.75-1.6-24.57.45-47.14,4.24-.8.13-1.51.6-1.94,1.28-9.09,14.4-19.52,31.28-28.76,47.42-15.5,27.05-21.08,40.58-23.01,47.2-.41,1.42.33,2.96,1.74,3.43,3.53,1.17,6,5.23,3.68,10.4-.27.61-.81,1.1-1.42,1.36-3.01,1.29-5.53,1.79-7.63,1.79-4.46,0-7-2.25-8.26-3.88-6.55-8.5-1.13-28.22,43.23-100.01,1.31-2.12-.53-4.79-2.98-4.3-7.72,1.54-15.47,3.2-22.96,4.9-.5.11-.99.17-1.48.17-3.04,0-5.78-2.09-6.48-5.18-.81-3.58,1.43-7.14,5.01-7.96.21-.05,19.23-4.36,40.7-8.25.78-.14,1.47-.6,1.9-1.27,3.05-4.81,6.23-9.81,9.58-15.01,3-4.67,5.39-8.4,6.94-10.88,2.91-4.65,10.62-4.47,12.67,2.97.21.78.12,1.61-.3,2.3-1.37,2.28-4.25,6.77-8.13,12.8-.14.22-.29.45-.44.68-1.31,2.05.38,4.7,2.78,4.37,39.17-5.42,41.27.01,44.44,4.69.39.57.58,1.27.46,1.96Z"/>
      <path class="st2" d="M308.99,114.67c-.59,1.2.41,2.57,1.73,2.4,3-.4,8.02-1.59,16.1-4.76,5.25-2.06,11.55,3.01,8.15,10.56-.18.39-.53.71-.92.87-11.08,4.53-19.5,6.78-25.75,6.78-5.06,0-8.69-1.47-11.18-4.41-2.83-3.33-4.84-9.58,1.63-20.41,6.12-10.24,15.57-22.49,25.86-22.75,5.41-.16,10.02,3.01,12.58,8.71.15.33.19.72.12,1.08-1.58,7.26-8.53,8.17-11.96,4.5-.54-.58-1.4-.7-2.08-.3-2.44,1.46-7.13,5.58-13.1,15.58-.47.79-.86,1.51-1.17,2.15Z"/>
      <path class="st2" d="M420.68,17.83l-1.39,2.23c-21.03,33.58-34.37,56.1-42.82,71.21-1.49,2.67,1.72,5.5,4.18,3.68,12.26-9.06,24.14-16.42,30.37-16.42,2.51,0,4.76,1.28,6.02,3.43,2.69,4.56.7,8.17-10.35,28.15-5.36,9.7-14.67,26.53-17.25,34.42-.26.79-.15,1.65.29,2.35.69,1.1,1.07,2.41,1.01,3.81-.15,3.57-3.09,6.37-6.64,6.37-.09,0-.19,0-.28,0-3.08-.13-5.68-1.69-7.14-4.3-3.81-6.77,1-17.64,18.38-49.08.76-1.37,1.06-2,.65-2.29-.7-.49-1.72.42-3.54,1.74-9.51,6.88-20.98,15.99-31.05,24.66-.09.08-.2.13-.3.21-.19.15-.39.29-.6.42-.18.11-.36.2-.55.29-.2.1-.4.19-.6.26-.22.08-.44.14-.67.2-.13.03-.24.09-.37.11-.08.02-.16.01-.25.02-.19.03-.39.04-.58.06-.25.02-.51.07-.76.07-2.54,0-4.87-1.18-6.3-3.28-3.32-4.86-6.76-9.87,57.91-113.15l2.47-3.95c.43-.69,1.14-1.15,1.94-1.31,7.6-1.44,11.17,5.43,8.25,10.09Z"/>
      <path class="st2" d="M461.25,121.83c-12.21,5.25-21,7.82-27.33,7.82-4.55,0-7.83-1.33-10.21-3.95-4.06-4.49-3.68-11.16,1.12-19.81,9.24-16.66,18.33-20.86,22.92-21.88,3.54-.79,6.85-.24,9.31,1.54,2.64,1.91,4.05,5.05,3.76,8.38-.33,3.97-2.99,7.47-7.29,9.6-4.83,2.39-11.71,2.83-13.03,2.89-.12,0-.24.01-.36,0-1.19,1.68-2.42,3.63-3.68,5.91-.22.41-.43.79-.61,1.15-.64,1.24.46,2.67,1.83,2.41,3.75-.74,10.13-2.63,20.59-7.26.4-.18.88-.21,1.29-.05,7.78,2.96,6.89,11.03,1.69,13.26Z"/>
      <path class="st2" d="M593.16,28.77c-4.25,7.63-10.31,18.1-17.32,30.21-13.57,23.45-30.47,52.64-43.8,77.79-15.92,30.03-20.3,42.27-21.4,47.17-.13.57,0,1.17.4,1.6,2.18,2.39,2.63,6.38-.58,10-.23.26-.55.47-.89.58-4.73,1.48-9.02-.12-11.17-3.83-5.34-9.27,5.78-34.82,50.7-113.48,1.13-1.98-1.54-3.92-3.06-2.22-6.95,7.78-13.87,15.44-20.28,22.43-.31.34-.46.78-.49,1.24-.2,2.89-2.29,5.41-5.26,6.04-.37.08-.73.12-1.09.14-11.28,12.14-20.1,21.11-23.24,23.08-4.58,2.88-8.22,3.89-11.08,3.89-3.91,0-6.36-1.89-7.74-3.5-7.43-8.69,2.17-25.83,12.65-37.86,7.73-8.88,15.18-12.46,22.14-10.65,2.53.66,4.62,1.95,6.33,3.54.79.73,1.99.71,2.71-.08,21.03-23.18,47.95-53.75,67.53-76.3,0,0,.01-.02.02-.02.02-.02.04-.04.05-.06.02-.02.05-.04.07-.06.24-.27.5-.51.79-.74.08-.07.17-.13.26-.2.27-.2.55-.37.85-.53.05-.03.11-.07.16-.09,0,0,0,0,0,0,.38-.18.76-.32,1.15-.43.01,0,.03,0,.04,0,2.45-.68,5.06.01,6.81,1.9,3.84,4.14,1.73,7.92-5.26,20.48ZM510.21,96.31c-.66-1.11-1.36-1.91-1.91-2.05-.05-.01-.12-.02-.2-.02-.97,0-3.84,1.12-8.55,6.53-6.59,7.57-9.83,13.79-11.19,17.64.08-.05.17-.1.26-.16,2.45-1.6,10.58-9.99,21.6-21.95Z"/>
    </g>
  </g>
  <g>
    <g>
      <path d="M107.91,277.26h-17.63c-1.51,0-2.4-.73-2.66-2.21l-14.2-85.77c-.04-.13-.06-.32-.06-.58,0-.73.26-1.34.78-1.82.52-.48,1.23-.71,2.14-.71h21.33c1.56,0,2.4.76,2.53,2.27l5.19,50.83h.26l26.71-50.83c.78-1.51,1.97-2.27,3.57-2.27h24.83c1.3,0,1.94.48,1.94,1.43,0,.48-.19,1.04-.58,1.69l-50.57,85.77c-.86,1.47-2.05,2.21-3.57,2.21h-.01Z"/>
      <path d="M218.9,276.54c-.56.48-1.28.71-2.14.71h-62.43c-1.51,0-2.27-.63-2.27-1.88,0-.13.04-.41.13-.84l18.22-85.64c.17-.86.54-1.53,1.1-2.01.56-.48,1.3-.71,2.2-.71h61.46c1.47,0,2.2.65,2.2,1.94,0,.35-.02.61-.06.78l-4.02,18.67c-.17.87-.54,1.52-1.1,1.98-.56.45-1.28.68-2.14.68h-37.41l-2.14,10.05h28.2c.73,0,1.3.16,1.69.49.39.32.58.79.58,1.39,0,.13-.04.41-.13.84l-3.63,17.05c-.39,1.82-1.49,2.72-3.31,2.72h-28.2l-2.2,10.44h38.38c.73,0,1.3.16,1.69.49.39.32.58.77.58,1.33,0,.13-.04.41-.13.84l-3.95,18.67c-.22.87-.61,1.54-1.17,2.01h0Z"/>
      <path d="M254.23,273.59c-5.66-3.57-10.01-8.37-13.03-14.42-3.03-6.05-4.54-12.71-4.54-19.97,0-3.63.39-7.28,1.17-10.96,1.82-8.6,5.46-16.23,10.92-22.88,5.47-6.66,12.16-11.82,20.06-15.49,7.91-3.67,16.34-5.51,25.28-5.51,5.32,0,10.24.8,14.78,2.4,4.54,1.6,8.47,3.87,11.8,6.81.56.52.84,1.08.84,1.69,0,.69-.37,1.4-1.1,2.14l-15.82,16.21c-.78.78-1.56,1.17-2.33,1.17-.56,0-1.1-.19-1.62-.58-1.69-1.25-3.57-2.26-5.64-3.01-2.08-.76-4.21-1.13-6.42-1.13-3.54,0-7.08.95-10.6,2.85-3.52,1.9-6.58,4.5-9.17,7.78-2.59,3.29-4.3,6.92-5.12,10.89-.35,1.82-.52,3.41-.52,4.8,0,3.24.71,6.15,2.14,8.72,1.43,2.57,3.38,4.58,5.87,6.03s5.24,2.17,8.27,2.17c2.64,0,4.94-.29,6.9-.88s4.29-1.7,6.97-3.34c.73-.43,1.4-.65,2.01-.65.82,0,1.43.39,1.81,1.17l8.62,16.34c.26.52.39,1,.39,1.43,0,.82-.48,1.56-1.43,2.21-4.62,3.03-9.56,5.35-14.81,6.97s-10.58,2.43-15.98,2.43c-7.48,0-14.05-1.78-19.71-5.35v-.04Z"/>
      <path d="M355.49,277.26h-21.33c-1.51,0-2.27-.63-2.27-1.88,0-.13.04-.41.13-.84l13.48-63.47h-20.36c-.74,0-1.3-.16-1.69-.49-.39-.32-.58-.79-.58-1.39,0-.13.04-.41.13-.84l4.15-19.45c.17-.86.55-1.53,1.14-2.01.58-.48,1.31-.71,2.17-.71h67.55c1.47,0,2.2.65,2.2,1.94,0,.35-.02.61-.06.78l-4.15,19.45c-.22.87-.61,1.53-1.17,2.01-.56.48-1.28.71-2.14.71h-20.42l-13.48,63.47c-.39,1.82-1.49,2.72-3.31,2.72h0Z"/>
      <path d="M411.79,274.18c-6.12-3.22-10.82-7.84-14.1-13.87-3.29-6.03-4.93-13.15-4.93-21.36,0-9.12,2.36-17.88,7.07-26.29,4.71-8.41,11.21-15.21,19.48-20.42,8.28-5.21,17.45-7.81,27.52-7.81,8.3,0,15.51,1.63,21.65,4.89,6.14,3.26,10.85,7.94,14.13,14.03,3.29,6.09,4.93,13.29,4.93,21.59,0,9.08-2.36,17.77-7.07,26.09-4.71,8.32-11.21,15.06-19.48,20.23-8.28,5.16-17.47,7.75-27.58,7.75-8.3,0-15.51-1.61-21.62-4.83h0ZM448.84,249.8c3.63-2.23,6.5-5.25,8.62-9.08s3.18-8.01,3.18-12.54c0-3.76-.74-6.99-2.21-9.69s-3.5-4.74-6.09-6.13c-2.59-1.38-5.55-2.07-8.88-2.07-4.32,0-8.31,1.12-11.96,3.37s-6.54,5.32-8.65,9.21-3.18,8.15-3.18,12.77c0,3.72.73,6.89,2.21,9.53,1.47,2.64,3.5,4.62,6.09,5.96s5.55,2.01,8.88,2.01c4.37,0,8.36-1.11,11.99-3.34Z"/>
      <path d="M489.03,275.38c0-.13.04-.41.13-.84l18.22-85.64c.39-1.82,1.49-2.72,3.31-2.72h37.67c5.4,0,10.11,1.04,14.13,3.11s7.1,4.98,9.24,8.72,3.21,8.03,3.21,12.87c0,2.38-.26,4.84-.78,7.39-1.21,5.58-3.34,10.28-6.39,14.1-3.05,3.83-6.9,7.12-11.57,9.89l9.4,31.83c.09.43.13.74.13.91,0,.69-.25,1.24-.75,1.65s-1.18.62-2.04.62h-21.78c-1.47,0-2.38-.67-2.72-2.01l-6.81-26.13h-10.31l-5.38,25.41c-.39,1.82-1.49,2.72-3.31,2.72h-21.33c-1.51,0-2.27-.63-2.27-1.88h0ZM543.39,223.9c1.84-1.69,3.02-3.76,3.53-6.22.17-.69.26-1.43.26-2.2,0-1.9-.6-3.34-1.78-4.31-1.19-.97-2.63-1.46-4.31-1.46h-11.41l-3.5,16.73h11.15c2.2,0,4.22-.84,6.06-2.53h0Z"/>
    </g>
    <g>
      <g>
        <rect class="st2" x="43.32" y="285.5" width="554.46" height=".75"/>
        <rect class="st2" x="38.87" y="282.48" width="6.68" height="6.68"/>
      </g>
      <g>
        <rect class="st2" x="9.43" y="144.92" width="1.05" height="171.4"/>
        <path class="st2" d="M470.48,140.2v1.05h152.05v-1.05h-152.05Z"/>
        <rect class="st2" x="322.19" y="320.01" width="300.35" height="1.04"/>
        <rect class="st2" x="14.11" y="140.2" width="333.59" height="1.05"/>
        <rect class="st2" x="14.11" y="320.01" width="300.35" height="1.04"/>
        <rect class="st2" x="626.03" y="144.92" width="1.04" height="171.4"/>
        <rect class="st2" x="346.18" y="140.2" width="125.85" height="1.05"/>
        <polygon class="st1" points="9.43 317.36 7.43 317.36 7.43 323 13.07 323 13.07 321.06 9.43 321.06 9.43 317.36"/>
        <rect class="st1" x="10.48" y="317.36" width="2.59" height="2.65"/>
        <polygon class="st1" points="9.43 321.06 13.07 321.06 13.07 320.01 10.48 320.01 10.48 317.36 9.43 317.36 9.43 321.06"/>
        <polygon class="st2" points="13.59 316.84 13.59 320.01 14.11 320.01 14.11 316.32 10.48 316.32 10.48 316.84 13.59 316.84"/>
        <polygon class="st2" points="13.59 323.52 6.91 323.52 6.91 316.84 9.43 316.84 9.43 316.32 6.39 316.32 6.39 324.04 14.11 324.04 14.11 321.06 13.59 321.06 13.59 323.52"/>
        <rect class="st2" x="13.59" y="320.01" width=".52" height="1.04"/>
        <rect class="st2" x="9.43" y="316.32" width="1.05" height=".52"/>
        <polygon class="st2" points="13.07 323 7.43 323 7.43 317.36 9.43 317.36 9.43 316.84 6.91 316.84 6.91 323.52 13.59 323.52 13.59 321.06 13.07 321.06 13.07 323"/>
        <polygon class="st2" points="10.48 316.84 10.48 317.36 13.07 317.36 13.07 320.01 13.59 320.01 13.59 316.84 10.48 316.84"/>
        <rect class="st2" x="9.43" y="316.84" width="1.05" height=".52"/>
        <rect class="st2" x="13.07" y="320.01" width=".52" height="1.04"/>
        <polygon class="st1" points="13.07 140.2 13.07 138.24 7.43 138.24 7.43 143.87 9.43 143.87 9.43 140.2 13.07 140.2"/>
        <rect class="st1" x="10.48" y="141.25" width="2.59" height="2.63"/>
        <polygon class="st1" points="9.43 140.2 9.43 143.87 10.48 143.87 10.48 141.25 13.07 141.25 13.07 140.2 9.43 140.2"/>
        <polygon class="st2" points="13.59 144.4 10.48 144.4 10.48 144.92 14.11 144.92 14.11 141.25 13.59 141.25 13.59 144.4"/>
        <polygon class="st2" points="6.91 144.4 6.91 137.72 13.59 137.72 13.59 140.2 14.11 140.2 14.11 137.19 6.39 137.19 6.39 144.92 9.43 144.92 9.43 144.4 6.91 144.4"/>
        <rect class="st2" x="9.43" y="144.4" width="1.05" height=".52"/>
        <rect class="st2" x="13.59" y="140.2" width=".52" height="1.05"/>
        <polygon class="st2" points="13.59 141.25 13.07 141.25 13.07 143.87 10.48 143.87 10.48 144.4 13.59 144.4 13.59 141.25"/>
        <polygon class="st2" points="7.43 143.87 7.43 138.24 13.07 138.24 13.07 140.2 13.59 140.2 13.59 137.72 6.91 137.72 6.91 144.4 9.43 144.4 9.43 143.87 7.43 143.87"/>
        <rect class="st2" x="13.07" y="140.2" width=".52" height="1.05"/>
        <rect class="st2" x="9.43" y="143.87" width="1.05" height=".52"/>
        <polygon class="st1" points="623.58 321.06 623.58 323 629.22 323 629.22 317.36 627.07 317.36 627.07 321.06 623.58 321.06"/>
        <rect class="st1" x="623.58" y="317.36" width="2.44" height="2.65"/>
        <polygon class="st1" points="627.07 321.06 627.07 317.36 626.03 317.36 626.03 320.01 623.58 320.01 623.58 321.06 627.07 321.06"/>
        <polygon class="st2" points="623.06 316.84 626.03 316.84 626.03 316.32 622.54 316.32 622.54 320.01 623.06 320.01 623.06 316.84"/>
        <polygon class="st2" points="629.74 316.84 629.74 323.52 623.06 323.52 623.06 321.06 622.54 321.06 622.54 324.04 630.26 324.04 630.26 316.32 627.07 316.32 627.07 316.84 629.74 316.84"/>
        <rect class="st2" x="622.54" y="320.01" width=".52" height="1.04"/>
        <rect class="st2" x="626.03" y="316.32" width="1.04" height=".52"/>
        <polygon class="st2" points="629.22 317.36 629.22 323 623.58 323 623.58 321.06 623.06 321.06 623.06 323.52 629.74 323.52 629.74 316.84 627.07 316.84 627.07 317.36 629.22 317.36"/>
        <polygon class="st2" points="623.06 320.01 623.58 320.01 623.58 317.36 626.03 317.36 626.03 316.84 623.06 316.84 623.06 320.01"/>
        <rect class="st2" x="626.03" y="316.84" width="1.04" height=".52"/>
        <rect class="st2" x="623.06" y="320.01" width=".52" height="1.04"/>
        <polygon class="st1" points="627.07 143.87 629.22 143.87 629.22 138.24 623.58 138.24 623.58 140.2 627.07 140.2 627.07 143.87"/>
        <rect class="st1" x="623.58" y="141.25" width="2.44" height="2.63"/>
        <polygon class="st1" points="626.03 141.25 626.03 143.87 627.07 143.87 627.07 140.2 623.58 140.2 623.58 141.25 626.03 141.25"/>
        <polygon class="st2" points="623.06 137.72 629.74 137.72 629.74 144.4 627.07 144.4 627.07 144.92 630.26 144.92 630.26 137.19 622.54 137.19 622.54 140.2 623.06 140.2 623.06 137.72"/>
        <polygon class="st2" points="623.06 144.4 623.06 141.25 622.54 141.25 622.54 144.92 626.03 144.92 626.03 144.4 623.06 144.4"/>
        <rect class="st2" x="626.03" y="144.4" width="1.04" height=".52"/>
        <rect class="st2" x="622.54" y="140.2" width=".52" height="1.05"/>
        <polygon class="st2" points="629.74 137.72 623.06 137.72 623.06 140.2 623.58 140.2 623.58 138.24 629.22 138.24 629.22 143.87 627.07 143.87 627.07 144.4 629.74 144.4 629.74 137.72"/>
        <polygon class="st2" points="623.58 143.87 623.58 141.25 623.06 141.25 623.06 144.4 626.03 144.4 626.03 143.87 623.58 143.87"/>
        <rect class="st2" x="626.03" y="143.87" width="1.04" height=".52"/>
        <rect class="st2" x="623.06" y="140.2" width=".52" height="1.05"/>
        <rect class="st1" x="315.51" y="317.36" width="5.63" height="2.65"/>
        <rect class="st1" x="315.51" y="321.06" width="5.63" height="1.94"/>
        <rect class="st1" x="315.51" y="320.01" width="5.63" height="1.04"/>
        <polygon class="st2" points="321.66 323.52 314.99 323.52 314.99 321.06 314.46 321.06 314.46 324.04 322.19 324.04 322.19 321.06 321.66 321.06 321.66 323.52"/>
        <polygon class="st2" points="314.99 316.84 321.66 316.84 321.66 320.01 322.19 320.01 322.19 316.32 314.46 316.32 314.46 320.01 314.99 320.01 314.99 316.84"/>
        <rect class="st2" x="321.66" y="320.01" width=".52" height="1.04"/>
        <rect class="st2" x="314.46" y="320.01" width=".52" height="1.04"/>
        <polygon class="st2" points="321.14 323 315.51 323 315.51 321.06 314.99 321.06 314.99 323.52 321.66 323.52 321.66 321.06 321.14 321.06 321.14 323"/>
        <polygon class="st2" points="314.99 316.84 314.99 320.01 315.51 320.01 315.51 317.36 321.14 317.36 321.14 320.01 321.66 320.01 321.66 316.84 314.99 316.84"/>
        <rect class="st2" x="314.99" y="320.01" width=".52" height="1.04"/>
        <rect class="st2" x="321.14" y="320.01" width=".52" height="1.04"/>
        <rect class="st1" x="315.51" y="138.04" width="5.63" height="2.65"/>
        <rect class="st1" x="315.51" y="141.74" width="5.63" height="1.94"/>
        <rect class="st1" x="315.51" y="140.69" width="5.63" height="1.04"/>
        <polygon class="st2" points="321.66 144.2 314.99 144.2 314.99 141.74 314.46 141.74 314.46 144.72 322.19 144.72 322.19 141.74 321.66 141.74 321.66 144.2"/>
        <polygon class="st2" points="314.99 137.52 321.66 137.52 321.66 140.69 322.19 140.69 322.19 137 314.46 137 314.46 140.69 314.99 140.69 314.99 137.52"/>
        <rect class="st2" x="314.46" y="140.69" width=".52" height="1.04"/>
        <polygon class="st2" points="321.14 143.68 315.51 143.68 315.51 141.74 314.99 141.74 314.99 144.2 321.66 144.2 321.66 141.74 321.14 141.74 321.14 143.68"/>
        <polygon class="st2" points="314.99 137.52 314.99 140.69 315.51 140.69 315.51 138.04 321.14 138.04 321.14 140.69 321.66 140.69 321.66 137.52 314.99 137.52"/>
        <rect class="st2" x="314.99" y="140.69" width=".52" height="1.04"/>
        <rect class="st2" x="321.14" y="140.69" width=".52" height="1.04"/>
      </g>
    </g>
    <g>
      <g>
        <circle class="st1" cx="23.64" cy="304.7" r="2.47"/>
        <path class="st2" d="M23.64,307.69c-1.65,0-2.99-1.34-2.99-2.99s1.34-2.99,2.99-2.99,2.99,1.34,2.99,2.99-1.34,2.99-2.99,2.99ZM23.64,302.76c-1.07,0-1.94.87-1.94,1.94s.87,1.94,1.94,1.94,1.94-.87,1.94-1.94-.87-1.94-1.94-1.94Z"/>
      </g>
      <circle class="st2" cx="23.64" cy="304.7" r=".98"/>
    </g>
    <g>
      <g>
        <g>
          <circle class="st1" cx="23.79" cy="154.63" r="2.47"/>
          <path class="st2" d="M23.79,157.62c-1.65,0-2.99-1.34-2.99-2.99s1.34-2.99,2.99-2.99,2.99,1.34,2.99,2.99-1.34,2.99-2.99,2.99ZM23.79,152.69c-1.07,0-1.94.87-1.94,1.94s.87,1.94,1.94,1.94,1.94-.87,1.94-1.94-.87-1.94-1.94-1.94Z"/>
        </g>
        <circle class="st2" cx="23.79" cy="154.63" r=".98"/>
      </g>
      <g>
        <g>
          <circle class="st1" cx="612.8" cy="154.63" r="2.47"/>
          <path class="st2" d="M612.8,157.62c-1.65,0-2.99-1.34-2.99-2.99s1.34-2.99,2.99-2.99,2.99,1.34,2.99,2.99-1.34,2.99-2.99,2.99ZM612.8,152.69c-1.07,0-1.94.87-1.94,1.94s.87,1.94,1.94,1.94,1.94-.87,1.94-1.94-.87-1.94-1.94-1.94Z"/>
        </g>
        <circle class="st2" cx="612.8" cy="154.63" r=".98"/>
        <g>
          <circle class="st1" cx="612.8" cy="305.6" r="2.47"/>
          <path class="st2" d="M612.8,308.59c-1.65,0-2.99-1.34-2.99-2.99s1.34-2.99,2.99-2.99,2.99,1.34,2.99,2.99-1.34,2.99-2.99,2.99ZM612.8,303.66c-1.07,0-1.94.87-1.94,1.94s.87,1.94,1.94,1.94,1.94-.87,1.94-1.94-.87-1.94-1.94-1.94Z"/>
        </g>
        <circle class="st2" cx="612.8" cy="305.6" r=".98"/>
      </g>
    </g>
  </g>
  <g>
    <polygon points="303.1 159.83 306 159.83 306 169.87 311.44 169.87 311.44 159.83 314.46 159.83 314.46 154.47 303.1 154.47 303.1 159.83"/>
    <path d="M331.68,159.17c-.41-.93-.98-1.77-1.7-2.49s-1.55-1.29-2.49-1.7c-1.91-.84-4.21-.83-6.11,0-.94.41-1.77.99-2.48,1.71-.71.72-1.26,1.56-1.66,2.49-.4.95-.61,1.96-.61,3.01s.21,2.1.61,3.05c.4.94.96,1.77,1.67,2.48.71.71,1.55,1.28,2.49,1.68.95.4,1.97.61,3.05.61s2.08-.2,3.03-.61c.93-.4,1.77-.96,2.49-1.66.73-.71,1.3-1.55,1.71-2.49.41-.95.62-1.98.62-3.06s-.21-2.07-.62-3.02h0ZM326.77,162.19c0,.36-.06.68-.18.98-.12.31-.29.57-.5.8-.2.21-.42.38-.69.5-.55.24-1.26.23-1.79,0-.29-.12-.53-.29-.75-.52-.22-.23-.39-.49-.51-.79-.12-.29-.18-.61-.18-.97,0-.38.06-.71.18-1.02.12-.3.28-.56.5-.79.21-.22.45-.39.73-.51.27-.12.56-.18.9-.18s.62.06.9.18.51.29.71.5c.22.23.39.5.51.81s.18.63.18,1h0Z"/>
  </g>
</svg>