<?xml version="1.0" encoding="UTF-8"?>
<svg id="Layer_1" xmlns="http://www.w3.org/2000/svg" version="1.1" viewBox="0 0 635.4 328.06">
  <!-- Generator: Adobe Illustrator 30.4.0, SVG Export Plug-In . SVG Version: 2.1.4 Build 226)  -->
  <defs>
    <style>
      .st0 {
        font-family: MortegaRegular, Mortega;
        font-size: 177.66px;
      }

      .st0, .st1 {
        fill: #0086ff;
      }

      .st2 {
        fill: #fff;
      }
    </style>
  </defs>
  <text class="st0" transform="translate(69.53 129.59)"><tspan x="0" y="0">sketched</tspan></text>
  <g>
    <g>
      <path d="M107.91,277.26h-17.63c-1.51,0-2.4-.73-2.66-2.21l-14.2-85.77c-.04-.13-.06-.32-.06-.58,0-.73.26-1.34.78-1.82.52-.48,1.23-.71,2.14-.71h21.33c1.56,0,2.4.76,2.53,2.27l5.19,50.83h.26l26.71-50.83c.78-1.51,1.97-2.27,3.57-2.27h24.83c1.3,0,1.94.48,1.94,1.43,0,.48-.19,1.04-.58,1.69l-50.57,85.77c-.86,1.47-2.05,2.21-3.57,2.21Z"/>
      <path d="M218.9,276.54c-.56.48-1.28.71-2.14.71h-62.43c-1.51,0-2.27-.63-2.27-1.88,0-.13.04-.41.13-.84l18.22-85.64c.17-.86.54-1.53,1.1-2.01.56-.48,1.3-.71,2.2-.71h61.46c1.47,0,2.2.65,2.2,1.94,0,.35-.02.61-.06.78l-4.02,18.67c-.17.87-.54,1.52-1.1,1.98-.56.45-1.28.68-2.14.68h-37.41l-2.14,10.05h28.2c.73,0,1.3.16,1.69.49.39.32.58.79.58,1.39,0,.13-.04.41-.13.84l-3.63,17.05c-.39,1.82-1.49,2.72-3.31,2.72h-28.2l-2.2,10.44h38.38c.73,0,1.3.16,1.69.49.39.32.58.77.58,1.33,0,.13-.04.41-.13.84l-3.95,18.67c-.22.87-.61,1.54-1.17,2.01Z"/>
      <path d="M254.23,273.59c-5.66-3.57-10.01-8.37-13.03-14.42-3.03-6.05-4.54-12.71-4.54-19.97,0-3.63.39-7.28,1.17-10.96,1.82-8.6,5.46-16.23,10.92-22.88,5.47-6.66,12.16-11.82,20.06-15.49,7.91-3.67,16.34-5.51,25.28-5.51,5.32,0,10.24.8,14.78,2.4,4.54,1.6,8.47,3.87,11.8,6.81.56.52.84,1.08.84,1.69,0,.69-.37,1.4-1.1,2.14l-15.82,16.21c-.78.78-1.56,1.17-2.33,1.17-.56,0-1.1-.19-1.62-.58-1.69-1.25-3.57-2.26-5.64-3.01-2.08-.76-4.21-1.13-6.42-1.13-3.54,0-7.08.95-10.6,2.85-3.52,1.9-6.58,4.5-9.17,7.78-2.59,3.29-4.3,6.92-5.12,10.89-.35,1.82-.52,3.41-.52,4.8,0,3.24.71,6.15,2.14,8.72,1.43,2.57,3.38,4.58,5.87,6.03s5.24,2.17,8.27,2.17c2.64,0,4.94-.29,6.9-.88s4.29-1.7,6.97-3.34c.73-.43,1.4-.65,2.01-.65.82,0,1.43.39,1.81,1.17l8.62,16.34c.26.52.39,1,.39,1.43,0,.82-.48,1.56-1.43,2.21-4.62,3.03-9.56,5.35-14.81,6.97-5.25,1.62-10.58,2.43-15.98,2.43-7.48,0-14.05-1.78-19.71-5.35Z"/>
      <path d="M355.49,277.26h-21.33c-1.51,0-2.27-.63-2.27-1.88,0-.13.04-.41.13-.84l13.48-63.47h-20.36c-.74,0-1.3-.16-1.69-.49-.39-.32-.58-.79-.58-1.39,0-.13.04-.41.13-.84l4.15-19.45c.17-.86.55-1.53,1.14-2.01.58-.48,1.31-.71,2.17-.71h67.55c1.47,0,2.2.65,2.2,1.94,0,.35-.02.61-.06.78l-4.15,19.45c-.22.87-.61,1.53-1.17,2.01-.56.48-1.28.71-2.14.71h-20.42l-13.48,63.47c-.39,1.82-1.49,2.72-3.31,2.72Z"/>
      <path d="M411.79,274.18c-6.12-3.22-10.82-7.84-14.1-13.87-3.29-6.03-4.93-13.15-4.93-21.36,0-9.12,2.36-17.88,7.07-26.29,4.71-8.41,11.21-15.21,19.48-20.42,8.28-5.21,17.45-7.81,27.52-7.81,8.3,0,15.51,1.63,21.65,4.89,6.14,3.26,10.85,7.94,14.13,14.03,3.29,6.09,4.93,13.29,4.93,21.59,0,9.08-2.36,17.77-7.07,26.09-4.71,8.32-11.21,15.06-19.48,20.23-8.28,5.16-17.47,7.75-27.58,7.75-8.3,0-15.51-1.61-21.62-4.83ZM448.84,249.8c3.63-2.23,6.5-5.25,8.62-9.08,2.12-3.83,3.18-8.01,3.18-12.54,0-3.76-.74-6.99-2.21-9.69-1.47-2.7-3.5-4.74-6.09-6.13-2.59-1.38-5.55-2.07-8.88-2.07-4.32,0-8.31,1.12-11.96,3.37-3.65,2.25-6.54,5.32-8.65,9.21s-3.18,8.15-3.18,12.77c0,3.72.73,6.89,2.21,9.53,1.47,2.64,3.5,4.62,6.09,5.96s5.55,2.01,8.88,2.01c4.37,0,8.36-1.11,11.99-3.34Z"/>
      <path d="M489.03,275.38c0-.13.04-.41.13-.84l18.22-85.64c.39-1.82,1.49-2.72,3.31-2.72h37.67c5.4,0,10.11,1.04,14.13,3.11s7.1,4.98,9.24,8.72c2.14,3.74,3.21,8.03,3.21,12.87,0,2.38-.26,4.84-.78,7.39-1.21,5.58-3.34,10.28-6.39,14.1-3.05,3.83-6.9,7.12-11.57,9.89l9.4,31.83c.09.43.13.74.13.91,0,.69-.25,1.24-.75,1.65-.5.41-1.18.62-2.04.62h-21.78c-1.47,0-2.38-.67-2.72-2.01l-6.81-26.13h-10.31l-5.38,25.41c-.39,1.82-1.49,2.72-3.31,2.72h-21.33c-1.51,0-2.27-.63-2.27-1.88ZM543.39,223.9c1.84-1.69,3.02-3.76,3.53-6.22.17-.69.26-1.43.26-2.2,0-1.9-.6-3.34-1.78-4.31-1.19-.97-2.63-1.46-4.31-1.46h-11.41l-3.5,16.73h11.15c2.2,0,4.22-.84,6.06-2.53Z"/>
    </g>
    <g>
      <g>
        <rect class="st1" x="43.32" y="285.5" width="554.46" height=".75"/>
        <rect class="st1" x="38.87" y="282.48" width="6.68" height="6.68"/>
      </g>
      <g>
        <rect class="st1" x="9.43" y="144.92" width="1.05" height="171.4"/>
        <path class="st1" d="M470.48,140.2s0,1.05,0,1.05h152.05v-1.05h-152.05Z"/>
        <rect class="st1" x="322.19" y="320.01" width="300.35" height="1.04"/>
        <rect class="st1" x="14.11" y="140.2" width="333.59" height="1.05"/>
        <rect class="st1" x="14.11" y="320.01" width="300.35" height="1.04"/>
        <rect class="st1" x="626.03" y="144.92" width="1.04" height="171.4"/>
        <rect class="st1" x="346.18" y="140.2" width="125.85" height="1.05"/>
        <polygon class="st2" points="9.43 317.36 7.43 317.36 7.43 323 13.07 323 13.07 321.06 9.43 321.06 9.43 317.36"/>
        <rect class="st2" x="10.48" y="317.36" width="2.59" height="2.65"/>
        <polygon class="st2" points="9.43 321.06 13.07 321.06 13.07 320.01 10.48 320.01 10.48 317.36 9.43 317.36 9.43 321.06"/>
        <polygon class="st1" points="13.59 316.84 13.59 320.01 14.11 320.01 14.11 316.32 10.48 316.32 10.48 316.84 13.59 316.84"/>
        <polygon class="st1" points="13.59 323.52 6.91 323.52 6.91 316.84 9.43 316.84 9.43 316.32 6.39 316.32 6.39 324.04 14.11 324.04 14.11 321.06 13.59 321.06 13.59 323.52"/>
        <rect class="st1" x="13.59" y="320.01" width=".52" height="1.04"/>
        <rect class="st1" x="9.43" y="316.32" width="1.05" height=".52"/>
        <polygon class="st1" points="13.07 323 7.43 323 7.43 317.36 9.43 317.36 9.43 316.84 6.91 316.84 6.91 323.52 13.59 323.52 13.59 321.06 13.07 321.06 13.07 323"/>
        <polygon class="st1" points="10.48 316.84 10.48 317.36 13.07 317.36 13.07 320.01 13.59 320.01 13.59 316.84 10.48 316.84"/>
        <rect class="st1" x="9.43" y="316.84" width="1.05" height=".52"/>
        <rect class="st1" x="13.07" y="320.01" width=".52" height="1.04"/>
        <polygon class="st2" points="13.07 140.2 13.07 138.24 7.43 138.24 7.43 143.87 9.43 143.87 9.43 140.2 13.07 140.2"/>
        <rect class="st2" x="10.48" y="141.25" width="2.59" height="2.63"/>
        <polygon class="st2" points="9.43 140.2 9.43 143.87 10.48 143.87 10.48 141.25 13.07 141.25 13.07 140.2 9.43 140.2"/>
        <polygon class="st1" points="13.59 144.4 10.48 144.4 10.48 144.92 14.11 144.92 14.11 141.25 13.59 141.25 13.59 144.4"/>
        <polygon class="st1" points="6.91 144.4 6.91 137.72 13.59 137.72 13.59 140.2 14.11 140.2 14.11 137.19 6.39 137.19 6.39 144.92 9.43 144.92 9.43 144.4 6.91 144.4"/>
        <rect class="st1" x="9.43" y="144.4" width="1.05" height=".52"/>
        <rect class="st1" x="13.59" y="140.2" width=".52" height="1.05"/>
        <polygon class="st1" points="13.59 141.25 13.07 141.25 13.07 143.87 10.48 143.87 10.48 144.4 13.59 144.4 13.59 141.25"/>
        <polygon class="st1" points="7.43 143.87 7.43 138.24 13.07 138.24 13.07 140.2 13.59 140.2 13.59 137.72 6.91 137.72 6.91 144.4 9.43 144.4 9.43 143.87 7.43 143.87"/>
        <rect class="st1" x="13.07" y="140.2" width=".52" height="1.05"/>
        <rect class="st1" x="9.43" y="143.87" width="1.05" height=".52"/>
        <polygon class="st2" points="623.58 321.06 623.58 323 629.22 323 629.22 317.36 627.07 317.36 627.07 321.06 623.58 321.06"/>
        <rect class="st2" x="623.58" y="317.36" width="2.44" height="2.65"/>
        <polygon class="st2" points="627.07 321.06 627.07 317.36 626.03 317.36 626.03 320.01 623.58 320.01 623.58 321.06 627.07 321.06"/>
        <polygon class="st1" points="623.06 316.84 626.03 316.84 626.03 316.32 622.54 316.32 622.54 320.01 623.06 320.01 623.06 316.84"/>
        <polygon class="st1" points="629.74 316.84 629.74 323.52 623.06 323.52 623.06 321.06 622.54 321.06 622.54 324.04 630.26 324.04 630.26 316.32 627.07 316.32 627.07 316.84 629.74 316.84"/>
        <rect class="st1" x="622.54" y="320.01" width=".52" height="1.04"/>
        <rect class="st1" x="626.03" y="316.32" width="1.04" height=".52"/>
        <polygon class="st1" points="629.22 317.36 629.22 323 623.58 323 623.58 321.06 623.06 321.06 623.06 323.52 629.74 323.52 629.74 316.84 627.07 316.84 627.07 317.36 629.22 317.36"/>
        <polygon class="st1" points="623.06 320.01 623.58 320.01 623.58 317.36 626.03 317.36 626.03 316.84 623.06 316.84 623.06 320.01"/>
        <rect class="st1" x="626.03" y="316.84" width="1.04" height=".52"/>
        <rect class="st1" x="623.06" y="320.01" width=".52" height="1.04"/>
        <polygon class="st2" points="627.07 143.87 629.22 143.87 629.22 138.24 623.58 138.24 623.58 140.2 627.07 140.2 627.07 143.87"/>
        <rect class="st2" x="623.58" y="141.25" width="2.44" height="2.63"/>
        <polygon class="st2" points="626.03 141.25 626.03 143.87 627.07 143.87 627.07 140.2 623.58 140.2 623.58 141.25 626.03 141.25"/>
        <polygon class="st1" points="623.06 137.72 629.74 137.72 629.74 144.4 627.07 144.4 627.07 144.92 630.26 144.92 630.26 137.19 622.54 137.19 622.54 140.2 623.06 140.2 623.06 137.72"/>
        <polygon class="st1" points="623.06 144.4 623.06 141.25 622.54 141.25 622.54 144.92 626.03 144.92 626.03 144.4 623.06 144.4"/>
        <rect class="st1" x="626.03" y="144.4" width="1.04" height=".52"/>
        <rect class="st1" x="622.54" y="140.2" width=".52" height="1.05"/>
        <polygon class="st1" points="629.74 137.72 623.06 137.72 623.06 140.2 623.58 140.2 623.58 138.24 629.22 138.24 629.22 143.87 627.07 143.87 627.07 144.4 629.74 144.4 629.74 137.72"/>
        <polygon class="st1" points="623.58 143.87 623.58 141.25 623.06 141.25 623.06 144.4 626.03 144.4 626.03 143.87 623.58 143.87"/>
        <rect class="st1" x="626.03" y="143.87" width="1.04" height=".52"/>
        <rect class="st1" x="623.06" y="140.2" width=".52" height="1.05"/>
        <rect class="st2" x="315.51" y="317.36" width="5.63" height="2.65"/>
        <rect class="st2" x="315.51" y="321.06" width="5.63" height="1.94"/>
        <rect class="st2" x="315.51" y="320.01" width="5.63" height="1.04"/>
        <polygon class="st1" points="321.66 323.52 314.99 323.52 314.99 321.06 314.46 321.06 314.46 324.04 322.19 324.04 322.19 321.06 321.66 321.06 321.66 323.52"/>
        <polygon class="st1" points="314.99 316.84 321.66 316.84 321.66 320.01 322.19 320.01 322.19 316.32 314.46 316.32 314.46 320.01 314.99 320.01 314.99 316.84"/>
        <rect class="st1" x="321.66" y="320.01" width=".52" height="1.04"/>
        <rect class="st1" x="314.46" y="320.01" width=".52" height="1.04"/>
        <polygon class="st1" points="321.14 323 315.51 323 315.51 321.06 314.99 321.06 314.99 323.52 321.66 323.52 321.66 321.06 321.14 321.06 321.14 323"/>
        <polygon class="st1" points="314.99 316.84 314.99 320.01 315.51 320.01 315.51 317.36 321.14 317.36 321.14 320.01 321.66 320.01 321.66 316.84 314.99 316.84"/>
        <rect class="st1" x="314.99" y="320.01" width=".52" height="1.04"/>
        <rect class="st1" x="321.14" y="320.01" width=".52" height="1.04"/>
        <rect class="st2" x="315.51" y="138.04" width="5.63" height="2.65"/>
        <rect class="st2" x="315.51" y="141.74" width="5.63" height="1.94"/>
        <rect class="st2" x="315.51" y="140.69" width="5.63" height="1.04"/>
        <polygon class="st1" points="321.66 144.2 314.99 144.2 314.99 141.74 314.46 141.74 314.46 144.72 322.19 144.72 322.19 141.74 321.66 141.74 321.66 144.2"/>
        <polygon class="st1" points="314.99 137.52 321.66 137.52 321.66 140.69 322.19 140.69 322.19 137 314.46 137 314.46 140.69 314.99 140.69 314.99 137.52"/>
        <rect class="st1" x="314.46" y="140.69" width=".52" height="1.04"/>
        <polygon class="st1" points="321.14 143.68 315.51 143.68 315.51 141.74 314.99 141.74 314.99 144.2 321.66 144.2 321.66 141.74 321.14 141.74 321.14 143.68"/>
        <polygon class="st1" points="314.99 137.52 314.99 140.69 315.51 140.69 315.51 138.04 321.14 138.04 321.14 140.69 321.66 140.69 321.66 137.52 314.99 137.52"/>
        <rect class="st1" x="314.99" y="140.69" width=".52" height="1.04"/>
        <rect class="st1" x="321.14" y="140.69" width=".52" height="1.04"/>
      </g>
    </g>
    <g>
      <g>
        <circle class="st2" cx="23.64" cy="304.7" r="2.47"/>
        <path class="st1" d="M23.64,307.69c-1.65,0-2.99-1.34-2.99-2.99s1.34-2.99,2.99-2.99,2.99,1.34,2.99,2.99-1.34,2.99-2.99,2.99ZM23.64,302.76c-1.07,0-1.94.87-1.94,1.94s.87,1.94,1.94,1.94,1.94-.87,1.94-1.94-.87-1.94-1.94-1.94Z"/>
      </g>
      <circle class="st1" cx="23.64" cy="304.7" r=".98"/>
    </g>
    <g>
      <g>
        <g>
          <circle class="st2" cx="23.79" cy="154.63" r="2.47"/>
          <path class="st1" d="M23.79,157.62c-1.65,0-2.99-1.34-2.99-2.99s1.34-2.99,2.99-2.99,2.99,1.34,2.99,2.99-1.34,2.99-2.99,2.99ZM23.79,152.69c-1.07,0-1.94.87-1.94,1.94s.87,1.94,1.94,1.94,1.94-.87,1.94-1.94-.87-1.94-1.94-1.94Z"/>
        </g>
        <circle class="st1" cx="23.79" cy="154.63" r=".98"/>
      </g>
      <g>
        <g>
          <circle class="st2" cx="612.8" cy="154.63" r="2.47"/>
          <path class="st1" d="M612.8,157.62c-1.65,0-2.99-1.34-2.99-2.99s1.34-2.99,2.99-2.99,2.99,1.34,2.99,2.99-1.34,2.99-2.99,2.99ZM612.8,152.69c-1.07,0-1.94.87-1.94,1.94s.87,1.94,1.94,1.94,1.94-.87,1.94-1.94-.87-1.94-1.94-1.94Z"/>
        </g>
        <circle class="st1" cx="612.8" cy="154.63" r=".98"/>
        <g>
          <circle class="st2" cx="612.8" cy="305.6" r="2.47"/>
          <path class="st1" d="M612.8,308.59c-1.65,0-2.99-1.34-2.99-2.99s1.34-2.99,2.99-2.99,2.99,1.34,2.99,2.99-1.34,2.99-2.99,2.99ZM612.8,303.66c-1.07,0-1.94.87-1.94,1.94s.87,1.94,1.94,1.94,1.94-.87,1.94-1.94-.87-1.94-1.94-1.94Z"/>
        </g>
        <circle class="st1" cx="612.8" cy="305.6" r=".98"/>
      </g>
    </g>
  </g>
  <g>
    <polygon points="303.1 159.83 306 159.83 306 169.87 311.44 169.87 311.44 159.83 314.46 159.83 314.46 154.47 303.1 154.47 303.1 159.83"/>
    <path d="M331.68,159.17c-.41-.93-.98-1.77-1.7-2.49-.72-.72-1.55-1.29-2.49-1.7-1.91-.84-4.21-.83-6.11,0-.94.41-1.77.99-2.48,1.71-.71.72-1.26,1.56-1.66,2.49-.4.95-.61,1.96-.61,3.01s.21,2.1.61,3.05c.4.94.96,1.77,1.67,2.48.71.71,1.55,1.28,2.49,1.68.95.4,1.97.61,3.05.61s2.08-.2,3.03-.61c.93-.4,1.77-.96,2.49-1.66.73-.71,1.3-1.55,1.71-2.49.41-.95.62-1.98.62-3.06s-.21-2.07-.62-3.02ZM326.77,162.19c0,.36-.06.68-.18.98-.12.31-.29.57-.5.8-.2.21-.42.38-.69.5-.55.24-1.26.23-1.79,0-.29-.12-.53-.29-.75-.52-.22-.23-.39-.49-.51-.79-.12-.29-.18-.61-.18-.97,0-.38.06-.71.18-1.02.12-.3.28-.56.5-.79.21-.22.45-.39.73-.51.27-.12.56-.18.9-.18s.62.06.9.18c.28.12.51.29.71.5.22.23.39.5.51.81.12.31.18.63.18,1Z"/>
  </g>
</svg>