<?xml version="1.0" encoding="UTF-8"?>
<svg id="Layer_1" xmlns="http://www.w3.org/2000/svg" version="1.1" viewBox="0 0 765.55 343.53">
  <!-- Generator: Adobe Illustrator 30.4.0, SVG Export Plug-In . SVG Version: 2.1.4 Build 226)  -->
  <defs>
    <style>
      .st0 {
        display: none;
        fill: #bbb;
      }

      .st1 {
        fill: #fff;
      }
    </style>
  </defs>
  <path class="st0" d="M234.09,559.4c-59.12-17.98-111.19-48.67-153.98-91.64-22.26-22.36-38.85-46.92-53.12-74.67-49.65-96.55-45.8-210.82,7.49-305.3,13.38-23.73,28.63-45.14,48.19-64.31C100.2,6.29,124.33,3.82,135.69-22.01l-21.97,17.45c2.36-5.05,6.67-9.99,7.29-13.21,1.07-5.5,1.18-10.87,4.89-14.69,41.99-43.09,104.72-91.05,164.43-98.63l70.8-3.64,28.24-1.91c41.34.27,81.01,13.82,115.82,36.41,61.12,39.67,129.64,101.34,159.2,168.2,11.73,26.53,20.75,52.18,27.37,80.34,17.43,74.23,7.56,149.34-26.65,217.2-9.03,17.92-19.72,33.25-31.01,49.7-8.06,11.75-16.25,22.29-26.1,32.85l-30.77,33.01c-10.1,10.84-18.13,22.85-29.87,32.46-32.8,26.86-72.14,44.15-114.38,50.17-64.05,9.13-136.19,14.77-198.89-4.3h0ZM648.76,141.12c.4,11.4,3.26,18.49,9.23,24.8l.47,45.78c2.65-9.98,2.78-19.7,3.38-30.49,2.43-43.35,2.45-104.81-17.09-141.3-5.93-11.08-8.6-22.66-13.19-34.04-8.66-21.48-26.12-37.23-40.96-54.4l-6.14-10.69c-32.83-33.66-71.86-58.88-116.75-72.84l-50.99-15.85-48.55-12.1-25.41.1c-8.77-2.61-17.65-4.5-26.26-1.79-13.42,4.23-25.57,3.52-39.74,4.62-9.01.7-19.26,5.35-28.51,7.76-16.3,4.24-31.29,11.55-46.34,18.73-12.02,5.74-24.07,9.88-34.64,17.93,24.04-9.61,45.68-19.39,70.22-26.01,50.11-13.52,100.74-14.71,150.85-2.01,15.09,3.82,27.46,9.73,41.09,16.05,111.84,51.85,192.4,152.04,191.83,278.52l14.98,15.35.76-40.66,7.72,44.26,4.03-31.73h.01ZM421.54-122.71c-35.32-16.49-73.53-18.88-113.08-16.86-60.6,5.79-120.84,27.64-166.05,69.12,85.01-62.98,175.85-82.56,279.13-52.26h0ZM240.21-129.7l43.44-9.39c-15.62-.6-30.37,2.97-43.44,9.39h0ZM60.12,20.18l30.16-58.96c-5.32,4.74-12.77,10.97-15.67,17.5-6.08,13.69-10.7,26.89-14.48,41.46h-.01ZM359.45,466.17c-8.1-2.62-16.92-6.08-25.89-7-32.64-3.34-63.54-9.97-93.72-22.49l-32.23-13.37c-31.13-12.91-62.49-28.26-87.55-51.68-22.64-21.16-39.15-47.2-57.1-72.07-8.76-12.14-11.95-26.03-18.34-39.16l-9.3-19.09c-4.74-9.73-3.97-21.74-3.99-32.54l-8.08-7.9,7.09-41.06c1.32-7.67,1.92-14.52,1.77-22.3-.3-15.43,3.02-30.23,6.6-45.31l-4.46-6.67,6.79-40.55v-15.3l-13.22,24.68-3.87-4.14c-8.35,24.67-13.01,50.81-14.69,78.03l-2.79,19.1c-1.29,8.81.13,16.79-1.35,25.59-6.79,40.5,10.64,81.55,27.53,118.13l7.82,16.95c5.38,19.12,15.7,31.75,28.3,46.15,32.36,36.97,76.57,81.09,124.14,93.95,7.86,2.13,15.02,7.83,22.5,10.98,19.35,8.14,40.43,8.78,61.31,9.46l18.56,3.19c21.44,2.15,42.42-1.57,64.18-5.58h0ZM453.61,208.16c-1-12.06.96-24.95,3.23-35.49,3.19-.63,7.38-1.62,7.32-3.21l-.25-7.17c-.17-5.03-.54-7.39-4.05-12.41l2.41-15.28,2.1,3.99c.33.62,3.17-.42,3.26-1.12l4.07-31.32,6.59-37.69.63-15.1c-5.7-4.5-13.56-5.7-20.34-7.04l-9.41-1.85-4.84,65.88-1.77,41.72c-2.74,3.13-8.94,4.63-14,5.28l3.27,11.37,12.53,4.8,1.61,30.32.86,57.19c9.47-6.38,9.93-15.14,9.15-24.42l-2.37-28.46h0ZM204.53,224.72l-2.4-13.25,6.41,1.13c-3.78-12.71,3.26-21.64,4.47-32.82,1.02-9.48-1.28-21.57-2.61-31.56l-2.52-18.97-3.77-40.35,58.98-33.81,3.42-2.75c.79-.64.1-3.79-.92-3.84l-5.7-.24c-24.69,7.29-47.42,18.3-69.68,31.34-5.66,3.07-10.27,4.21-17.67,5.12l-2.18,6.94-59.39,44.73-22.75,21.38c-.93.87-2.07,5.22-1.22,5.78l3,2,12.03.12,71.93-55.48,19.64,120.43c2.67,1.43,5.85,2.34,7.66,1.79s3.66-5.55,3.27-7.68h0ZM334.58,176.83l-1.19-17.19,14.16-1.62,5.84,59.53c1.64,16.68,8.6,30.39,11.43,27.2l4.23-4.77c4.91-5.53,5.42-11.03,5.49-18.56l.14-14.53c2.8-18.27,2.46-34.53,2.21-52.83l-.44-32.96-.79-54.24c-2.96-3.4-9.91-4.93-14.94-6.01l-15.56-3.36-2.66,11.4c-.19,25.65,1.14,49.51,3.19,75.13-3.73,2.12-10.64,2.63-12.85.59l-3.66-24.01-4.29-43.08c-1.05-10.56-15.42-14.4-23.8-14.51l-7.51-.1c-1.65-.02-1.94,5.92-2.17,7.6,4.83,37.58,10.56,73.57,17.41,110.79l4.86,29.68c.25,1.52,3.08,5.32,4.44,5.01,6.9-1.57,5.26-8.75,12.65-12.75l3.81-26.4h0ZM425.07,83.19l.77-23.53c-11-4.6-21.34-3.42-30.44,3.89-2.12,4.19-.34,13.53,3.69,17.25,4.4,4.06,8.76,5.44,15.3,6.41l6.55.97c1.22.18,4.09-3.76,4.13-4.99h0ZM283,221.18l16.09,42.36,1.93,5.04c.43,1.12,4.83-2.24,5.21-3.5,2.35-7.65-.17-20.03-1.47-28.39l-2.19-14.11-1.98-11.21-7.9-42.83-5.92-32.33c-3.91-21.37-8.28-41.84-17.13-61.55-10.07-2.53-20.31-3.53-28.62-.7,3.53,12.09,10.63,19.91,5.32,32.23l-3.99-15.27-6.35.54c-4.14,45.53-9.17,89.79-15.8,135.12-.31,2.09.28,6.51,1.9,7.04s5.49,1.15,7.48,1.27c11.61.66,20.64-5.91,21.3-17.4l1.15-20,22.1-1.04,8.87,24.73h0ZM500.52,125.87l6.81,3.62c1.14.61,4.62-2.48,5-3.72l10.12-33.39c-2.87-4.21-10.61-9.83-14.72-8.84l-12.54,3.01c-5.65,1.36-11.22,18.09-4.19,31.59,1.28,2.45,2.29,4.74,3.75,5.34l5.76,2.39h.01ZM421.89,193.42l.21-18.78.63-20.44,2.84-24.28c.39-3.36,1.9-7.59.84-9.75s-5.48-6.13-7.96-6.61l-23.78-4.54c-.68,16.37-.26,30,1.56,45.42l7.92,67.3c.46,3.87,3.19,8.78,7.29,8.72,3.02-5.75,4.06-12.36,4.9-19.73l4.07-.31,1.49-17.01h-.01ZM500.44,217.81l2.12-19.33,2.86-20.61,4.89-21.88c.62-2.75,2.65-6.47,2.64-8.59-.05-8-17.43-13.21-31.29-15.3l-2.68,19.3,1.33,96.69c-.12,1.42,3.81,6.57,5.11,5.58,8.69-6.59,3.73-21.97,11.87-19.31l3.15-16.57v.02h0Z"/>
  <path class="st1" d="M380.59,202.97l-5.78,40.08c-11.22,6.06-8.71,16.97-19.2,19.36-2.05.47-6.36-5.3-6.74-7.61l-7.38-45.06c-10.4-56.51-19.11-111.14-26.43-168.2.35-2.54.79-11.57,3.29-11.54l11.4.15c12.72.17,34.54,6.01,36.13,22.03l6.51,65.4,5.56,36.45c3.34,3.1,13.85,2.32,19.51-.9-3.11-38.9-5.13-75.12-4.84-114.06l4.04-17.31,23.62,5.1c7.64,1.65,18.2,3.96,22.68,9.12l1.2,82.35.67,50.04c.38,27.78.9,52.47-3.36,80.2l-.21,22.06c-.11,11.43-.88,19.77-8.33,28.18l-6.42,7.24c-4.3,4.84-14.86-15.97-17.35-41.29l-8.87-90.38-21.5,2.46,1.81,26.1v.02h-.01Z"/>
  <path class="st1" d="M302.28,270.3l-13.47-37.54-33.55,1.58-1.75,30.36c-1,17.44-14.71,27.42-32.34,26.42-3.02-.17-8.9-1.12-11.36-1.93s-3.34-7.51-2.88-10.69c10.07-68.82,17.7-136.01,23.99-205.13l9.64-.82,6.06,23.18c8.06-18.7-2.72-30.56-8.08-48.93,12.62-4.3,28.16-2.78,43.45,1.06,13.44,29.92,20.07,61,26.01,93.44l8.99,49.08,11.99,65.02,3.01,17.02,3.32,21.42c1.97,12.69,5.8,31.47,2.23,43.1-.59,1.91-7.26,7.01-7.91,5.31l-2.93-7.65-24.43-64.31h0ZM284.49,214.87l-13.89-59.68c-3.14-13.5-7.03-25.7-12.75-38.88l-.27,98.53c8.81,3.07,18.9,3.04,26.92.03h-.01Z"/>
  <path class="st1" d="M183.15,275.68c.58,3.23-2.23,10.82-4.96,11.66s-7.58-.55-11.63-2.72l-29.82-182.83L27.54,186.01l-18.26-.18-4.55-3.04c-1.29-.87.44-7.45,1.85-8.77l34.54-32.46,90.16-67.91,3.31-10.54c11.23-1.38,18.25-3.11,26.83-7.77,33.79-19.8,68.3-36.51,105.79-47.58l8.65.36c1.55.06,2.6,4.86,1.4,5.83l-5.19,4.17-89.54,51.33,5.72,61.26,3.83,28.8c2.02,15.18,5.51,33.54,3.96,47.91-1.82,16.97-12.52,30.55-6.79,49.83l-9.73-1.72,3.64,20.12v.02h0Z"/>
  <path class="st1" d="M568.88,253.57l-3.99,40.17c1.17,14.09-10.16,27.39-24.52,37.07l1.73-86.82.59-46.03,4.52-95.9,7.35-100.02,14.29,2.81c10.29,2.02,22.23,3.86,30.88,10.69l-.96,22.92-10,57.22-6.18,47.55c-.14,1.05-4.46,2.63-4.95,1.7l-3.19-6.06-3.66,23.2c5.33,7.62,5.89,11.2,6.15,18.84l.38,10.89c.09,2.41,1.32,6.95-3.52,7.91-3.45,16-6.42,35.57-4.9,53.88l-.02-.02h0Z"/>
  <path class="st1" d="M632.39,265.19l-4.78,25.16c-12.36-4.04-4.83,19.3-18.02,29.32-1.97,1.49-7.92-6.32-7.76-8.47l-2.02-146.79,4.07-29.3c21.04,3.17,47.44,11.07,47.5,23.23.02,3.22-3.07,8.87-4.01,13.04l-7.42,33.22-4.34,31.29-3.22,29.35v-.05Z"/>
  <path class="st1" d="M513.14,228.16l-2.26,25.82-6.18.47c-1.26,11.19-2.85,21.22-7.44,29.95-6.22.09-10.37-7.36-11.07-13.24l-12.02-102.17c-2.75-23.41-3.4-44.1-2.37-68.96l36.1,6.89c3.77.71,10.46,6.76,12.08,10.04s-.67,9.7-1.28,14.8l-4.31,36.86-.96,31.03-.32,28.51.02-.02v.02Z"/>
  <path class="st1" d="M632.51,125.61l-8.74-3.63c-2.22-.91-3.75-4.39-5.69-8.11-10.67-20.5-2.22-45.91,6.36-47.96l19.04-4.57c6.22-1.5,17.99,7.03,22.35,13.42l-15.36,50.69c-.58,1.88-5.86,6.57-7.59,5.65l-10.34-5.5h-.03Z"/>
  <path class="st1" d="M517.96,60.81c-.06,1.87-4.42,7.85-6.27,7.58l-9.94-1.47c-9.93-1.47-16.55-3.57-23.23-9.73-6.12-5.65-8.82-19.81-5.6-26.19,13.83-11.1,29.53-12.89,46.21-5.91l-1.17,35.72h0Z"/>
</svg>