<?xml version="1.0" encoding="UTF-8"?>
<svg xmlns="http://www.w3.org/2000/svg" version="1.1" viewBox="0 0 1000 467.94">
  <!-- Generator: Adobe Illustrator 30.4.0, SVG Export Plug-In . SVG Version: 2.1.4 Build 226)  -->
  <defs>
    <style>
      .st0 {
        fill="#fff";
      }

      .st1 {
        display: none;
      }
    </style>
  </defs>
  <g id="Layer_2" class="st1">
    <g>
      <path d="M172.91,259.82c-11.26,46.09-28.48,86.82,15.3,109.54,0,0-17.77-34.73,2.86-73.3,20.63-38.57,36.43-95.75-.87-139.28-31.4-36.65-27.03-49.66-27.03-49.66,0,0,12.25,19.73,43.05,30.57,32.96,11.6,33.63,53.77,33.63,53.77,0,0,20.25-25.25,14.87-67.41-5.38-42.16-29.41-105.64-3.75-138.09,0,0-2.76,22.12,19.4,57.96,20.48,33.12-9.81,53.8,6.13,127.99,14.75,68.67,70.74,60.23,70.74,60.23,0,0-40.26-22.29-46.65-76.13-6.13-51.65,23.41-74.06,5.19-123.8-8.16-22.29-46.22-54.63-18.84-115.14,0,0-58.37,14.99-75.42,75.09-17.04,60.1.06,112.13.06,112.13,0,0-25.68-4.19-67.62-62.21,0,0-33.5,60.99,11.14,124.95,25.86,37.05,27.45,53.22,17.79,92.78Z"/>
      <path d="M422.51,16.41c10.26,61.55-76.42,136.43-7.69,190.79,0,0-5.57-36.81,30.52-59.63,40.99-25.92,86.54-90.44,71.84-154.16-14.7-63.72-63.52-53.44-63.52-53.44,0,0,53.52,40.75,32.08,109.24-16.57,52.95-61.14,75.5-61.14,75.5,0,0,40.2-52.41,30.94-109.59s-62.5-88.24-105.86-65.9c0,0,62.57,5.64,72.83,67.19Z"/>
      <path d="M532.04,7c1.38,38.67-36.38,65.29,4.36,113.62,29.89,35.47,28.57,58.22,28.57,58.22,0,0,15.88-14.5,7.6-44.88-8.29-30.38-36.19-42.43-17-91.96,21.41-55.24-10.24-101.83-56.41-103.36,0,0,31.5,29.69,32.88,68.36Z"/>
      <path d="M575.04,3.24c-13.01,50.92-25.15,60.78-13.28,89.01,11.87,28.24,21.5,30.25,20.24,53.3,0,0,18.32-9.16,8.55-33.17-10.31-25.34-20.37-40.47,5.8-94.65.34-.71-1.33,62.93,29.05,86.27,24.34,18.7,29.24,14.26,29.24,14.26,0,0-13.03-27.07-12.47-51.15.74-31.43,24.19-78.38,21.33-97.2-2.86-18.82-12.32-21.88-22.14-39.06s-7.99-31.51-7.99-31.51c0,0-18.01,9-11.46,33.56,6.55,24.55,17.6,30.28,16.78,42.56-.82,12.28-14.92,45.54-18.41,69.22,0,0-3.75-7.19-3.91-26.83-.26-32.99-3.16-36.19-13.28-47.29-25.37-27.83-49.43-27.65-49.43-27.65,0,0,30.89,23.15,21.39,60.35Z"/>
      <path d="M821.07,16.89c-44.57-7.77-65.1,8.95-87.49,2.12-17.31-5.28-11.14-20.68-11.14-20.68,0,0-20.04,11.47-9.55,32.08,8.61,16.91,25.32,21.17,47.46,15.38,24.26-6.34,40.34-5.51,40.34-5.51,0,0-69.16,10.21-99.99,81.6,0,0-13.27-28.62-12.73-55.15,1.16-56.92,32.31-92.28,5.57-141.58,0,0,24.04,1.08,26.52,35.79,2.09,29.28,32.5,41.77,45.54,15.16,0,0-19.82,4.2-20.35-14.89-.53-19.09-6.36-54.62-41.36-66.81-35-12.2-57.27,2.12-57.27,2.12,0,0,29.7,36.06,29.17,66.28-.53,30.23-25.45,72.65-19.62,111.36,5.83,38.71,17.5,54.62,32.88,83.25,15.38,28.63,13.26,39.24,11.13,49.85,0,0,15.91-2.92,19.09-51.17,3.18-48.25,80.6-104.99,139.99-94.39,0,0,3.46-37.55-38.18-44.81Z"/>
      <path d="M296.41,289.38s-7.08,4.08-11.77,10.81c-4.69,6.72-7.01,16.08-19.76,19.21-20.73,5.08-37.93,23.96-37.93,23.96,0,0-9.7-7.76,6.46-35.55,16.16-27.79,14.14-27.38,19.96-44.83,0,0,12.82,19.17,27.48,16.15,16.96-3.49,15.83-16.48,15.83-16.48,0,0-13.7,2.11-21.25-8.49-11.83-16.6-11.63-53.65-49.77-45.89,0,0,12.28,7.76,8.4,20.68-3.88,12.93-10.99,36.2-25.21,56.24-14.22,20.04-27.88,44.6-14.3,76.92,13.57,32.32,25.29,40.08,41.45,40.72,0,0-8.58-14.88-1.94-25.86,7.5-12.41,18.05-20.05,40.35-27.76,0,0,10.23,35.51-2.05,56.84-12.28,21.33-44.91,50.27-51.79,85.56,0,0,4.62-38.3-20.77-58.41-22.71-17.99-31.67-28.44-39.43-48.48-7.76-20.04-24.56-23.92-33.61-20.04,0,0,18.75,3.23,18.1,29.09-.65,25.86,17.45,40.72,34.9,63.99,17.45,23.27-2.75,80.55,24.4,106.41,27.15,25.86,44.12,20.28,44.12,20.28,0,0-15.51-21.98-10.99-46.54s15.7-57.27,38.14-83.38c30.4-35.39,39.59-63.35,29.25-103.42-10.34-40.08-8.27-61.74-8.27-61.74Z"/>
      <path d="M676.93,264.58c21.31-33.96,27.56-75.18-12.39-113.81,0,0,14.37,36.72-15.57,56.54-19.43,12.87-30.06,12.63-30.06,12.63,0,0,22.04-18.67,24.74-42.63,2.71-24.12-1.4-43.57-16.71-61.55-15.32-17.98-29.61-30.46-30.18-52.28,0,0-21.4,15.52,3.94,53.58,16.24,24.38,32.3,68.95-11.65,95.58,0,0-14.44-24.46-45.42-41.18-31.3-16.89-30.11-46.72-29.44-64.7,0,0-35.4,24.35-9.23,69.39,16.56,28.51,41.5,24.62,59.71,58.01,10.16,18.62,4.27,47.78-.8,74.22-9.32,48.61-32.75,76.06-42.74,79.39,0,0,28.18,8.59,50.07-30.28,18.32-32.51,25.84-55.06,29.17-107,0,0,26.82,2.21,65.83-23.26,0,0,1.85,21.73-29.35,36.02-20.66,9.46-31.58,35.29-35.58,63.26-4,27.97-9.99,47.95-9.99,47.95,0,0,26.39-22.85,32.32-47.5,9.05-37.62,32.04-28.41,53.34-62.37Z"/>
      <path d="M794.99,157.66c-12.23,31.92-12.71,52.95-32.82,79.67-19.07,25.33-46.3,27.2-46.29,27.16,3.93-15.63,29.3-22.78,37.13-49.79,6.57-22.63-1.77-67.1,19.99-93.4,0,0-14.47-.04-28.97,18.09-14.51,18.14-6.3,53.5-26.25,77.08-19.95,23.58-46.59,51-34.54,89.81,0,0,18.31-11.77,46.25-15.42,37.45-4.89,55.23-37.13,55.23-37.13,0,0,21.6,27.91.13,59.85-44.18,65.7-10.81,124.31-90.06,136.38,0,0,6.6-35.74-9.01-71.85-12.53-29,66.8-40.38,75.77-78.26,0,0-31.1,17.09-67.88,24.15-50.76,9.75-53.03,43.12-39.29,68.07,11.21,20.36,13.85,58.01,3.57,66.59-19.55,16.34-39.98,22.63-39.98,22.63,0,0,57.13,30.83,125.13-7.25,68.01-38.08,27.99-52.64,74.36-140.55,45.1-85.52-11.02-91.57-3.45-140.64,9.09-58.98,21.59-68.83,21.59-68.83,0,0-26.53-3.04-40.59,33.64Z"/>
      <path d="M457.06,344.74c29.13-34.05,36.99-69.96,3.89-107.01-33.1-37.06-78.43-17.63-91.74-3.96,0,0,33.76,6.23,40.6,44.37,6.84,38.14-15.41,47.13-4.26,94.62,11.15,47.49,42.09,59.97,42.09,59.97,0,0-18.87-54.93,9.42-87.98ZM426.87,350.01c-6.86-20.21,3.25-33.77,6.94-57.14,5.67-35.93-13.92-49.79-13.92-49.79,20.06.11,57.53,39.77,25.31,77.25-17.27,20.09-18.33,29.68-18.33,29.68Z"/>
      <path d="M548.08,319.75c19.79-58.28,2.1-102.18-37.83-116.93-39.93-14.75-66.56,6.84-66.56,6.84,0,0,18.08,3.4,37.42,38.14,18,32.34,5.05,81.08-17.99,116.93-21.14,32.89-10.79,72.67,14.75,81.31,0,0-14.31-17.04-4.68-37.42,14.97-31.65,55.1-30.58,74.89-88.86ZM528.91,295.46c-7.3,35.39-35.27,56.87-35.27,56.87,0,0,11.68-16.64,18.69-56.84,7.92-45.44-22.7-74.28-22.7-74.28,27.85,1.33,46.7,38.31,39.29,74.25Z"/>
      <path d="M329.16,28.21c4.1,27.7-18.46,57.44-12.31,95.91,6.15,38.47,31.29,59.49,41.03,74.37,9.74,14.87,10.77,18.46,5.13,26.16,0,0,20-3.59,17.95-26.67-2.05-23.08-26.67-31.29-6.15-72.83s50.26-99.5,18.46-137.97c-31.8-38.47-81.55-18.46-96.42-.51,0,0,28.21,13.85,32.31,41.54ZM378.87,17.08c15.63,47.27-39.26,92.85-31.62,117.83,0,0-12.11-28.92-.14-59.05,16.91-42.56,12.34-70.7-6.52-83.96,0,0,26.74-9.75,38.28,25.17Z"/>
      <path d="M377.63,421.94c-17.05-11.52-22.27-18.72-23.54-31.31-2.04-20.22-7.93-28.82,14.54-46.69,25.8-20.52,47.06-36.44,25.48-81.77-15.9-33.39-54.93-12.16-70.31-14.36-15.38-2.2-25.82.55-31.86-9.89,0,0-4.39,13.73,14.83,23.07,19.22,9.34,0,29.66,2.75,62.07,2.75,32.41,12.29,85.9,24.93,104.02,12.63,18.13,27.61,11.79,38.24,19.98,15.7,12.09,13.18,27.05,13.18,27.05,0,0,22.42-31.47-8.24-52.18ZM340.94,334.9s-6.8-14.47-1.36-34.07c5.44-19.6,4.08-28.38,4.08-28.38,0,0,23.24-7.96,29.77,6.74,6.53,14.7,5.17,25.73-11.7,37.16-16.87,11.43-20.78,18.56-20.78,18.56Z"/>
    </g>
  </g>
  <g id="Layer_4" class="st1">
    <g>
      <path d="M968.87,154.34c-15.34-13.01-46.07,18.76-94.99,111.7,11.46-75.29,29.18-144.48,48.44-216.11l44.86-6.46-18.93-.91-1.83-1.4,19.2-1.7,24.25-2.05-15.98-3.91,18.55-2.93-61.5-7.72s9.9-26.9,14.56-40.23c1.03-2.96-2.14-5.86-5.26-5.63-15.76,1.2-31.29,7.54-43.21,15.06l-11.28,33.92-27.78,4.23c2.23-7.2,4.9-16.5,7.11-23.7.81-2.67-1.42-5.25-4.19-4.89-16.17,2.15-34.27,11.04-46.14,18.76l-8.11,24.78c-34.69,13.68-66.19,30.53-94.53,54.54-11.92,10.09-18.53,29.67-6.69,41.83,8.47,8.71,25.7,6.65,36.56,5.84,10.29-.77,14.03-7.97,12.73-17.38-.98-7.16,2.39-10.74,7.71-14.1,9.38-5.92,18.22-11.57,27.84-15.23-18.19,69.47-32.74,134.4-40.37,202.99-1.93,17.32-3.43,34.59.35,51.01,3.94,17.05,17.14,28.66,33.57,29.67,4.48.27,8.28-3.13,8.39-7.61.17-6.41-.95-12.24-1.75-19-2.37-20.19.32-40.53,3.16-61.43,10.27-75.93,27.01-148.82,47.62-222.7l32.6-10.37c-22.71,83.78-45.48,178.64-52.6,263.03-3.42,40.6,23.77,59.47,34.51,60.41,5.72.5,10.81-3.69,11.67-9.37,8.85-58.38,39.06-102.44,69.63-150.16-9.12,21.32-12.4,44.03-13.93,73.64-3.1,59.82,2.14,93.28,29.6,76.41,27.38-16.82,9.4-15.73,15.38-91.46,3.02-38.15,11.81-60.83,22-97.54h0c3.83-13.79-9.9-24.22-21.22-33.83Z"/>
      <path d="M245.58,123.78h.01c6.88-13.3,12.42-30.57,5.79-44.44-4.7-9.83-16.92-13.68-27.42-13.96-3.62-.1-7.16,1.13-10.02,3.36C108.2,151.58,35.38,302.64,9.48,431.22c-7.29,36.17,6,63.41,42.44,69.23,12.19,1.95,1.21-10.25,18.75-91.12,8.39-38.74,38.29-77.82,63.6-81.4,1.69-.24,3.13,1.23,2.96,2.93-4.31,46.25-1.13,111.81,23.12,125.42,2.39,1.34,7.76.99,10.48-.18,11.6-5,10.5-11.18,7.85-18.43-8.89-24.21-32.49-121.88,66.9-313.89ZM139.9,309.37c-.2,1.68-1.86,2.79-3.45,2.26h-.01c-9.95-3.25-23.27-2.89-31.8-.63-2.22.59-4.12-1.65-3.14-3.73l19.39-41.42s.04-.08.07-.13l13.35-24.89s.06-.11.1-.15l36.74-58.66c.13-.2.27-.36.43-.52,2.11-2,5.44.31,4.33,2.97-17.42,41.55-30.66,78.71-36,124.89Z"/>
      <path d="M396.4,407.75c17.16,7.62,37.32-5.74,36.05-14.84-9.03-64.94-3.52-103.25,16.04-160.1,10.62-30.88.74-36.06-7.58-33.56-24.63,7.39-37.34,12.8-51.21,34.26-22.34,34.58-44.07,75.97-60.88,113.08,2.01-32.32,6.39-60.76,14.88-90.65,4.16-14.64,12.24-35.86,11.81-44.25-.71-13.72-39.63-2.14-57.42,22.32-20.8,28.61-41.02,60.77-60.37,95.2,6.3-32.26,26.66-89.15,37.99-114.32,5.72-12.72-35.91-10.62-44.27,6-17.45,34.71-29.23,70.18-35.88,108.67-9.42,54.56-10.68,86.69,5.95,89.36,11.27,1.8,31.19-3.38,34.68-10.96,22.92-49.66,37.19-80.47,58.02-114.78-8.28,45.44-8.77,103.32,2.28,115.62,4.34,4.84,25.56,4.06,31.73,1.02,10.22-5.05,11.07-11.64,26.54-46.6,15.44-34.87,41.1-78.72,41.1-78.72-12.01,39.87-14.37,116.61.56,123.24h-.01Z"/>
      <path d="M467.37,377.72h.01c22.36,23.65,66.21,21.33,94.26-11.66,18.9-22.23,30.24-61.01,28.28-84.8-.89-10.83-7.19-18.25-19.22-20.59,10.25-8.19,12.61-20.16,13.79-32.85,1.49-15.89-6.17-29.25-22.09-34.3-39.97-9.94-72.64,19.32-92.89,57.49-16.6,31.27-34.8,92.18-2.15,126.71ZM495.03,296.85h0c12.76-44.8,36.86-70.67,48.22-69.63,13.25,1.2-17.93,38,5.81,49.94l11.31-8.39s-12.62,84.94-51.51,78.28c-13.85-2.37-22.73-18.96-13.82-50.19Z"/>
      <path d="M643.87,387.75h0c8.15.27,10.95-3.31,7.06-16.46-2.9-9.84-4.45-17.55.81-61.36,9.35-77.79,20.16-164.69,71.84-298.98,3.25-8.46-50.73,4.76-57.15,19.21-46.6,104.65-64.02,272.91-67.05,306.77-2.93,32.78,14.04,49.76,44.49,50.82Z"/>
      <path d="M429.43,435.42v.03c-11.68,4.8-23.41,10.46-30.78,20.63-5.84,8.06-2.89,24.07,4.52,29.93,12.16,9.62,27.98,12.41,42.9,9.14,2.57-5.56,3.99-11.91,5.3-19.99,62.99-25.2,129.4-36.59,196.7-30.18,13.18,1.26,23.23,2.99,37.78-1.76,2.9-.11,3.57-.78-1.31-3.29l15.82.54c-85.37-40.02-183.51-40.99-270.93-5.05Z"/>
      <path d="M744.04,172.62c-6.41-4.33-42.37,3.25-45.27,12.69-16.85,54.73-21.88,95.43-24.57,147.3-1.4,26.94,16.85,48.93,41.55,49.25,3.52.04,8.39-3.07,8.03-6.58-2.18-21.53-9.55-53.55,11.73-152.29h.01c8.21-38.08,15.44-45.71,8.53-50.37Z"/>
    </g>
  </g>
  <g id="Layer_3">
    <g>
      <path class="st0" d="M593.96,163.77l-1.6-109.95c-5.98-6.89-20.08-9.97-30.28-12.18l-31.53-6.81-5.4,23.11c-.39,52,2.31,100.35,6.46,152.29-7.55,4.3-21.59,5.34-26.05,1.2l-7.42-48.66-8.69-87.32c-2.12-21.38-31.26-29.18-48.24-29.41l-15.22-.2c-3.34-.04-3.93,12.02-4.4,15.41,9.77,76.18,21.4,149.12,35.29,224.56l9.85,60.16c.51,3.09,6.26,10.79,9,10.16,14-3.2,10.65-17.76,25.63-25.85l7.72-53.51.02-.02h0v-.03l-2.42-34.85,28.71-3.28,11.84,120.67c3.32,33.81,17.41,61.59,23.16,55.13l8.57-9.66c9.95-11.23,10.97-22.37,11.12-37.63l.28-29.45c5.69-37.02,4.99-69.99,4.49-107.08l-.89-66.81Z"/>
      <path class="st0" d="M444.2,369.53l-4.02-22.72-16.01-86.81-12.01-65.53c-7.94-43.31-16.79-84.8-34.73-124.75-20.41-5.13-41.16-7.16-58.01-1.42,7.15,24.52,21.54,40.36,10.79,65.32l-8.09-30.95-12.87,1.09c-8.39,92.28-18.59,181.99-32.03,273.87-.61,4.25.57,13.19,3.85,14.27,3.28,1.08,11.13,2.35,15.16,2.58,23.54,1.33,41.83-11.99,43.17-35.28l2.33-40.53,44.79-2.11,17.98,50.12h0l32.62,85.86,3.91,10.21c.86,2.27,9.77-4.53,10.56-7.08,4.76-15.53-.35-40.6-2.98-57.54l-4.44-28.6ZM344.85,292.64l.36-131.55c7.63,17.59,12.83,33.89,17.02,51.91l18.55,79.68h.02c-10.71,4.02-24.18,4.06-35.94-.04Z"/>
      <path class="st0" d="M252.27,180.3l-7.64-81.78,119.55-68.53,6.93-5.57c1.61-1.29.21-7.7-1.87-7.78l-11.55-.48c-50.05,14.79-96.13,37.09-141.24,63.53-11.45,6.22-20.83,8.52-35.82,10.37l-4.42,14.07-120.37,90.67-46.11,43.33c-1.89,1.77-4.2,10.55-2.47,11.71l6.07,4.06,24.38.24,145.81-112.45,39.81,244.1c5.41,2.9,11.89,4.75,15.53,3.63s7.39-11.25,6.62-15.57h0s0,0,0,0v-.03l-4.86-26.86,12.99,2.29c-7.65-25.75,6.64-43.88,9.07-66.53,2.06-19.18-2.59-43.7-5.29-63.96l-5.11-38.45Z"/>
      <path class="st0" d="M741.34,8.53l-9.81,133.54-6.03,128.03-.78,61.45-2.31,115.92c19.17-12.93,34.29-30.68,32.74-49.5l5.33-53.63h0l.03.03c-2.03-24.44,1.93-50.57,6.54-71.93,6.47-1.28,4.82-7.34,4.7-10.56l-.51-14.54c-.35-10.2-1.09-14.98-8.21-25.15l4.88-30.98,4.26,8.09c.65,1.24,6.42-.87,6.61-2.27l8.26-63.49,13.35-76.4,1.28-30.6c-11.55-9.12-27.49-11.57-41.23-14.27l-19.08-3.75Z"/>
      <path class="st0" d="M807.19,186.19l-5.44,39.12,2.7,195.98c-.22,2.88,7.73,13.3,10.36,11.31,17.61-13.38,7.56-44.54,24.06-39.15l6.38-33.59h0v.08l4.3-39.19,5.79-41.78,9.9-44.36c1.26-5.58,5.39-13.12,5.36-17.41-.08-16.24-35.33-26.78-63.42-31.02Z"/>
      <path class="st0" d="M679.05,148.56l-48.2-9.2c-1.37,33.18-.51,60.81,3.17,92.06l16.05,136.41c.93,7.85,6.47,17.79,14.78,17.67,6.13-11.66,8.25-25.05,9.93-39.99l8.26-.63,3.02-34.47h0v-.03l-.03.03.43-38.06,1.28-41.43,5.76-49.21c.81-6.81,3.87-15.38,1.71-19.76-2.16-4.38-11.09-12.45-16.12-13.41Z"/>
      <path class="st0" d="M833.74,168.66l11.67,4.84h0s.04,0,.04,0l13.8,7.34c2.31,1.23,9.36-5.03,10.13-7.54l20.51-67.67c-5.81-8.53-21.53-19.93-29.84-17.92l-25.42,6.1c-11.46,2.74-22.74,36.67-8.49,64.03,2.59,4.96,4.63,9.62,7.6,10.83Z"/>
      <path class="st0" d="M670.84,95.14l13.27,1.96c2.47.36,8.3-7.62,8.37-10.12h0l1.56-47.69c-22.28-9.32-43.23-6.93-61.7,7.89-4.31,8.52-.69,27.43,7.47,34.97,8.92,8.23,17.76,11.02,31.02,12.99Z"/>
    </g>
  </g>
</svg>