<?xml version="1.0" encoding="UTF-8"?>
<svg id="Layer_1" xmlns="http://www.w3.org/2000/svg" version="1.1" viewBox="0 0 801.14 372.84" fill="#fff">
  <!-- Generator: Adobe Illustrator 30.4.0, SVG Export Plug-In . SVG Version: 2.1.4 Build 226)  -->
  <path d="M161.72,346.73c-3.41-3.8-4.62-7.68-4.26-12.44l2.41-32,5.4-50.8,4.58-35.78,7.12-40.02,5.63-30.51-17.67,14.87-21.98,17.08-16.56,14c-9.83,8.31-19.36,16.17-28.78,24.96l-26.22,24.48-11.59,11.24c17.62-.9,34.17-.81,51.84,1.18l-7.8-27.25,8.95-6.82,8.4,9.76,33.55,41.03-22.99,19.14-38.1-3.88c-20.49-2.09-40.44-2.8-61.02-2.36l-17.49-.84-13.06-25.16c-.57-1.1,1.06-2.98,2.02-3.11l8.13-1.18,17.81-18.89,20.39-20.54,22.74-23.73c14.29-14.91,29.46-28.14,45.3-41.36l16.17-15.09c13.94-13.01,28.82-24.33,43.85-36.08l18.08-12.91c9.63,7.06,17.73,14.11,26.46,22.03l-3.36,20.97-6.31,36.04-10.38,60.94-3.72,24.68,18.52-34.36c10.7-19.85,21.34-39.16,33.27-58.29l17.16-25.74-21.93-17.26-19.43-16.05,6.78-13.93,8.36-14.38c.53-.91,2.41-2.1,3.4-2.6l34.26-6.67,27.86-5.22,73.89-12.91,55.07-7.7,52.23-5.4,57.66-3.95,37.31-1.51c20.75-.84,40.86,1.5,61.63,3.36l6.12,11.51-17.97,33.31,29.1-17.85,55.43-31.82,26.78-14.2,20.75,82.8,10.66,40.48,22.36.06-19.04,35.38-32.1-.28-22.69-.1c-31.5-.14-62.47.1-93.91,2.06l-10.88-.42-20.12-16.15c1.46-1.94,2.72-3.4,4.4-4.63l23.7-17.24,43.81-28.17c3.2-2.06,6.08-2.12,9.59-.58,1.35.25,3.39,1.27,3.8,2.91l-20.22,29.14,43.39-1.56,36.96-.44-13.54-42.01-9.72-29.12-13.28,7.17-35.72,20.42-17.85,10.86-25.49,16.67-28.35,19.87-11.55,8.47-24.78-3.57-.98-2.19,8.65-26.46,10.28-29.38,5.4-15.22.59-1.29c.11-.25-.22-.33-.91-.49l-32.43.35-45.21,2.2-39.19,3.27-66.09,7.76-12.96,96.59-5.06,39.54-2.79,22.2c-10.84,7.23-20.93,14.62-30.74,22.91-.66-2.1-1.23-4.38-1.25-6.68-.17-21.2.73-41.7,2.86-62.87l6.29-62.77,3.09-27.56,1.36-15.83-6.41.48-26.9,3.56-37.27,6.05-8.35,1.23c-.93-.11-1.82.4-.49.68l7.05,4.36,21.49,13.92c1.6,1.04,1.99,3.11.86,4.73l-13.05,18.78-22.17,32.7-14.03,22.13c-11.09,17.49-21.84,34.73-30.67,53.54l-23.42,49.87-8.06,20.8-11.99,36.68-5.17,16.72c-9.58-6.67-17.82-13.74-25.47-22.28Z"/>
  <path d="M659.2,226.19l.74,17.72,1.02,19.8c-7.78,11.99-15.87,22.79-25.34,34.29l-12.19-17.58-10.92-17.28-37.81-60.41-7.34,30.48-1.75,6.19c-.52.96-1.53,2.45-2.35,2.83-4.03,1.87-21.88-10.94-29.14-15.77l3.17-15.83-15.43,14.35-30.57,26.16-18.6,15.65-15.7,13.65c-2.43,2.11-6.39,3.47-9.62,2.46l-14.4-4.49-18.63-7.83,8.13-6.99,17.59-16.85,7.26-47.5c5.15-33.73,12.86-66.54,21.18-99.55l3.86-15.34c.4-1.59,2.29-3.34,3.72-4.21l23.83-2.55c2.19-.32,4.07.51,4.93,2.57l13.9,33.16,27.1-35.47c.81-.53,2.59-1.3,3.49-1.3l17.39-.02-14.04,45.38-9.22,26.9c-9.44,4.83-19.06,8.51-29.48,10.9l-19.26-31.39-2.6,9.44-8.01,41.5-7.77,40.44,12.58-9.44,27.64-21.81,26.65-20.36,12.14-10.54,3.57-8.05c.71-1.61,2.69-2.87,4.65-2.65l24.38,2.75,16.17,30.31,18.55,36.97,7.86,16.3,1.39-41.73c.07-1.97,1.5-3.51,3.19-4.15l13.81-5.18c1.2-.45,4.15-1.03,5.25-.43l17.43,9.59,27.31,17.5-3.03,9.66-36.93-4.1.24,11.8Z"/>
  <path d="M313.59,242.38c-.17-12.95.75-24.96,2.02-37.4l2.36-23.04-15.35,24.79c-6.01,9.7-11.58,19.03-16.43,29.39l-11.47,24.52-10.39,23.83-10.59,26.33c-6.9-5.21-12.98-10.99-17.78-17.92-3.54-5.11-4.12-10.84-1.78-16.59l11.13-24.9,19.28-37.52c16.4-31.92,35.86-62.57,59.93-89.08l6.12-5.52c1.83-1.65,3.86-1.65,5.79-.24,5.45,3.95,9.92,8.59,14.47,13.76l-.5,8c-5.21,32.84-7.09,65.47-7.33,98.75-.09,12.63-.63,24.51,1.48,37.16l28.6-23.02c4.26,3.97,8.12,8.35,11.7,13.17.35,1-.73,3.25-1.48,4.01l-13.65,13.93-20.66,21.45-16.29,16.67-19.59-18.26-.59-28.93.99-33.36Z"/>
  <path d="M429.79,208.88l-26.19,12.1c-.86.4-2.52.92-3.2.56-.78-.42-1.72-1.87-2.4-3.04l5.35-44.23,6.77-50,5.46-32.37c.59-3.53,1.81-5.15,5.5-5.75,9.57-1.56,18.9-3.04,28.75-3.47,1.37-.06,2.88,1.59,2.62,3.01l-4.95,27.57-4.26,25.13-4.4,26.74-6.25,36.48c-.43,2.5-1.44,5.03-2.8,7.27Z"/>
</svg>