<?xml version="1.0" encoding="UTF-8"?><svg id="Layer_1" xmlns="http://www.w3.org/2000/svg" viewBox="0 0 304.42 682.31"><defs><style>.cls-1,.cls-2{isolation:isolate;}.cls-2{fill:#ddb4d6;mix-blend-mode:darken;opacity:.7;}</style></defs><g class="cls-1"><g id="Layer_1-2"><path class="cls-2" d="M288.34,462.67c-3.86-6.94-9.06-14.11-17.34-17.28-10.64-4.16-21.47,1.64-26.94,10.85-10.74,17.9-11.68,45.17-8.34,65.17,2.79,15.25,9.04,30.94,21.22,40.99-10.67-16.9-11.57-37.04-8.9-56.1,1.38-9.33,4.06-18.54,7.94-26.5,1.41-2.79,3.09-5.82,5.08-8.2,1.94,4.68,3.29,9.85,4.35,15.32,1.74,8.77,3,18.16,4.09,27.65,2.29,18.32,2.56,37.07.05,55.23-1.88,12.52-4.68,25.1-11.22,35.13-.71,1.01-1.42,1.86-2.02,2.49-.8-1.04-1.57-2.13-2.37-3.29-6.63-9.99-11.77-20.93-16.49-32.29-13.6-33.78-25.68-68.44-37.48-103.02,7.14.94,14.4.4,21.61-1.81,23.87-7.49,32.35-32.16,29.13-55.09-.87-8.55-4.29-20.02-15.32-18.37-7.5,1.64-11.05,9.34-14.91,14.84-4.87,7.51-10.11,14.76-17.02,20.26-4.8,3.91-10.62,6.33-16.61,5.8-3.27-.26-6.08-1.35-8.9-2.8-5.34-2.27-12.93-.41-16.73,4.29-8.08,9.32-4.87,27.29-3.85,38.34,1.17,9.92,4.48,31.06,6,41.33,4.42,33.41,14.77,92.93-2.85,121.37-2.8,4.29-5.66,7.21-10.11,8.67-13.55,3-26.43-6.77-36.04-18.25,9.28-15.4,14.62-34.35,18.74-50.03,8.7-33.31,22.88-144-11.1-163.07-9.29-5.43-21-3.13-29.03,3.26-16.24,12.93-23.92,34.34-29.42,53.2-4.45,16.3-7.41,33.02-8.79,49.8-2.13,35.97,3.3,71.87,19.22,104.72-2.27-.5-4.5-1.59-6.65-3.38-6.18-5.06-10.46-12.21-13.95-19.67-3.09-6.68-5.62-14.02-7.65-21.67-8.21-31.41-6.27-66.56,1.16-98.37,10.53-44.96,35.67-86.76,70.41-117.54,1.16,4.42,2.48,8.81,3.98,13.16,5.58,16.38,18.58,44.14,36.84,49.11,7.86,1.64,19.24.98,21.46-8.86.79-4.06,0-6.9-1.01-10.24-1.86-5.79-4.82-10.71-6.9-16.3-6.71-18.34-9.25-38.16-8.36-57.81,2.28-1.05,4.66-2.07,7.12-3.04-1.05,26.36,2.86,54.32,21.29,61.4,10.08,3.95,22.33,2.55,31.3-3.18,14.37-9,23.02-25.42,22.59-42.32-.35-11.63-5.97-22.78-15.09-30.16-11.11-8.93-25.54-11.03-39.28-9.95.69-4.77,1.5-9.51,2.47-14.18,1.55-6.26,1.55-12.71-1.04-18.82-4.65-11.75-18.24-16.45-27.56-6.82-6.9,7.35-8.54,17.09-10.42,26.45-1.28,7.84-2.11,15.7-2.55,23.58-4.94,2.02-9.79,4.27-14.55,6.71l-.21-4.47c-.57-7.32-.5-14.64-4.43-21.47-3.26-5.89-10.96-9.69-17.72-8.48-5.18.76-8.56,3.19-11.67,5.34-3.29,2.41-5.86,5-8.88,7.53-8.19,7.06-26.97,21.58-37.61,18.93-.26-.12-.28-.19-.38-.3s-.29-.31-.55-.84c-1.74-3.69-1.41-10.27-.22-15.12,5.76-23.22,22.09-43.65,40.72-60.03,1.51,8.62,3.68,16.81,6.69,24.31,4.28,10.14,13.35,21.5,25.88,21.24,11.03.13,21.52-10.32,19.25-21.68-.41-2.4-1.52-4.48-2.64-6.5-.97-2.12-1.61-4.29-2.23-6.79-2.97-13.24-3.99-26.81-3.79-40.41,3.66-1.98,7.39-3.83,11.15-5.51.54,3.12,1.19,6.23,1.97,9.34,2.58,9.77,5.48,19.29,11.53,27.71,6.76,9.63,18.44,14.75,29.77,9.96,12.36-5.22,19.88-17.28,22.75-29.85,5.16-21.91-9.54-37.48-30.31-41.22-5.51-1.06-11.29-1.42-17.26-1.19,1.72-9.2,4.21-18.34,6.97-27.42,3.52-1.94,7.07-3.84,10.64-5.65,11.59-5.87,24.02-9.18,36.49-9.62,3.16-.06,6.18-.21,9.21.45,2.05.51,3.48,1.49,4.34,2.45.9,1.08,1.31,1.87,1.24,3.4-2.4,13.63-27.73,10.54-38.28,9.76,12.81,13.19,36.79,21.3,51.92,6.97,9.04-8.21,11.34-22.32,4.54-32.87-7.64-12.34-22.72-15.84-36.07-12.74-10.32,2.13-19.33,7.06-28.1,12.16-3.21,1.88-6.41,3.79-9.58,5.73,1.07-3.29,2.12-6.58,3.14-9.85,3.49-10.55,7.11-20.25,5.86-32.02-2.24-23.62-25.26-30.99-40.34-12.85-4.12,4.83-6.7,9.6-8.97,14.34-5.32,11.4-8.44,23.23-10.93,35.34-2.93,14.25-4.97,28.67-6.19,43.17-5.27,3.13-10.75,6.1-16.23,8.6,3.59-35.69,12.54-70.42,22.23-105.09,3.69-13.77,7.79-27.56,9.84-42.1,1.91-13.42.21-27.04-13.91-33.49-17.65-7.97-36.28,4.4-48.18,16.16-30.78,30.99-52.11,79.5-51.02,123.43.6,21.31,6.56,48.05,27.21,59.5,12.78,6.48,25.86,5.65,38.54,1.47-.03,2.66-.03,5.32,0,7.97-24.95,15.85-46.62,36.47-58.28,55.82-14.21,22.58-24.19,57.52-2.08,78.84,8.93,8.44,22.43,10.95,33.88,8.64,17.2-3.49,30.93-13.16,43.27-24.51.47,3.07.93,6.15,1.41,9.19-14.16,10.02-27.28,21.59-39.36,33.79-34.1,35.01-60.83,79.14-69.4,128-7.2,43.12-3.87,99.23,26.25,133.64,12.66,14.71,33.03,25.19,52.7,19.79,2.85-.81,5.54-1.87,8.07-3.13,8.24,10.19,18.24,19.01,30.16,24.69,26.61,12.71,54.79,6.83,71.37-18.1,22.89-34.95,16.18-82.74,8.51-120.89-3.84-18.25-8.83-36.26-13.55-54.11-2.54-10.04-5.51-20.46-6.49-30.56,11.31-1.42,20.58-8.18,29.61-15.55,6.54-5.32,14.61-13.49,20.76-19.39-1.23,21.29-6.9,33.63-32.53,37.14-1.88.29-4.14.43-6,.63l-9.95,2.01,3.3,5.65c17.75,50.24,29.58,101.88,46.34,152.61,3.11,7.82,6.68,16.25,14.92,20.67,1.99,1.13,5.23,2.02,8.29,2.11,2.37,0,4.79-.23,7.08-.81,8.22-1.94,14.98-7.32,20.13-13.61,29.8-37.71,27.27-119.51,6.11-160.95v.02ZM263.42,469.43c-.09.02-.21.03-.3.05.9-.73,1.69-1.09,1.67-.81-.02.16-.49.55-1.36.76h-.01ZM239.57,410.01s-.06.12-.28.27c-.34.17-.73.31-1.14.41.67-.47,1.38-.84,1.42-.67h0ZM189.16,325.13c15.16-2.8,29.86-.86,37.27,12.4,5.2,9.55,2.35,21.73-4.07,30.07-5.71,7.71-15.94,12.56-24.94,8.36-9.93-6.56-9.41-34.83-8.26-50.84h0ZM177.29,278.52s-.16.09-.34.15c.27-.2.43-.22.34-.15ZM169.06,296.35c1.16-4.05,2.37-8.12,4.06-11.95.86-1.8,1.69-3.4,2.78-4.69.74,1.83.98,4.55.48,6.4l-.13.55-.41,1.77c-1.24,5.51-2.62,13.03-3.7,21.52-2.18.57-4.34,1.21-6.48,1.87.91-5.22,2.04-10.39,3.4-15.46h0ZM166.18,414.67c0-.08.03-.28.14-.52-.02.43-.12.67-.14.52ZM151.75,339.69s.12-.07.17-.1c.5,12.86,1.95,25.69,4.22,38.42,1.12,5.84,2.58,11.71,4.44,17.42,1.01,3.06,2.57,6.97,3.64,9.97.85,2.51,1.71,4.92,2,7.34-1.2-.16-3.08-.59-4.36-1.01-.02-.03,0,0-.08-.07-5.44-3.65-8.79-9.74-11.78-15.74-7.03-15.1-9.71-31.53-11.07-48.16,4.18-2.85,8.44-5.55,12.82-8.08h0ZM172.02,96.49s.02.02-.12.08c.05-.02.08-.06.12-.08ZM167.07,203.14c5.92-1.67,11.92-2.71,17.76-2.63,11.38-.07,22.59,5.7,23.16,18.11.48,11.55-5.96,24.87-17.01,29.22-12.46,4.62-19.72-8.39-21.95-18.96-1.84-8.62-2.37-17.2-1.97-25.75h0ZM150.38,143.02c3.32-12.19,7.55-25.44,13.41-36.09.58-1.02,1.22-2.12,1.92-3.22-.55,2.94-1.42,5.99-2.3,8.46-4.9,14.49-9.19,29.65-11.77,45.05-1.74,1.23-3.64,2.57-5.64,3.95,1.29-6.08,2.76-12.14,4.4-18.15h-.01ZM142.26,182.4c.29-2.08.6-4.16.93-6.25,2.16-1.35,4.34-2.69,6.5-4.02-.43,4.87-.65,9.76-.63,14.64-2.51.58-5.04,1.26-7.56,2,.23-2.13.49-4.26.76-6.37h0ZM129.48,258.8c.84,3.04,1.93,6.41,3.45,9.45.72,1.7,2.33,2.8,1.23,4.85-2.81,4.72-8.51,3.83-12.49-.28-2.44-2.37-4.5-5.78-6.18-9.46-3.7-9.1-5.85-18.72-6.98-28.57,2.41-1.83,4.82-3.58,7.22-5.28,2.84-1.94,5.73-3.87,8.65-5.75.64,11.79,2.11,23.53,5.08,35.04ZM124.41,187.78c-.12,2.33-.22,4.65-.3,6.99v.27c-5.5,2.33-10.98,4.97-16.37,7.85.08-1.95.19-3.9.3-5.84,5.62-2.83,11.1-6.05,16.38-9.28h-.01ZM112.22,27.06c.06.27.09.55.15.81-.2-.4-.29-.7-.34-.86-.09-.47.07-.3.2.05h-.01ZM66.17,185.03c-16.56-16.04.99-69.34,7.93-88.93,5.87-15.4,13.61-30.64,22.89-44.12,4.21-6.11,9.29-12.33,14.59-16.91.42-.38.9-.76,1.37-1.11.06,4.09-.4,8.32-.69,12.61-2.73,27.16-7.86,54.39-11.64,81.69-2.47,17.94-5.26,39.02-6.37,60.4-10.9,2.88-20.9,2.57-28.09-3.64h.01ZM107.17,311.95c0-.09.07.03.15.26.06.13.12.34.17.55-.15-.29-.27-.57-.33-.8ZM81.51,521.55c.05-10.96.31-22.04,1.61-32.86,1.98-16.45,5.76-34.34,14.33-48.33,3.42-5.27,9.74-13.66,16.34-10.72,3.79,2.26,5.71,6.9,7.6,11.72,12.98,36.33,5.35,124.74-20.53,165.31-13.3-25.69-19.48-56.12-19.33-85.12h-.01ZM172.83,452.32c.95.08,1.91.13,2.84.13-1.08.29-2.19.28-2.84-.13ZM259.4,610.77c-.37-.33-.72-.67-1.07-1.04.74.31,1.37.72,1.79,1.26.17.33-.24.16-.72-.22Z"/></g></g></svg>