<?xml version="1.0" encoding="UTF-8"?>
<svg xmlns="http://www.w3.org/2000/svg" version="1.1" viewBox="0 0 428.06 1000" fill="fff">
  <!-- Generator: Adobe Illustrator 30.4.0, SVG Export Plug-In . SVG Version: 2.1.4 Build 226)  -->
  <defs>
    <style>
      .st0 {
        fill="#fff";
      }

      .st1 {
        display: none;
      }
    </style>
  </defs>
  <g id="Layer_2" class="st1">
    <g>
      <path d="M-162.78,523.53c-12.51,51.22-31.64,96.48,17,121.73,0,0-19.75-38.59,3.18-81.46,22.93-42.87,40.48-106.41-.97-154.78-34.9-40.73-30.04-55.18-30.04-55.18,0,0,13.61,21.92,47.84,33.97,36.63,12.89,37.37,59.75,37.37,59.75,0,0,22.51-28.06,16.53-74.92-5.98-46.85-32.68-117.39-4.17-153.46,0,0-3.07,24.58,21.56,64.41,22.76,36.8-10.9,59.79,6.81,142.23,16.39,76.31,78.62,66.93,78.62,66.93,0,0-44.74-24.77-51.84-84.6-6.81-57.4,26.02-82.3,5.77-137.57-9.07-24.77-51.37-60.71-20.93-127.95,0,0-64.87,16.66-83.81,83.45-18.94,66.79.07,124.61.07,124.61,0,0-28.54-4.65-75.15-69.13,0,0-37.22,67.78,12.38,138.85,28.73,41.17,30.51,59.14,19.77,103.1Z"/>
      <path d="M114.59,253.03c11.4,68.39-84.92,151.61-8.55,212.02,0,0-6.19-40.9,33.92-66.26,45.55-28.81,96.17-100.51,79.83-171.31-16.34-70.81-70.59-59.39-70.59-59.39,0,0,59.47,45.29,35.65,121.39-18.42,58.84-67.94,83.9-67.94,83.9,0,0,44.67-58.24,34.39-121.78-10.29-63.55-69.45-98.06-117.64-73.24,0,0,69.53,6.27,80.93,74.66Z"/>
      <path d="M236.31,242.58c1.53,42.97-40.43,72.56,4.84,126.27,33.22,39.42,31.75,64.69,31.75,64.69,0,0,17.65-16.11,8.44-49.88-9.21-33.76-40.22-47.15-18.89-102.19,23.79-61.39-11.38-113.16-62.68-114.86,0,0,35.01,33,36.54,75.97Z"/>
      <path d="M284.1,238.4c-14.46,56.58-27.95,67.54-14.76,98.92,13.19,31.38,23.89,33.61,22.49,59.23,0,0,20.36-10.17,9.5-36.86-11.46-28.16-22.64-44.97,6.45-105.18.38-.78-1.47,69.93,32.29,95.87,27.05,20.78,32.5,15.85,32.5,15.85,0,0-14.48-30.09-13.85-56.84.82-34.93,26.88-87.1,23.7-108.02-3.18-20.92-13.7-24.31-24.61-43.41-10.91-19.1-8.88-35.02-8.88-35.02,0,0-20.01,10-12.73,37.29,7.28,27.28,19.55,33.65,18.64,47.29-.91,13.64-16.58,50.61-20.46,76.92,0,0-4.17-7.99-4.34-29.82-.29-36.66-3.51-40.22-14.76-52.56-28.19-30.92-54.93-30.72-54.93-30.72,0,0,34.33,25.73,23.77,67.07Z"/>
      <path d="M557.5,253.56c-49.53-8.64-72.35,9.95-97.23,2.36-19.24-5.87-12.37-22.98-12.37-22.98,0,0-22.27,12.74-10.61,35.65,9.57,18.79,28.14,23.52,52.74,17.09,26.96-7.05,44.83-6.13,44.83-6.13,0,0-76.85,11.35-111.12,90.69,0,0-14.75-31.8-14.14-61.28,1.29-63.26,35.91-102.55,6.18-157.34,0,0,26.71,1.2,29.47,39.78,2.32,32.54,36.12,46.42,50.6,16.85,0,0-22.03,4.66-22.61-16.55-.59-21.21-7.07-60.69-45.96-74.25-38.89-13.55-63.64,2.36-63.64,2.36,0,0,33,40.07,32.41,73.66-.59,33.59-28.28,80.73-21.8,123.75,6.48,43.02,19.45,60.69,36.53,92.51,17.09,31.82,14.73,43.61,12.37,55.39,0,0,17.68-3.24,21.21-56.87,3.54-53.62,89.57-116.68,155.57-104.89,0,0,3.85-41.73-42.43-49.79Z"/>
      <path d="M-25.54,556.37s-7.86,4.54-13.08,12.01c-5.22,7.47-7.79,17.87-21.96,21.35-23.03,5.65-42.15,26.63-42.15,26.63,0,0-10.77-8.62,7.18-39.51,17.96-30.89,15.71-30.43,22.18-49.82,0,0,14.25,21.3,30.54,17.94,18.85-3.88,17.59-18.31,17.59-18.31,0,0-15.22,2.34-23.61-9.43-13.14-18.45-12.93-59.62-55.31-51,0,0,13.65,8.62,9.34,22.99-4.31,14.37-12.21,40.23-28.01,62.49-15.8,22.27-30.98,49.56-15.89,85.48,15.08,35.92,28.11,44.53,46.06,45.25,0,0-9.53-16.53-2.15-28.73,8.34-13.79,20.05-22.28,44.84-30.85,0,0,11.37,39.47-2.27,63.17-13.65,23.7-49.91,55.87-57.56,95.08,0,0,5.13-42.56-23.08-64.91-25.24-19.99-35.2-31.61-43.82-53.87-8.62-22.27-27.3-26.58-37.35-22.27,0,0,20.83,3.59,20.11,32.32-.72,28.73,19.39,45.25,38.79,71.11,19.39,25.86-3.06,89.51,27.11,118.25,30.17,28.73,49.03,22.54,49.03,22.54,0,0-17.24-24.42-12.21-51.72,5.03-27.3,17.45-63.64,42.38-92.66,33.79-39.33,44-70.39,32.51-114.93-11.49-44.53-9.19-68.61-9.19-68.61Z"/>
      <path d="M397.32,528.81c23.68-37.74,30.63-83.55-13.77-126.47,0,0,15.97,40.8-17.31,62.83-21.6,14.3-33.41,14.03-33.41,14.03,0,0,24.49-20.75,27.49-47.38,3.02-26.8-1.55-48.42-18.57-68.4-17.02-19.98-32.91-33.85-33.54-58.1,0,0-23.78,17.25,4.38,59.54,18.04,27.1,35.89,76.62-12.95,106.22,0,0-16.04-27.18-50.48-45.77-34.78-18.77-33.46-51.91-32.72-71.89,0,0-39.34,27.06-10.26,77.11,18.41,31.68,46.11,27.36,66.36,64.47,11.29,20.69,4.74,53.1-.89,82.48-10.36,54.02-36.39,84.53-47.49,88.23,0,0,31.31,9.54,55.64-33.65,20.35-36.13,28.72-61.19,32.42-118.91,0,0,29.8,2.45,73.15-25.85,0,0,2.06,24.15-32.61,40.02-22.96,10.52-35.09,39.22-39.53,70.3-4.44,31.08-11.1,53.28-11.1,53.28,0,0,29.32-25.39,35.91-52.79,10.05-41.8,35.6-31.57,59.28-69.31Z"/>
      <path d="M528.52,410c-13.59,35.47-14.12,58.84-36.47,88.53-21.19,28.15-51.45,30.22-51.44,30.18,4.37-17.37,32.56-25.32,41.27-55.33,7.3-25.15-1.97-74.57,22.22-103.79,0,0-16.07-.05-32.2,20.11-16.12,20.15-7.01,59.45-29.17,85.65-22.17,26.2-51.77,56.67-38.39,99.81,0,0,20.35-13.08,51.39-17.13,41.61-5.43,61.37-41.27,61.37-41.27,0,0,24.01,31.02.14,66.51-49.1,73.01-12.02,138.15-100.08,151.56,0,0,7.33-39.72-10.01-79.84-13.93-32.23,74.23-44.87,84.2-86.97,0,0-34.56,18.99-75.44,26.84-56.41,10.83-58.93,47.92-43.67,75.64,12.46,22.63,15.39,64.46,3.97,74-21.73,18.15-44.43,25.14-44.43,25.14,0,0,63.48,34.26,139.06-8.06,75.58-42.32,31.11-58.49,82.63-156.19,50.12-95.03-12.24-101.76-3.84-156.29,10.1-65.54,23.99-76.49,23.99-76.49,0,0-29.49-3.38-45.11,37.38Z"/>
      <path d="M152.99,617.89c32.37-37.84,41.11-77.74,4.33-118.92-36.78-41.18-87.16-19.59-101.95-4.4,0,0,37.52,6.93,45.11,49.3,7.6,42.38-17.13,52.37-4.73,105.15,12.39,52.77,46.78,66.64,46.78,66.64,0,0-20.97-61.04,10.47-97.77ZM119.44,623.76c-7.63-22.46,3.61-37.53,7.71-63.49,6.3-39.93-15.47-55.34-15.47-55.34,22.29.13,63.93,44.19,28.13,85.84-19.19,22.33-20.37,32.99-20.37,32.99Z"/>
      <path d="M254.14,590.13c21.99-64.77,2.33-113.55-42.04-129.94-44.38-16.39-73.96,7.6-73.96,7.6,0,0,20.09,3.77,41.58,42.38,20.01,35.94,5.61,90.11-19.99,129.94-23.49,36.55-11.99,80.76,16.39,90.36,0,0-15.91-18.94-5.2-41.58,16.63-35.17,61.23-33.98,83.22-98.75ZM232.83,563.13c-8.11,39.33-39.19,63.2-39.19,63.2,0,0,12.98-18.49,20.77-63.17,8.8-50.49-25.23-82.54-25.23-82.54,30.95,1.48,51.89,42.57,43.66,82.51Z"/>
      <path d="M10.86,266.14c4.56,30.78-20.52,63.84-13.68,106.58,6.84,42.75,34.77,66.11,45.6,82.64,10.83,16.53,11.97,20.52,5.7,29.07,0,0,22.23-3.99,19.95-29.64-2.28-25.65-29.64-34.77-6.84-80.93,22.8-46.17,55.86-110.57,20.52-153.32-35.34-42.75-90.62-20.52-107.15-.57,0,0,31.35,15.39,35.91,46.17ZM66.09,253.78c17.36,52.53-43.63,103.18-35.13,130.94,0,0-13.46-32.14-.16-65.62,18.79-47.3,13.72-78.56-7.25-93.3,0,0,29.72-10.84,42.54,27.97Z"/>
      <path d="M64.72,703.68c-18.95-12.8-24.75-20.8-26.16-34.79-2.26-22.47-8.81-32.03,16.16-51.88,28.68-22.8,52.3-40.5,28.31-90.86-17.67-37.1-61.04-13.51-78.13-15.96-17.09-2.44-28.69.61-35.4-10.99,0,0-4.88,15.26,16.48,25.64,21.36,10.38,0,32.96,3.05,68.98,3.05,36.01,13.66,95.45,27.7,115.6,14.04,20.14,30.68,13.1,42.5,22.21,17.44,13.44,14.65,30.06,14.65,30.06,0,0,24.91-34.97-9.16-57.99ZM23.95,606.96s-7.56-16.08-1.51-37.86c6.05-21.78,4.53-31.54,4.53-31.54,0,0,25.82-8.84,33.08,7.49,7.26,16.33,5.75,28.59-13.01,41.29-18.75,12.7-23.09,20.62-23.09,20.62Z"/>
    </g>
  </g>
  <g id="Layer_5">
    <path class="st0" d="M375.39,643.98c-4.55-8.17-10.66-16.59-20.4-20.33-12.52-4.9-25.25,1.92-31.68,12.76-12.62,21.05-13.74,53.13-9.8,76.65,3.29,17.94,10.63,36.39,24.95,48.21-12.54-19.88-13.61-43.55-10.46-65.98,1.63-10.98,4.78-21.8,9.34-31.16,1.66-3.28,3.65-6.84,5.97-9.64,2.29,5.5,3.87,11.59,5.12,18.01,2.06,10.31,3.54,21.36,4.82,32.52,2.7,21.54,3.01,43.6.06,64.96-2.21,14.72-5.5,29.53-13.2,41.31-.83,1.19-1.66,2.19-2.38,2.93-.94-1.21-1.85-2.5-2.8-3.87-7.8-11.75-13.84-24.61-19.4-37.98-16-39.72-30.21-80.5-44.09-121.18,8.41,1.1,16.94.46,25.42-2.14,28.07-8.81,38.05-37.83,34.26-64.8-1.03-10.06-5.04-23.55-18.01-21.6-8.82,1.93-13,10.98-17.54,17.46-5.74,8.83-11.88,17.36-20.02,23.84-5.64,4.6-12.49,7.45-19.54,6.82-3.85-.3-7.16-1.59-10.46-3.3-6.27-2.67-15.21-.49-19.67,5.05-9.51,10.96-5.73,32.1-4.53,45.09,1.38,11.67,5.27,36.52,7.06,48.6,5.2,39.29,17.37,109.29-3.35,142.74-3.29,5.05-6.66,8.48-11.89,10.2-15.94,3.53-31.09-7.96-42.39-21.46,10.92-18.11,17.19-40.4,22.04-58.84,10.23-39.19,26.91-169.36-13.05-191.79-10.93-6.39-24.69-3.68-34.15,3.83-19.09,15.22-28.13,40.39-34.6,62.58-5.23,19.16-8.71,38.84-10.34,58.57-2.5,42.3,3.89,84.54,22.59,123.17-2.66-.59-5.29-1.88-7.82-3.98-7.26-5.95-12.3-14.37-16.41-23.13-3.63-7.85-6.61-16.49-9-25.48-9.66-36.94-7.37-78.28,1.36-115.7,12.38-52.87,41.96-102.05,82.81-138.24,1.37,5.19,2.91,10.36,4.68,15.48,6.57,19.26,21.85,51.92,43.33,57.76,9.25,1.92,22.63,1.14,25.24-10.42.93-4.78,0-8.11-1.19-12.04-2.19-6.82-5.67-12.6-8.12-19.17-7.89-21.57-10.88-44.88-9.84-68,2.68-1.23,5.48-2.44,8.37-3.57-1.23,31,3.36,63.89,25.04,72.22,11.87,4.66,26.27,2.99,36.81-3.74,16.9-10.59,27.07-29.89,26.57-49.77-.41-13.68-7.02-26.79-17.74-35.47-13.06-10.5-30.04-12.98-46.2-11.7.81-5.61,1.76-11.18,2.89-16.67,1.82-7.37,1.82-14.95-1.22-22.14-5.48-13.82-21.45-19.35-32.4-8.02-8.11,8.65-10.04,20.1-12.26,31.1-1.51,9.22-2.48,18.47-3,27.73-5.82,2.38-11.53,5.02-17.11,7.9-.08-1.75-.16-3.51-.25-5.25-.67-8.61-.59-17.22-5.22-25.25-3.84-6.92-12.89-11.39-20.83-9.97-6.08.89-10.07,3.75-13.73,6.28-3.87,2.82-6.9,5.88-10.43,8.86-9.63,8.31-31.72,25.38-44.22,22.26-.3-.14-.33-.22-.45-.36-.12-.13-.35-.38-.64-.98-2.06-4.33-1.66-12.08-.27-17.79,6.77-27.31,25.98-51.34,47.9-70.6,1.77,10.14,4.33,19.76,7.86,28.59,5.03,11.94,15.71,25.28,30.44,24.99,12.98.15,25.31-12.13,22.64-25.51-.47-2.82-1.79-5.26-3.1-7.64-1.13-2.49-1.89-5.05-2.63-7.99-3.48-15.57-4.69-31.53-4.45-47.53,4.31-2.32,8.69-4.5,13.13-6.49.63,3.67,1.39,7.33,2.31,10.98,3.04,11.5,6.45,22.69,13.56,32.59,7.95,11.33,21.69,17.34,35,11.72,14.54-6.14,23.38-20.33,26.77-35.1,6.08-25.78-11.22-44.08-35.65-48.48-6.48-1.24-13.28-1.67-20.3-1.4,2.03-10.82,4.95-21.57,8.2-32.25,4.15-2.28,8.32-4.51,12.51-6.64,13.63-6.91,28.24-10.79,42.92-11.32,3.73-.07,7.27-.25,10.84.53,2.41.6,4.1,1.75,5.11,2.89,1.06,1.28,1.54,2.21,1.47,3.99-2.82,16.04-32.61,12.4-45.02,11.47,15.06,15.51,43.27,25.04,61.06,8.19,10.63-9.65,13.34-26.25,5.34-38.66-8.99-14.51-26.71-18.63-42.42-14.98-12.13,2.51-22.74,8.3-33.05,14.29-3.78,2.21-7.54,4.46-11.27,6.74,1.25-3.87,2.5-7.74,3.7-11.59,4.1-12.41,8.36-23.82,6.9-37.67-2.64-27.78-29.71-36.44-47.45-15.12-4.84,5.68-7.88,11.29-10.55,16.87-6.25,13.41-9.94,27.32-12.86,41.57-3.44,16.76-5.84,33.72-7.28,50.77-6.2,3.68-12.65,7.17-19.08,10.11,4.23-41.98,14.74-82.82,26.14-123.61,4.34-16.2,9.16-32.41,11.57-49.5,2.24-15.79.25-31.81-16.37-39.38-20.76-9.37-42.67,5.17-56.67,19.01-36.21,36.45-61.3,93.51-60,145.16.71,25.06,7.72,56.51,31.99,69.97,15.04,7.62,30.41,6.65,45.32,1.73-.04,3.13-.04,6.26,0,9.37-29.35,18.64-54.83,42.89-68.54,65.65-16.71,26.56-28.45,67.65-2.45,92.73,10.5,9.93,26.38,12.87,39.86,10.16,20.24-4.1,36.38-15.47,50.9-28.82.55,3.62,1.09,7.24,1.66,10.81-16.64,11.79-32.08,25.39-46.29,39.74-40.12,41.18-71.56,93.09-81.62,150.54-8.46,50.72-4.55,116.71,30.87,157.18,14.88,17.31,38.86,29.63,61.98,23.26,3.35-.95,6.51-2.2,9.49-3.69,9.69,11.98,21.45,22.36,35.48,29.05,31.3,14.96,64.44,8.03,83.95-21.29,26.92-41.11,19.03-97.31,10.01-142.18-4.52-21.47-10.38-42.65-15.93-63.64-2.98-11.81-6.49-24.07-7.63-35.94,13.3-1.67,24.2-9.62,34.83-18.3,7.69-6.25,17.18-15.87,24.42-22.8-1.46,25.04-8.11,39.55-38.26,43.68-2.22.34-4.87.5-7.05.74l-11.7,2.37s3.88,6.65,3.88,6.65c20.87,59.08,34.78,119.83,54.5,179.5,3.65,9.19,7.85,19.11,17.56,24.31,2.35,1.32,6.15,2.38,9.75,2.48,2.79,0,5.63-.28,8.33-.96,9.67-2.29,17.62-8.61,23.68-16,35.05-44.36,32.07-140.55,7.18-189.3ZM346.09,651.93c-.11.03-.24.04-.36.06,1.05-.87,1.98-1.29,1.96-.95-.03.19-.57.64-1.6.89ZM318.04,582.03c-.03.07-.07.14-.33.31-.4.21-.86.36-1.34.48.79-.55,1.63-.98,1.67-.79ZM258.76,482.21c17.82-3.3,35.12-1.01,43.84,14.59,6.12,11.23,2.76,25.56-4.79,35.37-6.71,9.07-18.74,14.77-29.33,9.84-11.68-7.72-11.06-40.96-9.71-59.79ZM244.78,427.38s-.2.11-.4.17c.31-.23.51-.26.4-.17ZM235.11,448.36c1.37-4.75,2.8-9.55,4.78-14.05,1.01-2.12,1.98-3.99,3.27-5.51.87,2.14,1.15,5.35.56,7.53l-.15.64s-.48,2.07-.48,2.07c-1.46,6.48-3.08,15.32-4.35,25.32-2.56.68-5.1,1.42-7.62,2.2,1.07-6.14,2.4-12.22,3.99-18.19ZM231.71,587.52c-.01-.1.03-.32.17-.61-.03.5-.14.79-.17.61ZM214.76,499.33c.07-.04.14-.08.2-.12.58,15.13,2.3,30.23,4.96,45.19,1.31,6.87,3.04,13.78,5.22,20.49,1.19,3.6,3.02,8.19,4.28,11.73,1,2.96,2.01,5.79,2.35,8.64-1.41-.19-3.62-.69-5.14-1.19-.02-.04.01,0-.09-.08-6.4-4.3-10.34-11.45-13.85-18.51-8.26-17.76-11.43-37.09-13.02-56.63,4.91-3.35,9.93-6.53,15.08-9.51ZM238.59,213.29c.07-.03.02.02-.14.1.05-.03.1-.07.14-.1ZM232.77,338.73c6.97-1.97,14.02-3.18,20.89-3.09,13.38-.08,26.57,6.7,27.24,21.3.56,13.58-7,29.24-20,34.37-14.66,5.42-23.19-9.87-25.81-22.29-2.17-10.14-2.79-20.24-2.32-30.28ZM213.14,268.02c3.9-14.34,8.88-29.91,15.77-42.45.69-1.2,1.44-2.49,2.25-3.79-.64,3.46-1.67,7.04-2.71,9.94-5.76,17.05-10.81,34.87-13.85,52.99-2.06,1.45-4.28,3.02-6.63,4.65,1.52-7.16,3.25-14.28,5.17-21.34ZM203.59,314.34c.34-2.45.71-4.9,1.1-7.35,2.55-1.58,5.1-3.16,7.65-4.73-.5,5.73-.76,11.47-.75,17.22-2.95.69-5.92,1.48-8.9,2.35.28-2.5.57-5,.89-7.49ZM188.55,404.19c.98,3.57,2.27,7.53,4.06,11.11.85,2,2.73,3.29,1.45,5.7-3.31,5.56-10.02,4.5-14.69-.33-2.87-2.79-5.29-6.8-7.27-11.12-4.35-10.7-6.88-22.01-8.21-33.6,2.83-2.15,5.66-4.22,8.49-6.21,3.34-2.29,6.74-4.55,10.18-6.76.75,13.88,2.48,27.68,5.97,41.2ZM182.59,320.66c-.14,2.74-.26,5.48-.35,8.22,0,.11,0,.21,0,.32-6.48,2.74-12.92,5.84-19.25,9.24.1-2.29.22-4.58.36-6.86,6.61-3.33,13.05-7.11,19.26-10.91ZM168.25,131.63c.07.32.11.64.17.96-.23-.46-.35-.82-.4-1.02-.11-.54.08-.36.23.05ZM114.09,317.43c-19.49-18.87,1.16-81.55,9.32-104.59,6.91-18.12,16-36.03,26.93-51.89,4.95-7.18,10.93-14.5,17.16-19.89.49-.45,1.05-.89,1.62-1.3.07,4.82-.47,9.78-.81,14.83-3.22,31.94-9.25,63.97-13.69,96.08-2.9,21.09-6.18,45.9-7.5,71.05-12.81,3.39-24.58,3.03-33.04-4.28ZM162.31,466.7c0-.12.08.04.18.3.06.16.14.39.21.64-.17-.35-.31-.67-.39-.94ZM132.13,713.24c.05-12.89.37-25.92,1.89-38.65,2.33-19.35,6.77-40.39,16.85-56.84,4.02-6.2,11.45-16.06,19.22-12.61,4.46,2.65,6.71,8.11,8.93,13.79,15.27,42.73,6.29,146.71-24.14,194.43-15.63-30.22-22.91-66.01-22.74-100.12ZM239.54,631.8c1.13.1,2.24.14,3.33.15-1.28.34-2.57.32-3.33-.15ZM341.36,818.16c-.44-.38-.85-.8-1.26-1.21.88.37,1.62.85,2.1,1.47.2.39-.29.2-.84-.26Z"/>
  </g>
  <g id="Layer_4" class="st1">
    <g>
      <path d="M668.81,415.54c-15.34-13.01-46.07,18.76-94.99,111.7,11.46-75.29,29.18-144.48,48.44-216.11l44.86-6.46-18.93-.91-1.83-1.4,19.2-1.7,24.25-2.05-15.98-3.91,18.55-2.93-61.5-7.72s9.9-26.9,14.56-40.23c1.03-2.96-2.14-5.86-5.26-5.63-15.76,1.2-31.29,7.54-43.21,15.06l-11.28,33.92-27.78,4.23c2.23-7.2,4.9-16.5,7.11-23.7.81-2.67-1.42-5.25-4.19-4.89-16.17,2.15-34.27,11.04-46.14,18.76l-8.11,24.78c-34.69,13.68-66.19,30.53-94.53,54.54-11.92,10.09-18.53,29.67-6.69,41.83,8.47,8.71,25.7,6.65,36.56,5.84,10.29-.77,14.03-7.97,12.73-17.38-.98-7.16,2.39-10.74,7.71-14.1,9.38-5.92,18.22-11.57,27.84-15.23-18.19,69.47-32.74,134.4-40.37,202.99-1.93,17.32-3.43,34.59.35,51.01,3.94,17.05,17.14,28.66,33.57,29.67,4.48.27,8.28-3.13,8.39-7.61.17-6.41-.95-12.24-1.75-19-2.37-20.19.32-40.53,3.16-61.43,10.27-75.93,27.01-148.82,47.62-222.7l32.6-10.37c-22.71,83.78-45.48,178.64-52.6,263.03-3.42,40.6,23.77,59.47,34.51,60.41,5.72.5,10.81-3.69,11.67-9.37,8.85-58.38,39.06-102.44,69.63-150.16-9.12,21.32-12.4,44.03-13.93,73.64-3.1,59.82,2.14,93.28,29.6,76.41,27.38-16.82,9.4-15.73,15.38-91.46,3.02-38.15,11.81-60.83,22-97.54h0c3.83-13.79-9.9-24.22-21.22-33.83Z"/>
      <path d="M-54.49,384.98h.01c6.88-13.3,12.42-30.57,5.79-44.44-4.7-9.83-16.92-13.68-27.42-13.96-3.62-.1-7.16,1.13-10.02,3.36-105.75,82.83-178.57,233.89-204.47,362.47-7.29,36.17,6,63.41,42.44,69.23,12.19,1.95,1.21-10.25,18.75-91.12,8.39-38.74,38.29-77.82,63.6-81.4,1.69-.24,3.13,1.23,2.96,2.93-4.31,46.25-1.13,111.81,23.12,125.42,2.39,1.34,7.76.99,10.48-.18,11.6-5,10.5-11.18,7.85-18.43-8.89-24.21-32.49-121.88,66.9-313.89ZM-160.17,570.57c-.2,1.68-1.86,2.79-3.45,2.26h-.01c-9.95-3.25-23.27-2.89-31.8-.63-2.22.59-4.12-1.65-3.14-3.73l19.39-41.42s.04-.08.07-.13l13.35-24.89s.06-.11.1-.15l36.74-58.66c.13-.2.27-.36.43-.52,2.11-2,5.44.31,4.33,2.97-17.42,41.55-30.66,78.71-36,124.89Z"/>
      <path d="M96.33,668.95c17.16,7.62,37.32-5.74,36.05-14.84-9.03-64.94-3.52-103.25,16.04-160.1,10.62-30.88.74-36.06-7.58-33.56-24.63,7.39-37.34,12.8-51.21,34.26-22.34,34.58-44.07,75.97-60.88,113.08,2.01-32.32,6.39-60.76,14.88-90.65,4.16-14.64,12.24-35.86,11.81-44.25-.71-13.72-39.63-2.14-57.42,22.32-20.8,28.61-41.02,60.77-60.37,95.2,6.3-32.26,26.66-89.15,37.99-114.32,5.72-12.72-35.91-10.62-44.27,6-17.45,34.71-29.23,70.18-35.88,108.67-9.42,54.56-10.68,86.69,5.95,89.36,11.27,1.8,31.19-3.38,34.68-10.96,22.92-49.66,37.19-80.47,58.02-114.78-8.28,45.44-8.77,103.32,2.28,115.62,4.34,4.84,25.56,4.06,31.73,1.02,10.22-5.05,11.07-11.64,26.54-46.6,15.44-34.87,41.1-78.72,41.1-78.72-12.01,39.87-14.37,116.61.56,123.24h-.01Z"/>
      <path d="M167.3,638.92h.01c22.36,23.65,66.21,21.33,94.26-11.66,18.9-22.23,30.24-61.01,28.28-84.8-.89-10.83-7.19-18.25-19.22-20.59,10.25-8.19,12.61-20.16,13.79-32.85,1.49-15.89-6.17-29.25-22.09-34.3-39.97-9.94-72.64,19.32-92.89,57.49-16.6,31.27-34.8,92.18-2.15,126.71ZM194.96,558.04h0c12.76-44.8,36.86-70.67,48.22-69.63,13.25,1.2-17.93,38,5.81,49.94l11.31-8.39s-12.62,84.94-51.51,78.28c-13.85-2.37-22.73-18.96-13.82-50.19Z"/>
      <path d="M343.81,648.94h0c8.15.27,10.95-3.31,7.06-16.46-2.9-9.84-4.45-17.55.81-61.36,9.35-77.79,20.16-164.69,71.84-298.98,3.25-8.46-50.73,4.76-57.15,19.21-46.6,104.65-64.02,272.91-67.05,306.77-2.93,32.78,14.04,49.76,44.49,50.82Z"/>
      <path d="M129.36,696.62v.03c-11.68,4.8-23.41,10.46-30.78,20.63-5.84,8.06-2.89,24.07,4.52,29.93,12.16,9.62,27.98,12.41,42.9,9.14,2.57-5.56,3.99-11.91,5.3-19.99,62.99-25.2,129.4-36.59,196.7-30.18,13.18,1.26,23.23,2.99,37.78-1.76,2.9-.11,3.57-.78-1.31-3.29l15.82.54c-85.37-40.02-183.51-40.99-270.93-5.05Z"/>
      <path d="M443.97,433.81c-6.41-4.33-42.37,3.25-45.27,12.69-16.85,54.73-21.88,95.43-24.57,147.3-1.4,26.94,16.85,48.93,41.55,49.25,3.52.04,8.39-3.07,8.03-6.58-2.18-21.53-9.55-53.55,11.73-152.29h.01c8.21-38.08,15.44-45.71,8.53-50.37Z"/>
    </g>
  </g>
  <g id="Layer_3" class="st1">
    <g>
      <path d="M293.89,424.96l-1.6-109.95c-5.98-6.89-20.08-9.97-30.28-12.18l-31.53-6.81-5.4,23.11c-.39,52,2.31,100.35,6.46,152.29-7.55,4.3-21.59,5.34-26.05,1.2l-7.42-48.66-8.69-87.32c-2.12-21.38-31.26-29.18-48.24-29.41l-15.22-.2c-3.34-.04-3.93,12.02-4.4,15.41,9.77,76.18,21.4,149.12,35.29,224.56l9.85,60.16c.51,3.09,6.26,10.79,9,10.16,14-3.2,10.65-17.76,25.63-25.85l7.72-53.51.02-.02h0v-.03l-2.42-34.85,28.71-3.28,11.84,120.67c3.32,33.81,17.41,61.59,23.16,55.13l8.57-9.66c9.95-11.23,10.97-22.37,11.12-37.63l.28-29.45c5.69-37.02,4.99-69.99,4.49-107.08l-.89-66.81Z"/>
      <path d="M144.13,630.72l-4.02-22.72-16.01-86.81-12.01-65.53c-7.94-43.31-16.79-84.8-34.73-124.75-20.41-5.13-41.16-7.16-58.01-1.42,7.15,24.52,21.54,40.36,10.79,65.32l-8.09-30.95-12.87,1.09C.8,457.24-9.39,546.95-22.84,638.83c-.61,4.25.57,13.19,3.85,14.27,3.28,1.08,11.13,2.35,15.16,2.58,23.54,1.33,41.83-11.99,43.17-35.28l2.33-40.53,44.79-2.11,17.98,50.12h0l32.62,85.86,3.91,10.21c.86,2.27,9.77-4.53,10.56-7.08,4.76-15.53-.35-40.6-2.98-57.54l-4.44-28.6ZM44.78,553.83l.36-131.55c7.63,17.59,12.83,33.89,17.02,51.91l18.55,79.68h.02c-10.71,4.02-24.18,4.06-35.94-.04Z"/>
      <path d="M-47.8,441.49l-7.64-81.78,119.55-68.53,6.93-5.57c1.61-1.29.21-7.7-1.87-7.78l-11.55-.48c-50.05,14.79-96.13,37.09-141.24,63.53-11.45,6.22-20.83,8.52-35.82,10.37l-4.42,14.07-120.37,90.67-46.11,43.33c-1.89,1.77-4.2,10.55-2.47,11.71l6.07,4.06,24.38.24,145.81-112.45,39.81,244.1c5.41,2.9,11.89,4.75,15.53,3.63s7.39-11.25,6.62-15.57h0s0,0,0,0v-.03l-4.86-26.86,12.99,2.29c-7.65-25.75,6.64-43.88,9.07-66.53,2.06-19.18-2.59-43.7-5.29-63.96l-5.11-38.45Z"/>
      <path d="M441.27,269.72l-9.81,133.54-6.03,128.03-.78,61.45-2.31,115.92c19.17-12.93,34.29-30.68,32.74-49.5l5.33-53.63h0l.03.03c-2.03-24.44,1.93-50.57,6.54-71.93,6.47-1.28,4.82-7.34,4.7-10.56l-.51-14.54c-.35-10.2-1.09-14.98-8.21-25.15l4.88-30.98,4.26,8.09c.65,1.24,6.42-.87,6.61-2.27l8.26-63.49,13.35-76.4,1.28-30.6c-11.55-9.12-27.49-11.57-41.23-14.27l-19.08-3.75Z"/>
      <path d="M507.12,447.38l-5.44,39.12,2.7,195.98c-.22,2.88,7.73,13.3,10.36,11.31,17.61-13.38,7.56-44.54,24.06-39.15l6.38-33.59h0v.08l4.3-39.19,5.79-41.78,9.9-44.36c1.26-5.58,5.39-13.12,5.36-17.41-.08-16.24-35.33-26.78-63.42-31.02Z"/>
      <path d="M378.98,409.75l-48.2-9.2c-1.37,33.18-.51,60.81,3.17,92.06l16.05,136.41c.93,7.85,6.47,17.79,14.78,17.67,6.13-11.66,8.25-25.05,9.93-39.99l8.26-.63,3.02-34.47h0v-.03l-.03.03.43-38.06,1.28-41.43,5.76-49.21c.81-6.81,3.87-15.38,1.71-19.76-2.16-4.38-11.09-12.45-16.12-13.41Z"/>
      <path d="M533.67,429.86l11.67,4.84h0s.04,0,.04,0l13.8,7.34c2.31,1.23,9.36-5.03,10.13-7.54l20.51-67.67c-5.81-8.53-21.53-19.93-29.84-17.92l-25.42,6.1c-11.46,2.74-22.74,36.67-8.49,64.03,2.59,4.96,4.63,9.62,7.6,10.83Z"/>
      <path d="M370.77,356.34l13.27,1.96c2.47.36,8.3-7.62,8.37-10.12h0l1.56-47.69c-22.28-9.32-43.23-6.93-61.7,7.89-4.31,8.52-.69,27.43,7.47,34.97,8.92,8.23,17.76,11.02,31.02,12.99Z"/>
    </g>
  </g>
</svg>