<?xml version="1.0" encoding="UTF-8"?>
<svg id="Layer_1" xmlns="http://www.w3.org/2000/svg" version="1.1" viewBox="0 0 852.54 401.76">
  <!-- Generator: Adobe Illustrator 30.4.0, SVG Export Plug-In . SVG Version: 2.1.4 Build 226)  -->
  <defs>
    <style>
      .st0 {
        fill: none;
        stroke: #78445C;
        stroke-linejoin: round;
        stroke-width: 7px;
      }
    </style>
  </defs>
  <path class="st0" d="M175.88,372.36c-3.61-4.02-4.89-8.12-4.51-13.16l2.55-33.84,5.71-53.72,4.84-37.84,7.53-42.32,5.95-32.27-18.69,15.73-23.24,18.06-17.51,14.81c-10.4,8.79-20.47,17.1-30.44,26.4l-27.73,25.89-12.26,11.89c18.63-.95,36.14-.86,54.82,1.25l-8.25-28.82,9.47-7.21,8.88,10.32,35.48,43.39-24.31,20.24-40.29-4.1c-21.67-2.21-42.77-2.96-64.53-2.5l-18.5-.89-13.81-26.61c-.6-1.16,1.12-3.15,2.14-3.29l5.43-1.25s111.72-122.89,198.12-178.3c.41-.26,18.75,14.92,27.98,23.3l-3.55,22.18-6.67,38.11-10.98,64.45-3.93,26.1,19.59-36.34c11.32-20.99,22.57-41.41,35.18-61.64l18.15-27.22-23.19-18.25-20.55-16.97,7.17-14.73,8.84-15.21c.56-.96,2.55-2.22,3.6-2.75,0,0,197.87-40.45,418.69-42.3l.13,13.23-23.23,44.74L792.47,9.61l21.94,90.74,11.27,42.81,16.24.06-20.14,37.42-165.59,1.33-17.05-17.08c1.54-2.05,76.05-52.92,76.05-52.92,3.38-2.18,6.43-2.24,10.14-.61,1.43.26,3.59,1.34,4.02,3.08l-21.38,30.82,84.97-2.12-14.32-44.43-10.28-30.8-14.04,7.58-37.78,21.6-18.88,11.48-26.96,17.63-29.98,21.01-12.21,8.96-26.21-3.78-1.04-2.32,9.15-27.98,10.87-31.07,5.71-16.1.62-1.36c.12-.26-.23-.35-.96-.52l-34.3.37-47.81,2.33-41.45,3.46-69.89,8.21-13.71,102.15-5.35,41.82-2.95,23.48c-11.46,7.65-22.13,15.46-32.51,24.23-.7-2.22-1.3-4.63-1.32-7.06-.18-22.42.77-44.1,3.02-66.49l6.65-66.38,3.27-29.15,1.44-16.74-6.78.51-28.45,3.76-39.41,6.4-8.83,1.3c-.98-.12-1.92.42-.52.72l7.46,4.61,22.73,14.72c1.69,1.1,2.1,3.29.91,5l-13.8,19.86-23.45,34.58-14.84,23.4c-11.73,18.5-23.1,36.73-32.43,56.62l-24.77,52.74-8.52,22-12.68,38.79-5.47,17.68c-10.13-7.05-18.85-14.53-26.94-23.56l-.09-.04Z"/>
  <path class="st0" d="M701.99,253.34l.78,18.74,1.08,20.94c-8.23,12.68-16.78,24.1-26.8,36.26l-12.89-18.59-11.55-18.27-47.39-75.52-80.81,62.83-19.67,16.55-16.6,14.44c-2.57,2.23-6.76,3.67-10.17,2.6l-15.23-4.75-19.7-8.28,8.6-7.39,18.6-17.82,7.68-50.23c5.45-35.67,13.6-70.37,22.4-105.28l4.08-16.22c.42-1.68,2.42-3.53,3.93-4.45l25.2-2.7c2.32-.34,4.3.54,5.21,2.72l14.7,35.07,28.66-37.51c.86-.56,2.74-1.37,3.69-1.37l18.39-.02-14.85,47.99-9.75,28.45c-9.98,5.11-20.16,9-31.18,11.53l-20.37-33.2-2.75,9.98-8.47,43.89-8.22,42.77,13.3-9.98,29.23-23.07,28.18-21.53,12.84-11.15,3.78-8.51c.75-1.7,2.84-3.04,4.92-2.8l25.78,2.91,17.1,32.05,19.62,39.1,8.31,17.24,1.47-44.13c.07-2.08,1.59-3.71,3.37-4.39l14.6-5.48c1.27-.48,4.39-1.09,5.55-.45l18.43,10.14,28.88,18.51-3.2,10.22-39.06-4.34.25,12.48v.05Z"/>
  <path class="st0" d="M333.84,222.95s-33.15,53.74-54.63,114.83c-.31.89-18.59-12.32-23.52-19.43-3.63-5.24-4.22-11.11-1.82-17.01l11.41-25.53,19.77-38.47c16.81-32.72,36.76-64.15,61.44-91.33l6.27-5.66c1.88-1.69,3.96-1.69,5.94-.25,5.59,4.05,10.17,8.81,14.83,14.11l-.51,8.2c-5.34,33.67-7.27,67.12-7.51,101.24-.09,12.95-.65,25.13,1.52,38.1l78.37-53.01c4.37,4.07,10.44,15.96,14.11,20.9.36,1.03-.75,3.33-1.52,4.11l-98.81,74.31s-26.4-21.46-26.43-21.89c-3.07-49.2.89-103.04,1.09-103.24Z"/>
  <path class="st0" d="M458.97,226.82l-25.37,11.72c-.83.39-2.44.89-3.1.54-.76-.41-1.67-1.81-2.32-2.94l5.18-42.84,6.56-48.43,5.29-31.35c.57-3.42,1.75-4.99,5.33-5.57,9.27-1.51,18.31-2.94,27.85-3.36,1.33-.06,2.79,1.54,2.54,2.92l-4.79,26.7-4.13,24.34-4.26,25.9-6.05,35.34c-.42,2.42-1.39,4.87-2.71,7.04h0Z"/>
</svg>