<?xml version="1.0" encoding="UTF-8"?>
<svg id="Layer_1" xmlns="http://www.w3.org/2000/svg" version="1.1" viewBox="0 0 1430.61 682.71">
  <!-- Generator: Adobe Illustrator 30.4.0, SVG Export Plug-In . SVG Version: 2.1.4 Build 226)  -->
  <defs>
    <style>
      .st0 {
        fill="#fff";
      }
    </style>
  </defs>
  <path class="st0" d="M1402.81,241.9l-19.27-73.21-37.52-155.19-226.62,139.06,39.73-76.52-.22-22.63c-377.65,3.16-716.05,72.34-716.05,72.34-1.8.91-5.2,3.06-6.16,4.7l-15.12,26.01-12.26,25.19,35.15,29.02,39.66,31.21-31.04,46.55c-21.57,34.6-40.81,69.52-60.17,105.42l-33.5,62.15,6.72-44.64,18.78-110.22,11.41-65.18,6.07-37.93c-15.79-14.33-47.15-40.29-47.85-39.85C206.77,252.97,15.7,463.14,15.7,463.14l-9.29,2.14c-1.74.24-4.69,3.64-3.66,5.63l23.62,45.51,31.64,1.52c37.21-.79,73.3.5,110.36,4.28l68.9,7.01,41.58-34.61-60.68-74.21-15.19-17.65-16.2,12.33,14.11,49.29c-31.95-3.61-61.89-3.76-93.75-2.14l20.97-20.33,47.42-44.28c17.05-15.91,34.27-30.12,52.06-45.15l29.95-25.33,39.75-30.89,31.96-26.9-10.18,55.19-12.88,72.38-8.28,64.71-9.77,91.87-4.36,57.87c-.65,8.62,1.54,15.63,7.71,22.51h-.07l.15.07c13.84,15.44,28.75,28.24,46.07,40.29l9.35-30.24,21.69-66.34,14.57-37.62,42.36-90.2c15.96-34.02,35.4-65.19,55.46-96.83l25.38-40.02,40.1-59.14,23.6-33.97c2.04-2.92,1.33-6.67-1.56-8.55l-38.87-25.17-12.76-7.88c-2.39-.51-.79-1.44.89-1.23l15.1-2.22,67.4-10.95,48.66-6.43,11.6-.87-2.46,28.63-5.59,49.85-11.37,113.52c-3.85,38.29-5.47,75.37-5.16,113.71.03,4.16,1.06,8.28,2.26,12.07,17.75-15,36-28.36,55.6-41.44l5.05-40.16,9.15-71.52,23.45-174.7,119.53-14.04,70.89-5.92,81.77-3.98,58.66-.63c1.25.29,1.85.44,1.64.89l-1.06,2.33-9.77,27.53-18.59,53.14-15.65,47.85,1.78,3.97,44.82,6.46,20.88-15.32,51.27-35.93,46.11-30.15,32.29-19.63,64.61-36.94,24.01-12.96,17.58,52.67,24.49,75.99-145.32,3.63,36.56-52.71c-.74-2.98-4.43-4.82-6.88-5.27-6.34-2.79-11.56-2.69-17.34,1.04,0,0-127.43,87-130.06,90.51l29.16,29.21,283.2-2.27,34.44-64-27.77-.1Z"/>
  <path class="st0" d="M1182.12,349.9c-1.98-1.09-7.32-.05-9.49.77l-24.97,9.37c-3.04,1.16-5.64,3.95-5.76,7.51l-2.51,75.47-14.21-29.48-33.55-66.87-29.24-54.81-44.09-4.98c-3.56-.41-7.13,1.88-8.41,4.79l-6.46,14.55-21.96,19.07-48.19,36.82-49.99,39.45-22.75,17.07,14.06-73.15,14.49-75.06,4.7-17.07,34.84,56.78c18.85-4.33,36.26-10.98,53.32-19.72l16.67-48.66,25.4-82.07-31.45.03c-1.62,0-4.84,1.39-6.31,2.34l-49.01,64.15-25.14-59.98c-1.56-3.73-4.94-5.23-8.91-4.65l-43.1,4.62c-2.58,1.57-6,4.74-6.72,7.61l-6.98,27.74c-15.05,59.7-28.99,119.05-38.31,180.05l-13.13,85.9-31.81,30.48-14.71,12.64,33.69,14.16,26.05,8.12c5.83,1.83,13-.63,17.39-4.45l28.39-24.7,33.64-28.3,138.2-107.45,81.05,129.16,19.75,31.25,22.04,31.79c17.14-20.8,31.76-40.33,45.83-62.01l-1.85-35.81-1.33-32.05-.09.05v-.09l-.43-21.34,66.8,7.42,5.47-17.48-49.39-31.66-31.52-17.34Z"/>
  <path class="st0" d="M776.58,458.21c-6.28-8.45-16.66-28.78-24.13-35.74l-134.03,90.66c-3.71-22.18-2.75-43.01-2.6-65.16.41-58.35,3.71-115.56,12.84-173.14l.87-14.02c-7.97-9.06-15.8-17.2-25.36-24.13-3.39-2.46-6.94-2.46-10.16.43l-10.72,9.68c-42.21,46.48-76.33,100.24-105.08,156.19l-33.81,65.79-19.51,43.66c-4.1,10.09-3.1,20.13,3.11,29.09,8.43,12.16,39.69,34.75,40.22,33.23,36.53-103.9,92.79-195.34,93.41-196.36-.48,2.32-7.04,93.28-1.85,176.51.05.74,45.2,37.44,45.2,37.44l168.99-127.09c1.32-1.33,3.22-5.27,2.6-7.03Z"/>
  <path class="st0" d="M732.27,405.02l43.39-20.04.03.02c2.26-3.71,3.92-7.9,4.63-12.04l10.35-60.44,7.29-44.29,7.06-41.63,8.19-45.66c.43-2.36-2.07-5.1-4.34-4.99-16.32.72-31.78,3.16-47.63,5.75-6.12.99-8.14,3.68-9.12,9.53l-9.05,53.62-11.22,82.83-8.86,73.27c1.11,1.93,2.67,4.33,3.97,5.03,1.13.6,3.88-.26,5.3-.92Z"/>
</svg>