<?xml version="1.0" encoding="UTF-8"?>
<svg xmlns="http://www.w3.org/2000/svg" version="1.1" viewBox="0 0 392.16 459.18">
  <!-- Generator: Adobe Illustrator 30.4.0, SVG Export Plug-In . SVG Version: 2.1.4 Build 226)  -->
  <defs>
    <style>
      .st0 {
        fill: #fff;
      }

      .st1 {
        opacity: .2;
      }

      .st2 {
        display: none;
      }
    </style>
  </defs>
  <g id="Layer_1" class="st2">
    <g class="st1">
      <path d="M426.03,233.45c2.05,1.41,3.13,2.96,2.67,5.4,2.46,2.53,3.64,5.92,2.5,9.54l-.73,7.64-7.82,24.45-2.54,7.79-6.57,14.05-7.35,14.91-2.56,4.99-4.27,7.45-6.57,10.87c.32,3.42,2.21,7.17,3.61,10.27l4.21,9.31,9.21,19.51c4.36,9.23,8.43,18.28,14.66,26.33l-1.4,8.04-14.12,3.09c-11.55,1.31-22.92-5.66-27.64-15.39l-5.2-10.72-5.75-10.98c-.39-.74-1.59-2.04-2.35-2.71l-8.87,16.94-7.18,10.71-4.79,6.68-5.69,7.17-4.19,4.64-7.66,7.2c-4.16,3.91-10.73,6.17-16.67,6.12-2.77-.02-6.19-1.77-8.67-2.52-3-.91-3.49-2.89-4.71-5.12-1.86-3.38-3.03-6.02-.91-9.79l3.65-6.5,2.28-3.43,2.42-4.58,3.79-6.5c1.67-2.86,3.89-5.07,6.24-7.17l2.89-5.4,5.01-8.5c.57-1.86,1.49-3.55,3.07-4.73.31-2.34.97-4.85,2.63-6.83l4.18-7.49c.73-1.31,1.72-2.57,1.96-4.22s1.01-3.14,2.24-4.16c1.65-1.36,1.85-3.06,2.75-5l4.68-10.14-1.97-4.72-10.32-26.82-3.01-6.53-2.08-4.43c-2.85,8.02-3.99,16.66-4.94,25.47-.13,4-.97,7.51-3.6,10.44-4.48,1.18-8.55.85-12.77-.29-4.43-1.2-7-3.89-9.06-7.76-2.27-4.25-4.62-8.56-4.47-13.55l.24-8.04,1.59-11.9,1.43-11.35c.04-1.34-.9-3.95-1.39-5.66-1.17-.03-3,.57-4.06,1.32-3.07,8.3-5.08,16.24-6.64,24.85l-3.21,18.55c-1.86,10.78-3.94,21.36-4.26,32.35.88,1.04,1.49,2.06,1.69,4.15,6.59-3.07,13.43-3.37,20.53-2.25,2.25.36,3.96.26,5.57,1.47l5.66,4.28c3.99,3.01,7.86,8.54,6.16,13.93l-1.64,5.2-9.4,3.21-15.22,4.81-5.6,2.13-6.11,1.6-4.92,2.46c-2.35,1.17-4.44,2.08-4.88,4.95l-1.54,9.99-3.19,13.97-3.54,9.17c-3.72,9.64-16.07,22.61-25.67,26.73-3.67,1.58-7.98,1.83-11.95,2.29-1.01-1.94-2.8-4.51-2.91-6.07l-.36-4.82-7.03-1.95c-3.77-1.04-7.07-2.14-9.95-4.87l-9.27-8.8c-6.83-6.49-11.94-14.59-16.74-22.65l-3.08-5.18c-1.06-1.78-1.27-3.13-3.25-4.82l-3.4,22.22c-1.09,7.13-3.47,13.87-6.26,20.43l-2.11,1.75c-2.38,5.3-9.51,10.27-15.36,12.26-4.44,2.09-9.1,3.21-13.94,2.92-3.69-3.01-3.91-7.11-2.76-11.38.05-4.46.97-8.62,1.52-13.08l1.52-12.24.45-6.18,2.45-16.64,3.23-24.52c.4-3.01,1.37-5.78,1-9-.12-1.05-2.8.13-3.71.57-4.26,2.08-9.89,2.6-13.81,5.37-3.58,2.53-3.67,7.79-4.17,11.64l-1.29,9.96c.32,2.6.14,5.3-.55,7.7l-1.04,8.25-1.07,7.82-1.39,17.9c-.82,10.51-3.03,21-10.6,27.61-4.77,2.91-9.43,4.94-14.71,6.57l-5.54.7c-8.51-4.78-3.47-10.21-3.13-20.98l.58-18.55c.12-3.73-2.58,1.09-7.6,2.63l-10.32,3.17c-3.52,1.08-5.19.3-8.28-1.37-4.45-2.4-10.63-3.53-13.9-7.65l-6.28-7.93-4.77-6.11c-2.88-3.69-7.29-14.53-8.32-19.28l-1.75-8.06c-.19-.89.38-2.48,1.2-3.5-3.24-2.16-2.53-5.47-2.4-8.65l.38-9.68.22-7.08.16-5.74.66-7.68,1.45-8.74,1.48-7.86c.21-1.1.39-2.17,1.17-3.23,1.13-1.54.51-4.57,1.19-6.33l9.11-23.71,5.05-8.83,2.82-6.06,1.68-2.89,3.75-6.07-.75-1.41c-.11-.21.16-.29-.78.6h-4.09s-2.24.33-2.24.33c-.47.07-1.08-1.1-1.37-1.54-7,1-8.68-4.67-9.34-4.53-.55.11-1.42.4-1.5.17-.83-2.41-3.19-3.77-4.51-8.43l-12.64-44.56-1.69-6.7L.4,182.01l-8.17-42.88-1.15-11.09-.28-8.28c-.1-3.12-1.26-5.89-.58-8.93l1.61-7.15c2.02-9,13.03-18.53,21.25-20.91,3.26-.94,8.06,1.43,10.11,4.13,1.5,1.97,1.22,5.23,1.47,7.56l2.62,24.24c1.43,13.17,3.45,25.84,6.59,38.63l1.65,6.73.69,5.71,1.27,8.21,1.31,5.92c.04.19-1.43.84-1.26.94l1.35.73c.1.05.45.83.46.93l.13,2.89-.28,2.32c-.28-.39.31.42.48.66l.69.76.69.75c.95,1.04-.22-4.19,3.12-6.79.01-1.46.07-3.08.45-4.29l6.17-20.01,2.75-8.9,5.01-16.21,1.03-3.4,5.85-16.48,6.41-17.46,5.72-12.69,3.59-5.35,1.49-2.65c3.11-5.54,9.67-7.81,10.88-8.6l2.15-1.42c.57-.38,2,.41,2.72.46l8.57.68c1.53.12,4.78.79,5.66,2.2.72,1.87,0,5.06-.27,6.93l2.78,1.27c1.01-.65,2.36-1.27,3.41-1.43l5.35-.81,7.39-1.21,11.16-1.71,14.7-.85,7.39-1.17,5.56-.11,4.23.16,10.93-.28c1.07-.03,3.39.08,4.41.41l7.09,2.31.97,2.9c3.07,1.04,5.7,3.01,7.52,5.98.38-.53,1.54-2.22,2.22-2.59l6.29-3.08,9.11-3.18,4.53-1.42,5.54-.73c2.78-.37,5.41-1.15,8.27-.12,7.01,2.52,13.75,6.13,19.11,11.38,2.87,2.81,6.08,6.77,6.23,10.77l.6,16.57c.16,4.56-1.5,9.07-2.67,13.37l-1.53,5.61c-4.78,4.29-3.5,11.11-10.79,17.37-1.5,4.03-4.45,7.35-8.92,8.39-.16.09-.76.67-.58.81l1.38,1.06-3.57,1.65c-2.82,3.05-5.77,3.79-10.13,3.65l-8.45,1.73-1.82-1.46c-.42-.34-1.27-.06-2.53.09l1.2-5.06c.07-.3-.25-1.46-.33-1.76-.1-.37.84-.47,1.34-.59l-1.12-3.5c2.68-3.12,3.29-6.45,4.42-10.18l2.6-5.41,1.89-3.91c2.53-5.24.93-7.89,2.3-8.47.28-.12.91-.38.89-.38-.02,0-.22-1.09-.17-1.26l2.64-8,.37-3.92c-2.89-1.2-6.29-.63-9.07,1.2l-.75,2.93-4.54,5.17c-6.63,7.56-10.62,16.62-14.2,26.02l-4.35,11.44-4.91,15.8-1.02,5.69c-.17.92-.06,2.35.1,3.21-2.16,4.59.96,7.83-.75,12.97l1.01,2.43c-.55,1.29-.81,2.29-.83,3.47-.15,7.31.66,16.95,6.64,19.8,2.09.99,5.6-.18,7.32-1.95l10-10.35c4.47-5.81,7.81-12.09,10.79-18.3l1.65-.41c.26-.06.08-.46-.5-1.36l1.72-2.64c.45-.69,2.47-.48,3.3-.65,2.43-1,5.25-1.85,8.04-1.44,1.06,1.32,2.24,3.6,3.04,5.26l2.14,1.79-.1,9.11c0,.16-.85,1.18-.84,1.19l.75.9c-2.12,11.07-6.13,21.38-11.25,31.57l-2.57,5.99c-1.45,3.38-5.51,5.42-8.74,7.97,4.88,5.56,8.96,10.91,11.77,17.39l4.1,9.47c1.07,2.47,1.04,6.05,1.31,8.97.55,6.11,1.53,12.42-.46,18.08l-3,8.57c-1.52,4.33-3.88,7.93-6.33,11.73l-4.72,7.32-7.57,10.27c-2.7,3.67-6.46,5.86-9.98,8.77l-6.57,5.42-10.14,7.91,3.2,4.97,9.4,14.97,3.22,5.21c.65,1.06,3.09,2.72,3.02,3.96-.18,3.23.56,2.06,4.67,6.87l2.83,3.31,5.94,6.19.82-1.39,1.83-7.14.52-4.88c1.29-2.3,1-4.56-.68-6.84l-2.91-3.94-1.49-2.52-2.93-6.13,1.98-5.06,13.82-6.63,2.64-12.76,3.35-16.99,2.01-12.69,4.87-30.18,2.4-14.46.97-4.61,3.65-13.59c-2.82.51-6.49,2.31-9.27,1.67-3.15-.72-6.08-2.78-9.06-4.26.17-7.41,2.02-13.8,4.85-20.54l1.85-8.57c1.04-4.82,2.92-9.45,4.98-14.03l1.9-6.48.93-4.96,3.31-4.87-2.1-.97c2.73-1.85,3.85-4.81,3.7-8.1-.05-1.08,1.13-3.23,1.46-4.47l8.25-30.72,2.3-7.26,1.26-4.9,2.53-9.73,3.83-14.3.92-3.84,4.98-20.22.88-3.85.68-3.02c.34-1.53,1.94-3.75,2.05-5.28.48-6.83,8.36-12.07,13.05-9.57l.3,1.55c.11.58,3.22-.94,6.35,2.16,5.49,5.43,9.16,10.91,9.89,18.52.71,7.41.79,14.93-1.97,21.89-.72.79-.91,1.57-1.19,2.58l-2.27,8.04c1.83-.57,3.03-1.22,4.07-2.3l8.54-8.83c.4-.02,1.21-.06,1.19-.24l-.1-1.39,7.43-8.35c.58,0,1.83,0,1.88-.38l.28-2.13,3.59-2.01c1.59-2.41,3.34-4.64,5.74-6.45l4.38-1.12,1.14.02,3.25-.17c.88-.05,1.49,2.11,2.08,2.83,1.5,1.84,2.31,3.54,2.58,5.76.56,4.67-.76,15.88-2.3,19.13l-3.98,8.35-2.87,5.28-4.89,6.39-3.07,4.32-14.88,17.79-5.91,5.5c-.88.82-3.21,2.77-2.74,3.98,2.61,6.87,6.99,8.86,7.83,13.5l.69-.97c.1-.14.37.32.53.6,4.4,7.23,9.09,14.23,15.61,19.62l12.96,10.72c.95,4.68,5.61,2.16,6.83,4.46.98,1.84,2.75,3.26,4.66,3.96l3.52,1.29,3.12,1.12,4.55,3.3c1.55,1.2,1.1,5.72.19,7.47l-2.05,3.96-3.89,3.04-3.61,1.96-5.44,2.25-11.94,1.09c-.25.02-1.26.85-1.11.97s.92.82,1,1l3.67,8.65,7.3,17.02,3.51,8.06,1.1,3.98,5.57,13.6.56,1.11c.16.32,1.37-.56,1.58-.95l7.02-12.98,7.65-15.42,2.96-5.82,5.22-9.67,3.97-7.44,2.61-6.37,2.63-6.43,2.95-6.66,3.14-3.36c1.36-1.45,6.34-1.77,7.84-.43l6.31,5.63ZM69.62,388.62c5.02-1.48,9.16-5.54,11.72-9.64-4.28-.12-7.5-.17-10.83-1.95-1.47-.78-4.01-3.47-3.64-5.06l3.59-15.77c1.2-5.27,3.43-10.15,8.45-12.21l14.03-5.76,9.46-3.38,5.62-1.94,15.86-5.87c6.73-2.49,14.78-.65,14.9-.13l.59,2.53c.13.56,1.89,1.04,2.24.59s1.26-1.6,1.22-1.55l-2.07-1.83c2-2.24,1.42-4.37,1.77-6.69,2.12-13.95,4.11-27.59,4.38-41.88.08-4.39-.43-8.64.47-12.99l3.33-16.13c.29-1.42.67-3.23,1.85-4.28l8.51-7.56c-2.23-3.25-2.48-6.66-.98-9.92l-2.11-6.83-1.51-6.26c.96-3.08.72-5.18-.89-7.97l.82-7.2.63-11.38.69-4.85,2.28-16.41,3.11-12.8,1.6-4.87,2.15-6.15,4.2-12.54,1.9-4.29c.2-.46.33-1.42.61-1.43l1.34-.08c-1.26-2.62.97-4.8,2.05-7.07,1.43-3.02,2.57-5.65,4.94-8.07.88-.9,1.51-1.82,2.17-2.98l-2.94,1.8,1.36-2.65-10.12,1.46-10.75,2.1c-.72.14-2.68-.35-3.09.25s-1.04,2.04-1.26,2.85l-2.17,7.96-2.74,11.79-2.58,14.68c-.47,2.65-1.28,5.05-2.55,7.23.05.04,1,.85.71,1.11l-1.47,1.35c.23.23.99.92.69,1.09l-1.6.89-.66,8.75-1.91,9.59-3.04,18.52-1.3,8.85-2.54,12.33c-.47,2.26-1.04,4.33-.72,6.28-.31.27-1.37,1.18-1.18,1.55l.8,1.57-1.07,6.56-1.31,7.82c-.23,1.35,1.81,4.3-.91,5.28l.09,5.23c-.53.07-2,.28-2.04.81l-.14,1.96c-.02.29-.6,1.23-.37,1.38l1.66,1.08-5.86,1.06c-.22,1.35-.29,3.58.13,5.2,1.28,4.99,1.71,9.6,2.17,14.6.5,5.48-.66,10.41-2.03,15.71-4.67,18.05-14.32,26.45-31.67,32.85-2.93-.37-6.37-1.49-9.19-2.67l-1.52-5.19c2.52-3.4,2.71-7.09,4.27-10.83l1.82-4.37c3.55-8.52,5.55-22.92,1.19-26.53-2.8-2.32-4.81.86-6.6,1.95-3.57,2.15-6.39,4.49-8.37,8.37l-7.3,14.35c-5.3,10.43-9.44,21.23-11.18,32.81l-3.68,24.56.04,9.93c.05,10.91,6.53,24.32,16.48,21.39ZM65.56,230.1l-3.59,10.94-1.67,6.81c2.63-2.33,4.13-3.56,7.16-4.01,4.68-3.44,10.06-5.02,15.63-6.33l10.22-2.4.87-7.86c.34-2.65.83-4.95,1.82-7.17.03-2.85.46-5.62,1.01-8.35l1.22-6.1,1.94-11.74c.47-2.86.63-5.45,2.16-8.07l-.48-2.76.86-5.84c.21-1.45.16-2.6.47-4.14l3.65-18.72,1.52-7.87,4.41-24.2-2.08-.74-6.06,3.2c-1.07.57-3,.64-4.19.62v.93c0,.19-.48.78-.57.61l-.66-1.26-1.52,3.88-3.88,10.29c.07,1.15-.2,2.63-.75,4.2-.14.65.08,2.22-.48,2.54l-2.05,1.17c.36.23,1.09.68,1.08.71,0,.05,0,.01-.79,1.43-.42-.24.03.02.96.56l-2.41,5.91c-.29.71-.04,3.03-.68,3.38l-2.62,1.41,1.72.86c.31.16-.43,1.12-.55,1.51l-3.51,10.84-1.53,4.72-2.67,7.32-4.71,14.25-2.94,9.91-3.01,9.56-3.3,10ZM320.19,237.67c2.5,2.22,5.12,4.35,6.04,7.45-.07.74-.53,2.22.05,2.44.47.18,2.55.49,2.88.11l3.88-4.67-6.94-5.9c-7.58-7.4-15.27-14.44-21.88-22.68l-5.7-7.12-4.27-5.33-2.92,6.28-7.76,25.35,6.93-2.13,5.74-1.31,4.03-.72c6.89-1.24,14.2,3.13,19.93,8.23ZM193.18,322.18l5.88-8.22c4.74-6.63,6.38-12.2,7.83-20.35.76-4.31-.37-8.69-1.51-12.89-2.19-8.11-8.39-10.43-17.03-11.99-2.33,5.25-2.09,9.96-2.74,15.51l-1.35,11.6-1.95,17.18-.65,17.36-.09,1.79c-.02.37,1.3.54,1.57.28l4.76-4.6,5.27-5.67Z"/>
      <path class="st0" d="M69.62,388.62c-9.94,2.93-16.43-10.48-16.48-21.39l-.04-9.93,3.68-24.56c1.74-11.59,5.88-22.38,11.18-32.81l7.3-14.35c1.97-3.88,4.8-6.22,8.37-8.37,1.79-1.08,3.8-4.27,6.6-1.95,4.36,3.62,2.36,18.01-1.19,26.53l-1.82,4.37c-1.56,3.74-1.75,7.43-4.27,10.83l1.52,5.19c2.82,1.18,6.26,2.3,9.19,2.67,17.35-6.39,27-14.8,31.67-32.85,1.37-5.3,2.53-10.22,2.03-15.71-.46-5-.89-9.61-2.17-14.6-.42-1.62-.35-3.85-.13-5.2l5.86-1.06-1.66-1.08c-.23-.15.35-1.09.37-1.38l.14-1.96c.04-.52,1.51-.74,2.04-.81l-.09-5.23c2.72-.98.69-3.93.91-5.28l1.31-7.82,1.07-6.56-.8-1.57c-.19-.36.87-1.27,1.18-1.55-.31-1.95.26-4.02.72-6.28l2.54-12.33,1.3-8.85,3.04-18.52,1.91-9.59.66-8.75,1.6-.89c.3-.17-.47-.87-.69-1.09l1.47-1.35c.29-.27-.66-1.07-.71-1.11,1.28-2.18,2.09-4.58,2.55-7.23l2.58-14.68,2.74-11.79,2.17-7.96c.22-.81.85-2.24,1.26-2.85s2.37-.11,3.09-.25l10.75-2.1,10.12-1.46-1.36,2.65,2.94-1.8c-.65,1.17-1.28,2.08-2.17,2.98-2.37,2.42-3.51,5.05-4.94,8.07-1.08,2.27-3.31,4.45-2.05,7.07l-1.34.08c-.29.02-.41.97-.61,1.43l-1.9,4.29-4.2,12.54-2.15,6.15-1.6,4.87-3.11,12.8-2.28,16.41-.69,4.85-.63,11.38-.82,7.2c1.6,2.8,1.85,4.89.89,7.97l1.51,6.26,2.11,6.83c-1.5,3.26-1.25,6.67.98,9.92l-8.51,7.56c-1.18,1.05-1.56,2.86-1.85,4.28l-3.33,16.13c-.9,4.36-.39,8.61-.47,12.99-.27,14.29-2.26,27.93-4.38,41.88-.35,2.32.23,4.46-1.77,6.69l2.07,1.83c.04-.05-.86,1.1-1.22,1.55s-2.11-.02-2.24-.59l-.59-2.53c-.12-.52-8.17-2.36-14.9.13l-15.86,5.87-5.62,1.94-9.46,3.38-14.03,5.76c-5.02,2.06-7.25,6.94-8.45,12.21l-3.59,15.77c-.36,1.59,2.18,4.28,3.64,5.06,3.33,1.78,6.55,1.83,10.83,1.95-2.56,4.1-6.7,8.16-11.72,9.64Z"/>
      <path class="st0" d="M65.56,230.1l3.3-10,3.01-9.56,2.94-9.91,4.71-14.25,2.67-7.32,1.53-4.72,3.51-10.84c.13-.4.87-1.36.55-1.51l-1.72-.86,2.62-1.41c.65-.35.4-2.67.68-3.38l2.41-5.91c-.92-.54-1.37-.8-.96-.56.78-1.42.78-1.38.79-1.43,0-.03-.72-.49-1.08-.71l2.05-1.17c.56-.32.34-1.89.48-2.54.55-1.56.82-3.05.75-4.2l3.88-10.29,1.52-3.88.66,1.26c.09.17.58-.42.57-.61v-.93c1.18.01,3.11-.06,4.18-.62l6.06-3.2,2.08.74-4.41,24.2-1.52,7.87-3.65,18.72c-.3,1.55-.25,2.7-.47,4.14l-.86,5.84.48,2.76c-1.53,2.62-1.68,5.21-2.16,8.07l-1.94,11.74-1.22,6.1c-.55,2.73-.98,5.49-1.01,8.35-.99,2.22-1.49,4.52-1.82,7.17l-.87,7.86-10.22,2.4c-5.57,1.31-10.95,2.88-15.63,6.33-3.03.46-4.53,1.68-7.16,4.01l1.67-6.81,3.59-10.94Z"/>
      <path class="st0" d="M193.18,322.18l-5.27,5.67-4.76,4.6c-.27.26-1.59.09-1.57-.28l.09-1.79.65-17.36,1.95-17.18,1.35-11.6c.65-5.55.41-10.26,2.74-15.51,8.64,1.56,14.84,3.88,17.03,11.99,1.13,4.2,2.27,8.57,1.51,12.89-1.44,8.15-3.08,13.72-7.83,20.35l-5.88,8.22Z"/>
      <path class="st0" d="M320.19,237.67c-5.72-5.1-13.04-9.47-19.93-8.23l-4.03.72-5.74,1.31-6.93,2.13,7.76-25.35,2.92-6.28,4.27,5.33,5.7,7.12c6.61,8.24,14.3,15.28,21.88,22.68l6.94,5.9-3.88,4.67c-.32.39-2.41.07-2.88-.11-.59-.23-.12-1.71-.05-2.44-.93-3.1-3.55-5.22-6.04-7.45Z"/>
    </g>
  </g>
  <g id="Layer_2" class="st2">
    <path d="M-164.95-122.81c22.96-16.79,21.45-2.77,25.13,14.9,5.27,25.27,9.87,52.11,21.28,82.99,0,0,12.82-65.34,23.86-96.48,7.94-22.39,11.74-24.62,26.48-26.38,24.28-2.9,23.22-3.68,7.74,42.31-13.23,39.32-28.92,114.93-34.18,139.1-2.88,13.25-2.2,15.68-23.07,15.8-15.43.08-17.25-5.3-26.75-33.2-9.49-27.9-18.07-50.53-26.74-85.89-8.67-35.36-9.86-41.36,6.24-53.14Z"/>
    <g>
      <path d="M-26.74-110.75c37.88-4.75,49.78-8.11,55.66-7.94,5.88.16.49-17.54-4.81-25.28-5.3-7.74-2.62-11.46-53.93-3.87-51.31,7.59-50.66,6.7-55.9,20.75-7.17,19.22-7.04,27.86,3.45,26.04,27.57-4.79,40.04-7.75,55.54-9.69Z"/>
      <path d="M-43.74-116.85L-1.5-121.13s-11.45,27.46-19.3,102.78c-4.64,44.5.67,54.66-24.38,61.21-18.28,4.78-24.66,1.3-22.96-13.19,7.4-63.09,12.94-103.74,24.4-146.52Z"/>
    </g>
    <path d="M49.17-65c-3.69,7.9,20.7,21.24,36.31-7.16,4.63-8.41,14.01-28.83,12.81-51.28-2.44-45.7-51.69-35.5-75.03-1.95C2.83-96.01-12.82-50.72-9.69-6.96-5.12,57.06,50.72,53.94,70.18,21.86,83.38.1,98.09-27.25,84.92-35.44c-6.59-4.1-22.05-7.15-24.49.64-1.59,5.06-6.76,16.22-14.17,25.68C39.64-.68,22.01,5.33,30.48-46.88c4.37-26.93,18.94-58.61,27.95-61.83,11.27-4.03-2.73,29.74-9.26,43.72Z"/>
    <path d="M130.9-158.82c-18.99-8.79-16.99.95-22.34,29.45-5.35,28.51-22.12,109.55-29.52,136.8-6.86,25.24-10.12,33.27,1.91,31.76,28.24-3.55,29.39-5.22,35.65-26.72,12.62-43.32,24.7-111.11,28.72-135.24,2.83-17.01,2.47-28.22-14.43-36.05Z"/>
    <path d="M119.66-76.97s10.13-1.72,28.59-24.28c23.79-29.07,24.86-44.81,36.88-24.94,9.76,16.15,6.5,32-9.98,51.31-43.82,51.36-61.08,45.16-61.08,45.16l5.6-47.25Z"/>
    <path d="M100.85-63.61C114.67.46,150.94,35.1,162.01,34.45c13.77-.8,30.46-4.55,31.84-12.78,1.39-8.23-4.39-4.67-16.19-20.37-26.56-35.3-39.27-62.92-39.87-74.92l-36.94,10.01Z"/>
    <path d="M-72.47,165.62s2.45,23.81,30.45,56.28c17.65,20.48,50.05,17.33,52.62-3.65,1.46-11.91-6.86-.03-31.32-31.92-14.9-19.42-17.53-35.02-17.53-35.02l-34.22,14.3Z"/>
    <path d="M-24.63,37.52c-.58-8.21-24.9.77-32.51,4.13-10.51,4.64-.35,12.54-25.56,132.63-13.52,64.42-21.99,70.06-.07,65.38,27.31-5.83,27.7-32.21,33.58-56.06,13.81-56,26.17-123.23,24.57-146.09Z"/>
    <path d="M-43.14,180.74s26.67-4.88,53.56-49.79C37.55,85.64,26.4,13.92-30.12,34.13l-3.04,45.6s10.35-13.84,19.44-4.8c9.09,9.04-3.1,46.44-25.81,61.8"/>
    <path d="M7.55,156.64c-12.57,4.5-10.32,11.67-5.25,20.33s4.97,19.87,23.94,12.07c18.97-7.81,43.05-15.98,60.75-20,17.7-4.02,10.12-13.86,1.92-22.36-8.2-8.5-16.99-8.26-33-3.91-16.02,4.35-35.16,9.14-48.36,13.87Z"/>
    <g>
      <g>
        <path d="M-121.48,114.7c-3.68,7.56,20.6,20.32,36.15-6.85,4.6-8.05,11.46-28.21,5.88-49.04-10.35-38.63-54.38-24.59-77.61,7.49-20.34,28.09-35.92,71.41-32.81,113.26,4.55,61.22,60.13,58.23,79.51,27.56,13.14-20.81,27.78-46.96,14.67-54.8-6.56-3.92-21.95-6.84-24.38.61-1.58,4.84-6.73,15.52-14.11,24.56-6.59,8.07-24.13,13.82-15.7-36.11,4.35-25.75,13.67-46.7,27.82-59.13,11.51-10.11,7.08,19.09.58,32.45Z"/>
        <path d="M-136.8,238.76c-3.65,14.55-8.15,22.39,7.13,21.13s25.78-12.11,33.49-55.44c6.62-37.24,4.16-41.26,13.97-46.93l-40.43-1.81s2,18.68-14.15,83.04Z"/>
      </g>
      <path d="M-125.43,138.9c-17.98,7.18-12.33,39.42,4.76,32.23,17.1-7.19,27.58-10.64,43.64-14.58,16.06-3.94,8.81-12.06,1.04-19.02-7.77-6.96-20.83-10.05-49.44,1.38Z"/>
    </g>
    <path d="M115.27,63.27c-3.07-15.84-11.51-37.98-39.86-35.37-15.12,1.39-39.53,7.89-47.06,55.12-4.09,25.66-18.89,110.56-22.97,135.56-3.78,23.15-.13,24.72,11.48,21.82,27.26-6.8,30.03-26.88,35.86-65.65,9.93-66.04,15.28-106.09,25.24-106.13,5.04-.02,6.69,20.69-6.24,48.06-3.19,6.76,12.29,14.32,24.34,5.13,12.8-9.76,23.38-37.02,19.21-58.54Z"/>
    <path d="M121.54,123.99c-25.31,46.72-49.06,72.17-61.87,88.72-5.68,7.33,14.26,33.03,36.71,11.95,15.3-14.36,44.7-50.06,74.59-111.02,29.16-59.47,28.48-58.96,19.71-70.6-8.76-11.64-19.15-21.63-27.89.72-8.74,22.35-41.26,80.22-41.26,80.22Z"/>
    <path d="M105.39,62.47c-5.64-19.33,22-37.69,27.6-25.54,3.39,7.35,32.74,77.35,50.95,148.92,4.84,19.02-23.68,48.69-30.15,26.79-6.47-21.9-43.64-133.81-48.41-150.17Z"/>
  </g>
  <g id="Layer_3" class="st2">
    <path d="M6.09-18.55c22.98-16.5,21.45-2.74,25.11,14.58,5.23,24.78,9.8,51.1,21.17,81.37,0,0,12.9-64.11,23.99-94.67,7.97-21.97,11.78-24.17,26.51-25.92,24.28-2.88,23.22-3.64,7.69,41.49-13.28,38.59-29.07,112.78-34.37,136.49-2.9,13-2.22,15.39-23.09,15.53-15.43.1-17.25-5.17-26.7-32.53S8.4,68.25-.22,33.58C-8.84-1.09-10.02-6.98,6.09-18.55Z"/>
    <g>
      <path d="M140.32-6.14c37.88-4.75,49.78-8.11,55.66-7.94s.49-17.54-4.81-25.28-2.62-11.46-53.93-3.87c-51.31,7.59-50.66,6.7-55.9,20.75-7.17,19.22-7.04,27.86,3.45,26.04,27.57-4.79,40.04-7.75,55.54-9.69Z"/>
      <path d="M123.32-12.24l42.24-4.28s-11.45,27.46-19.3,102.78c-4.64,44.5.67,54.66-24.38,61.21-18.28,4.78-24.66,1.3-22.96-13.19,7.4-63.09,12.94-103.74,24.4-146.52Z"/>
    </g>
    <path d="M216.23,39.61c-3.69,7.9,20.7,21.24,36.31-7.16,4.63-8.41,14.01-28.83,12.81-51.28-2.44-45.7-51.69-35.5-75.03-1.95-20.44,29.38-36.09,74.68-32.96,118.44,4.57,64.01,60.41,60.89,79.88,28.82,13.2-21.76,27.91-49.11,14.74-57.3-6.59-4.1-22.05-7.15-24.49.64-1.59,5.06-6.76,16.22-14.17,25.68-6.62,8.44-24.24,14.45-15.77-37.76,4.37-26.93,18.94-58.61,27.95-61.83,11.27-4.03-2.73,29.74-9.26,43.72Z"/>
    <path d="M297.96-54.21c-18.99-8.79-16.99.95-22.34,29.45s-22.12,109.55-29.52,136.8c-6.86,25.24-10.12,33.27,1.91,31.76,28.24-3.55,29.39-5.22,35.65-26.72,12.62-43.32,24.7-111.11,28.72-135.24,2.83-17.01,2.47-28.22-14.43-36.05Z"/>
    <path d="M286.73,27.64s10.13-1.72,28.59-24.28c23.79-29.07,24.86-44.81,36.88-24.94,9.76,16.15,6.5,32-9.98,51.31-43.82,51.36-61.08,45.16-61.08,45.16l5.6-47.25Z"/>
    <path d="M267.92,41c13.82,64.07,50.09,98.71,61.16,98.06,13.77-.8,30.46-4.55,31.84-12.78,1.39-8.23-4.39-4.67-16.19-20.37-26.56-35.3-39.27-62.92-39.87-74.92l-36.94,10.01Z"/>
    <path d="M103.59,272.83s2.45,24.6,30.45,58.16c17.65,21.16,44.81,18.01,47.38-3.67,1.46-12.3-1.62-.14-26.08-33.09-14.9-20.07-17.53-36.19-17.53-36.19l-34.22,14.78Z"/>
    <path d="M151.43,140.46c-.58-8.49-24.9.8-32.51,4.27-10.51,4.79-.35,12.96-25.56,137.06-13.52,66.57-28.38,77.71-.07,71.56s27.7-37.28,33.58-61.93c13.81-57.86,26.17-127.34,24.57-150.97Z"/>
    <path d="M132.93,288.45s26.67-5.04,53.56-51.45c27.13-46.82,15.98-120.93-40.54-100.04l-3.04,47.12s10.35-14.3,19.44-4.96c9.09,9.34-3.1,47.99-25.81,63.86"/>
    <path d="M183.62,263.55c-12.57,4.65-10.32,12.06-5.25,21.01,5.08,8.95,4.97,20.54,23.94,12.47,18.97-8.07,43.05-16.51,60.75-20.66,17.7-4.15,10.12-14.33,1.92-23.11-8.2-8.78-16.99-8.54-33-4.04s-35.16,9.45-48.36,14.33Z"/>
    <g>
      <g>
        <path d="M54.58,220.21c-3.68,7.81,20.6,20.99,36.15-7.08,4.6-8.31,11.46-29.15,5.88-50.68-10.35-39.91-54.38-25.41-77.61,7.74C-1.34,199.22-16.92,243.99-13.81,287.23c4.55,63.26,60.13,60.17,79.51,28.48,13.14-21.5,27.78-48.53,14.67-56.63-6.56-4.05-21.95-7.06-24.38.63-1.58,5-6.73,16.03-14.11,25.38-6.59,8.34-24.13,14.28-15.7-37.32,4.35-26.61,13.67-48.26,27.82-61.1,11.51-10.45,7.08,19.73.58,33.53Z"/>
        <path d="M39.26,348.41c-3.65,15.03-8.15,23.13,7.13,21.84,15.28-1.3,25.78-12.52,33.49-57.28,6.62-38.48,4.16-42.64,13.97-48.49l-40.43-1.87s2,19.31-14.15,85.81Z"/>
      </g>
      <path d="M50.63,245.22c-17.98,7.42-12.33,40.74,4.76,33.3,17.1-7.43,27.58-11,43.64-15.07s8.81-12.47,1.04-19.66c-7.77-7.19-20.83-10.39-49.44,1.43Z"/>
    </g>
    <path d="M291.12,163.42c-3.09-16.54-11.56-39.64-39.91-36.95-15.12,1.43-39.53,8.18-46.99,57.45-4.05,26.77-18.75,115.33-22.8,141.4-3.75,24.15-.09,25.79,11.51,22.78,27.25-7.06,30-28.01,35.78-68.45,9.84-68.89,15.14-110.67,25.11-110.7,5.04-.01,6.72,21.6-6.17,50.13-3.19,7.05,12.31,14.95,24.35,5.38,12.79-10.17,23.33-38.6,19.13-61.05Z"/>
    <path d="M297.61,229.81c-25.31,48.28-49.06,74.58-61.87,91.68-5.68,7.58,14.26,34.13,36.71,12.35,15.3-14.84,44.7-51.73,74.59-114.72,29.16-61.45,28.48-60.93,19.71-72.95-8.76-12.03-19.15-22.35-27.89.74-8.74,23.09-41.26,82.89-41.26,82.89Z"/>
    <path d="M281.47,166.71c-5.95-20.29,22.93-39.46,28.83-26.71,3.57,7.72,34.48,81.19,53.73,156.29,5.12,19.96-24.66,50.99-31.49,28.01-6.83-22.98-46.03-140.42-51.06-157.59Z"/>
    <path d="M103.48,359.21c-23.67-.51-21.87,9.54,1.4,26.4,17.33,12.56,44,9.56,125.24.21,81.79-9.41,72.26-7.4,66.71-30.66-5.56-23.26-9.03-15.11-44.16-9.82-50.61,7.61-123.06,14.43-149.18,13.87Z"/>
    <path d="M279.48-63.92c23.66.73,21.96-9.33-1.15-26.42-17.21-12.72-43.9-9.98-125.23-1.4-81.87,8.64-72.33,6.72-66.99,30.03,5.34,23.31,8.88,15.19,44.07,10.24,50.68-7.14,123.19-13.27,149.3-12.46Z"/>
  </g>
  <g id="Layer_4">
    <g>
      <path d="M23.71,44.01c22.98-16.5,21.45-2.74,25.11,14.58,5.23,24.78,9.8,51.1,21.17,81.37,0,0,12.9-64.11,23.99-94.67,7.97-21.97,11.78-24.17,26.51-25.92,24.28-2.88,23.22-3.64,7.69,41.49-13.28,38.59-29.07,112.78-34.37,136.49-2.9,13-2.22,15.39-23.09,15.53-15.43.1-17.25-5.17-26.7-32.53-9.45-27.36-18-49.54-26.62-84.21-8.62-34.67-9.8-40.55,6.31-52.13Z"/>
      <g>
        <path d="M157.94,56.43c37.88-4.75,49.78-8.11,55.66-7.94,5.88.16.49-17.54-4.81-25.28-5.3-7.74-2.62-11.46-53.93-3.87-51.31,7.59-50.66,6.7-55.9,20.75-7.17,19.22-7.04,27.86,3.45,26.04,27.57-4.79,40.04-7.75,55.54-9.69Z"/>
        <path d="M140.95,50.33l42.24-4.28s-11.45,27.46-19.3,102.78c-4.64,44.5.67,54.66-24.38,61.21-18.28,4.78-24.66,1.3-22.96-13.19,7.4-63.09,12.94-103.74,24.4-146.52Z"/>
      </g>
      <path d="M233.86,102.18c-3.69,7.9,20.7,21.24,36.31-7.16,4.63-8.41,14.01-28.83,12.81-51.28-2.44-45.7-51.69-35.5-75.03-1.95-20.44,29.38-36.09,74.68-32.96,118.44,4.57,64.01,60.41,60.89,79.88,28.82,13.2-21.76,27.91-49.11,14.74-57.3-6.59-4.1-22.05-7.15-24.49.64-1.59,5.06-6.76,16.22-14.17,25.68-6.62,8.44-24.24,14.45-15.77-37.76,4.37-26.93,18.94-58.61,27.95-61.83,11.27-4.03-2.73,29.74-9.26,43.72Z"/>
      <g>
        <path d="M314.59,8.36c-18.99-8.79-16.99-.05-22.34,28.45-5.35,28.51-21.12,110.55-28.52,137.8-6.86,25.24-10.12,33.27,1.91,31.76,28.24-3.55,29.39-5.22,35.65-26.72,12.62-43.32,24.7-111.11,28.72-135.24,2.83-17.01,1.47-28.22-15.43-36.05Z"/>
        <path d="M304.66,101.44s11.9-6.18,29.5-29.41c22.68-29.94,23.16-45.71,35.91-26.31,10.36,15.77,4.7,31.85-11.03,51.76-41.85,52.97-58.19,51.39-58.19,51.39l3.81-47.43Z"/>
        <path d="M285.54,103.57c13.82,64.07,50.09,98.71,61.16,98.06,13.77-.8,30.46-4.55,31.84-12.78,1.39-8.23-4.39-4.67-16.19-20.37-26.56-35.3-39.27-62.92-39.87-74.92l-36.94,10.01Z"/>
      </g>
      <g>
        <path d="M124.21,334.39s2.45,24.6,30.45,58.16c17.65,21.16,44.81,18.01,47.38-3.67,1.46-12.3-1.62-.14-26.08-33.09-14.9-20.07-17.53-36.19-17.53-36.19l-34.22,14.78Z"/>
        <path d="M169.06,203.03c-.58-8.49-24.9.8-32.51,4.27-10.51,4.79-.35,12.96-25.56,137.06-13.52,66.57-28.38,77.71-.07,71.56s27.7-37.28,33.58-61.93c13.81-57.86,26.17-127.34,24.57-150.97Z"/>
        <path d="M150.55,351.02s26.67-5.04,53.56-51.45c27.13-46.82,15.98-120.93-40.54-100.04l-3.04,47.12s10.35-14.3,19.44-4.96c9.09,9.34-3.1,47.99-25.81,63.86"/>
      </g>
      <g>
        <g>
          <path d="M72.2,282.78c-3.68,7.81,20.6,20.99,36.15-7.08,4.6-8.31,11.46-29.15,5.88-50.68-10.35-39.91-54.38-25.41-77.61,7.74C16.29,261.79.7,306.55,3.81,349.8c4.55,63.26,60.13,60.17,79.51,28.48,13.14-21.5,27.78-48.53,14.67-56.63-6.56-4.05-21.95-7.06-24.38.63-1.58,5-6.73,16.03-14.11,25.38-6.59,8.34-24.13,14.28-15.7-37.32,4.35-26.61,13.67-48.26,27.82-61.1,11.51-10.45,7.08,19.73.58,33.53Z"/>
          <path d="M56.88,410.98c-3.65,15.03-8.15,23.13,7.13,21.84,15.28-1.3,25.78-12.52,33.49-57.28,6.62-38.48,4.16-42.64,13.97-48.49l-40.43-1.87s2,19.31-14.15,85.81Z"/>
        </g>
        <path d="M68.26,307.79c-17.98,7.42-12.33,40.74,4.76,33.3,17.1-7.43,27.58-11,43.64-15.07s8.81-12.47,1.04-19.66c-7.77-7.19-20.83-10.39-49.44,1.43Z"/>
      </g>
      <g>
        <path d="M201.24,326.12c-12.57,4.65-10.32,12.06-5.25,21.01,5.08,8.95,4.97,20.54,23.94,12.47,18.97-8.07,43.05-16.51,60.75-20.66,17.7-4.15,10.12-14.33,1.92-23.11-8.2-8.78-16.99-8.54-33-4.04s-35.16,9.45-48.36,14.33Z"/>
        <path d="M308.74,225.98c-3.09-16.54-11.56-39.64-39.91-36.95-15.12,1.43-39.53,8.18-46.99,57.45-4.05,26.77-18.75,115.33-22.8,141.4-3.75,24.15-.09,25.79,11.51,22.78,27.25-7.06,30-28.01,35.78-68.45,9.84-68.89,15.14-110.67,25.11-110.7,5.04-.01,6.72,21.6-6.17,50.13-3.19,7.05,12.31,14.95,24.35,5.38,12.79-10.17,23.33-38.6,19.13-61.05Z"/>
      </g>
      <g>
        <path d="M315.23,292.38c-25.31,48.28-49.06,74.58-61.87,91.68-5.68,7.58,14.26,34.13,36.71,12.35,15.3-14.84,44.7-51.73,74.59-114.72,29.16-61.45,28.48-60.93,19.71-72.95-8.76-12.03-19.15-22.35-27.89.74-8.74,23.09-41.26,82.89-41.26,82.89Z"/>
        <path d="M299.1,229.28c-5.95-20.29,22.93-39.46,28.83-26.71,3.57,7.72,34.48,81.19,53.73,156.29,5.12,19.96-24.66,50.99-31.49,28.01-6.83-22.98-46.03-140.42-51.06-157.59Z"/>
      </g>
      <path d="M121.1,421.78c-23.67-.51-21.87,9.54,1.4,26.4,17.33,12.56,44,9.56,125.24.21,81.79-9.41,72.26-7.4,66.71-30.66-5.56-23.26-9.03-15.11-44.16-9.82-50.61,7.61-123.06,14.43-149.18,13.87Z"/>
    </g>
  </g>
</svg>