<?xml version="1.0" encoding="UTF-8"?>
<svg id="Layer_1" xmlns="http://www.w3.org/2000/svg" version="1.1" viewBox="0 0 195.38 294.67" fill="currentColor">
  <!-- Generator: Adobe Illustrator 30.4.0, SVG Export Plug-In . SVG Version: 2.1.4 Build 226)  -->
  <path d="M89.49,136.35C53.99,204.07,20.68,240.95,2.71,264.95c-7.96,10.63,20,47.88,51.5,17.33,21.46-20.81,62.7-72.55,104.62-160.91,40.9-86.19,39.94-85.46,27.65-102.33-12.29-16.87-26.86-31.35-39.12,1.04s-57.87,116.27-57.87,116.27Z"/>
  <path d="M66.86,47.84C58.51,19.38,99.02-7.51,107.29,10.37c5.01,10.83,48.36,113.89,75.36,219.22,7.18,27.99-34.59,71.53-44.17,39.29-9.58-32.23-64.56-196.96-71.63-221.04Z"/>
</svg>